;TYPE=PLATED
;Layer: PTH_Through_Via
;EasyEDA Pro Client v3.2.149.88089769, 2026-07-05 20:04:29
;Gerber Generator version 0.3
M48
METRIC,LZ,0000.00000
;Hole size 1 = 0.30500 METRIC
T01C0.30500
%
G05
G90
T01
X21.463Y-26.416
X31.877Y-26.035
X39.751Y-28.321
X44.958Y-22.225
X47.498Y-22.225
X39.57342Y-16.76396
X39.57342Y-18.65876
X39.57342Y-20.61865
X39.57342Y-22.47854
X36.068Y-22.733
X38.1Y-17.018
X37.338Y-11.811
X25.146Y-18.923
X25.146Y-9.652
X17.399Y-17.78
X23.241Y-15.367
X9.398Y-30.099
X29.972Y-13.589
X33.07545Y-13.589
X29.972Y-16.51
X33.10545Y-16.51
X8.509Y-24.003
X25.908Y-14.224
X33.528Y-25.527
X42.418Y-15.113
X27.559Y-9.652
X37.338Y-9.652
X5.43814Y-20.60886
X5.43814Y-15.52886
X5.43814Y-10.44886
X5.43814Y-5.36886
X10.51814Y-15.52886
X10.51814Y-10.44886
X10.51814Y-5.36886
X10.51814Y-20.60886
X15.59814Y-10.44886
X15.59814Y-5.36886
X15.59814Y-15.52886
X15.59814Y-25.68886
X20.67814Y-5.36886
X25.75814Y-5.36886
X25.75814Y-25.68886
X30.83814Y-5.36886
X30.83814Y-15.52886
X35.91814Y-5.36886
X35.91814Y-25.68886
X40.99814Y-5.36886
X40.99814Y-15.52886
X46.07814Y-5.36886
X46.07814Y-20.60886
X46.07814Y-15.52886
X51.15814Y-10.44886
X51.15814Y-5.36886
X51.15814Y-15.52886
X51.15814Y-25.68886
X51.15814Y-20.60886
M30