G04 Layer: TopPasteMaskLayer*
G04 EasyEDA Pro v3.2.149.88089769, 2026-07-05 20:04:29*
G04 Gerber Generator version 0.3*
G04 Scale: 100 percent, Rotated: No, Reflected: No*
G04 Dimensions in millimeters*
G04 Leading zeros omitted, absolute positions, 4 integers and 5 decimals*
G04 Generated by one-click*
G04 Object Configs: Pad,Via,Track,Text,Image,Dimension,BoardOutline,BoardCutout,CopperFilled,SolidRegion,FPCStiffener,Line,PlaneZone,ComponentProperty,ComponentSilkscreen,TearDrop*
G04 Layer Configs: 1,2,3,4,5,6,7,8,9,10,11,13,14,56*
G04 Copper Areas: 0*
%FSLAX45Y45*%
%MOMM*%
%ADD10R,0.8X0.9*%
%ADD11R,0.9X0.8*%
%ADD12O,1.5X0.27*%
%ADD13O,0.27X1.5*%
%ADD14R,1.8X2.49999*%
%ADD15R,0.7X1.7*%
%ADD16R,0.59995X1.1999*%
%ADD17R,0.8020X0.8*%
%ADD18R,0.8X0.8*%
G75*


G04 PolygonModel Start*
G36*
G01X424901Y-2356998D02*
G01X429903Y-2351999D01*
G01X509902Y-2351999D01*
G01X514901Y-2356998D01*
G01X514901Y-2436998D01*
G01X509902Y-2441999D01*
G01X485699Y-2441999D01*
G01X485699Y-2404999D01*
G01X452699Y-2404999D01*
G01X452699Y-2441999D01*
G01X429903Y-2441999D01*
G01X424901Y-2436998D01*
G01X424901Y-2356998D01*
G37*
G36*
G01X514899Y-2596002D02*
G01X509897Y-2601001D01*
G01X429898Y-2601001D01*
G01X424899Y-2596002D01*
G01X424899Y-2516002D01*
G01X429898Y-2511001D01*
G01X454101Y-2511001D01*
G01X454101Y-2548001D01*
G01X487101Y-2548001D01*
G01X487101Y-2511001D01*
G01X509897Y-2511001D01*
G01X514899Y-2516002D01*
G01X514899Y-2596002D01*
G37*
G36*
G01X4082501Y-2598298D02*
G01X4087503Y-2593299D01*
G01X4167502Y-2593299D01*
G01X4172501Y-2598298D01*
G01X4172501Y-2678298D01*
G01X4167502Y-2683299D01*
G01X4143299Y-2683299D01*
G01X4143299Y-2646299D01*
G01X4110299Y-2646299D01*
G01X4110299Y-2683299D01*
G01X4087503Y-2683299D01*
G01X4082501Y-2678298D01*
G01X4082501Y-2598298D01*
G37*
G36*
G01X4172499Y-2837302D02*
G01X4167497Y-2842301D01*
G01X4087498Y-2842301D01*
G01X4082499Y-2837302D01*
G01X4082499Y-2757302D01*
G01X4087498Y-2752301D01*
G01X4111701Y-2752301D01*
G01X4111701Y-2789301D01*
G01X4144701Y-2789301D01*
G01X4144701Y-2752301D01*
G01X4167497Y-2752301D01*
G01X4172499Y-2757302D01*
G01X4172499Y-2837302D01*
G37*
G36*
G01X3726901Y-2598298D02*
G01X3731903Y-2593299D01*
G01X3811902Y-2593299D01*
G01X3816901Y-2598298D01*
G01X3816901Y-2678298D01*
G01X3811902Y-2683299D01*
G01X3787699Y-2683299D01*
G01X3787699Y-2646299D01*
G01X3754699Y-2646299D01*
G01X3754699Y-2683299D01*
G01X3731903Y-2683299D01*
G01X3726901Y-2678298D01*
G01X3726901Y-2598298D01*
G37*
G36*
G01X3816899Y-2837302D02*
G01X3811897Y-2842301D01*
G01X3731898Y-2842301D01*
G01X3726899Y-2837302D01*
G01X3726899Y-2757302D01*
G01X3731898Y-2752301D01*
G01X3756101Y-2752301D01*
G01X3756101Y-2789301D01*
G01X3789101Y-2789301D01*
G01X3789101Y-2752301D01*
G01X3811897Y-2752301D01*
G01X3816899Y-2757302D01*
G01X3816899Y-2837302D01*
G37*

G04 Pad Start*
G54D10*
G01X4235602Y-1676400D03*
G01X4095598Y-1676400D03*
G01X4235602Y-1866900D03*
G01X4095598Y-1866900D03*
G01X4235544Y-2058473D03*
G01X4095539Y-2058473D03*
G01X4235602Y-2247900D03*
G01X4095598Y-2247900D03*
G54D11*
G01X698500Y-2546502D03*
G01X698500Y-2406498D03*
G54D12*
G01X2737307Y-1236294D03*
G01X2737307Y-1286307D03*
G01X2737307Y-1336294D03*
G01X2737307Y-1386307D03*
G01X2737307Y-1436294D03*
G01X2737307Y-1486306D03*
G01X2737307Y-1536294D03*
G01X2737307Y-1586306D03*
G01X2737307Y-1636293D03*
G01X2737307Y-1686306D03*
G01X2737307Y-1736293D03*
G01X2737307Y-1786306D03*
G54D13*
G01X2887294Y-1936293D03*
G01X2937307Y-1936293D03*
G01X2987294Y-1936293D03*
G01X3037307Y-1936293D03*
G01X3087294Y-1936293D03*
G01X3137306Y-1936293D03*
G01X3187294Y-1936293D03*
G01X3237306Y-1936293D03*
G01X3287293Y-1936293D03*
G01X3337306Y-1936293D03*
G01X3387293Y-1936293D03*
G01X3437306Y-1936293D03*
G54D12*
G01X3587293Y-1786306D03*
G01X3587293Y-1736293D03*
G01X3587293Y-1686306D03*
G01X3587293Y-1636293D03*
G01X3587293Y-1586306D03*
G01X3587293Y-1536294D03*
G01X3587293Y-1486306D03*
G01X3587293Y-1436294D03*
G01X3587293Y-1386307D03*
G01X3587293Y-1336294D03*
G01X3587293Y-1286307D03*
G01X3587293Y-1236294D03*
G54D13*
G01X3437306Y-1086307D03*
G01X3387293Y-1086307D03*
G01X3337306Y-1086307D03*
G01X3287293Y-1086307D03*
G01X3237306Y-1086307D03*
G01X3187294Y-1086307D03*
G01X3137306Y-1086307D03*
G01X3087294Y-1086307D03*
G01X3037307Y-1086307D03*
G01X2987294Y-1086307D03*
G01X2937307Y-1086307D03*
G01X2887294Y-1086307D03*
G54D14*
G01X2284997Y-2906288D03*
G01X1525003Y-2906288D03*
G54D15*
G01X1779994Y-2656302D03*
G01X1905013Y-2656302D03*
G01X2030006Y-2656302D03*
G54D11*
G01X769899Y-2808300D03*
G01X423901Y-2808300D03*
G54D16*
G01X836905Y-3008300D03*
G01X356895Y-3008300D03*
G54D14*
G01X3339097Y-2906288D03*
G01X2579103Y-2906288D03*
G54D15*
G01X2834094Y-2656302D03*
G01X2959113Y-2656302D03*
G01X3084106Y-2656302D03*
G54D18*
G01X4126200Y-2997187D03*
G01X3976400Y-2997213D03*
G01X3765890Y-2992083D03*
G01X3616091Y-2992108D03*
G04 Pad End*

M02*

