G04 Layer: TopSilkscreenLayer*
G04 EasyEDA Pro v3.2.149.88089769, 2026-07-05 20:04:29*
G04 Gerber Generator version 0.3*
G04 Scale: 100 percent, Rotated: No, Reflected: No*
G04 Dimensions in millimeters*
G04 Leading zeros omitted, absolute positions, 4 integers and 5 decimals*
G04 Generated by one-click*
G04 Object Configs: Pad,Via,Track,Text,Image,Dimension,BoardOutline,BoardCutout,CopperFilled,SolidRegion,FPCStiffener,Line,PlaneZone,ComponentProperty,ComponentSilkscreen,TearDrop*
G04 Layer Configs: 1,2,3,4,5,6,7,8,9,10,11,13,14,56*
G04 Copper Areas: 0*
%FSLAX45Y45*%
%MOMM*%
%ADD10C,0.1524*%
%ADD11C,0.203*%
%ADD12C,0.22*%
%ADD13C,0.254*%
%ADD14C,0.2*%
%ADD15C,0.4*%
%ADD16C,0.1543*%
%ADD17C,0.15001*%
G75*


G04 Text Start*
G54D10*
G01X4384802Y-1648460D02*
G01X4381754Y-1642110D01*
G01X4375404Y-1636014D01*
G01X4369308Y-1632966D01*
G01X4356862Y-1632966D01*
G01X4350766Y-1636014D01*
G01X4344416Y-1642110D01*
G01X4341368Y-1648460D01*
G01X4338320Y-1657604D01*
G01X4338320Y-1673098D01*
G01X4341368Y-1682496D01*
G01X4344416Y-1688592D01*
G01X4350766Y-1694942D01*
G01X4356862Y-1697990D01*
G01X4369308Y-1697990D01*
G01X4375404Y-1694942D01*
G01X4381754Y-1688592D01*
G01X4384802Y-1682496D01*
G01X4415028Y-1645412D02*
G01X4421124Y-1642110D01*
G01X4430268Y-1632966D01*
G01X4430268Y-1697990D01*
G01X4384860Y-1837887D02*
G01X4381812Y-1831537D01*
G01X4375462Y-1825441D01*
G01X4369366Y-1822393D01*
G01X4356920Y-1822393D01*
G01X4350824Y-1825441D01*
G01X4344474Y-1831537D01*
G01X4341426Y-1837887D01*
G01X4338378Y-1847031D01*
G01X4338378Y-1862525D01*
G01X4341426Y-1871923D01*
G01X4344474Y-1878019D01*
G01X4350824Y-1884369D01*
G01X4356920Y-1887417D01*
G01X4369366Y-1887417D01*
G01X4375462Y-1884369D01*
G01X4381812Y-1878019D01*
G01X4384860Y-1871923D01*
G01X4418134Y-1837887D02*
G01X4418134Y-1834839D01*
G01X4421182Y-1828489D01*
G01X4424230Y-1825441D01*
G01X4430326Y-1822393D01*
G01X4442772Y-1822393D01*
G01X4449122Y-1825441D01*
G01X4452170Y-1828489D01*
G01X4455218Y-1834839D01*
G01X4455218Y-1840935D01*
G01X4452170Y-1847031D01*
G01X4445820Y-1856429D01*
G01X4415086Y-1887417D01*
G01X4458266Y-1887417D01*
G01X4384802Y-2029460D02*
G01X4381754Y-2023110D01*
G01X4375404Y-2017014D01*
G01X4369308Y-2013966D01*
G01X4356862Y-2013966D01*
G01X4350766Y-2017014D01*
G01X4344416Y-2023110D01*
G01X4341368Y-2029460D01*
G01X4338320Y-2038604D01*
G01X4338320Y-2054098D01*
G01X4341368Y-2063496D01*
G01X4344416Y-2069592D01*
G01X4350766Y-2075942D01*
G01X4356862Y-2078990D01*
G01X4369308Y-2078990D01*
G01X4375404Y-2075942D01*
G01X4381754Y-2069592D01*
G01X4384802Y-2063496D01*
G01X4421124Y-2013966D02*
G01X4455160Y-2013966D01*
G01X4436618Y-2038604D01*
G01X4445762Y-2038604D01*
G01X4452112Y-2041652D01*
G01X4455160Y-2044954D01*
G01X4458208Y-2054098D01*
G01X4458208Y-2060448D01*
G01X4455160Y-2069592D01*
G01X4449064Y-2075942D01*
G01X4439666Y-2078990D01*
G01X4430268Y-2078990D01*
G01X4421124Y-2075942D01*
G01X4418076Y-2072640D01*
G01X4415028Y-2066544D01*
G01X4384802Y-2219960D02*
G01X4381754Y-2213610D01*
G01X4375404Y-2207514D01*
G01X4369308Y-2204466D01*
G01X4356862Y-2204466D01*
G01X4350766Y-2207514D01*
G01X4344416Y-2213610D01*
G01X4341368Y-2219960D01*
G01X4338320Y-2229104D01*
G01X4338320Y-2244598D01*
G01X4341368Y-2253996D01*
G01X4344416Y-2260092D01*
G01X4350766Y-2266442D01*
G01X4356862Y-2269490D01*
G01X4369308Y-2269490D01*
G01X4375404Y-2266442D01*
G01X4381754Y-2260092D01*
G01X4384802Y-2253996D01*
G01X4445762Y-2204466D02*
G01X4415028Y-2247646D01*
G01X4461256Y-2247646D01*
G01X4445762Y-2204466D02*
G01X4445762Y-2269490D01*
G01X726440Y-2225802D02*
G01X732790Y-2222754D01*
G01X738886Y-2216404D01*
G01X741934Y-2210308D01*
G01X741934Y-2197862D01*
G01X738886Y-2191766D01*
G01X732790Y-2185416D01*
G01X726440Y-2182368D01*
G01X717296Y-2179320D01*
G01X701802Y-2179320D01*
G01X692404Y-2182368D01*
G01X686308Y-2185416D01*
G01X679958Y-2191766D01*
G01X676910Y-2197862D01*
G01X676910Y-2210308D01*
G01X679958Y-2216404D01*
G01X686308Y-2222754D01*
G01X692404Y-2225802D01*
G01X741934Y-2299208D02*
G01X676910Y-2268220D01*
G01X741934Y-2256028D02*
G01X741934Y-2299208D01*
G01X516885Y-2188771D02*
G01X451861Y-2188771D01*
G01X516885Y-2188771D02*
G01X516885Y-2216711D01*
G01X513837Y-2225855D01*
G01X510789Y-2228903D01*
G01X504439Y-2232205D01*
G01X498343Y-2232205D01*
G01X492247Y-2228903D01*
G01X489199Y-2225855D01*
G01X485897Y-2216711D01*
G01X485897Y-2188771D01*
G01X485897Y-2210361D02*
G01X451861Y-2232205D01*
G01X504439Y-2262431D02*
G01X507741Y-2268527D01*
G01X516885Y-2277671D01*
G01X451861Y-2277671D01*
G01X4096766Y-2532380D02*
G01X4161790Y-2532380D01*
G01X4096766Y-2532380D02*
G01X4096766Y-2504440D01*
G01X4099814Y-2495296D01*
G01X4102862Y-2492248D01*
G01X4109212Y-2488946D01*
G01X4115308Y-2488946D01*
G01X4121404Y-2492248D01*
G01X4124452Y-2495296D01*
G01X4127754Y-2504440D01*
G01X4127754Y-2532380D01*
G01X4127754Y-2510790D02*
G01X4161790Y-2488946D01*
G01X4112260Y-2455672D02*
G01X4109212Y-2455672D01*
G01X4102862Y-2452624D01*
G01X4099814Y-2449576D01*
G01X4096766Y-2443480D01*
G01X4096766Y-2431034D01*
G01X4099814Y-2424684D01*
G01X4102862Y-2421636D01*
G01X4109212Y-2418588D01*
G01X4115308Y-2418588D01*
G01X4121404Y-2421636D01*
G01X4130802Y-2427986D01*
G01X4161790Y-2458720D01*
G01X4161790Y-2415540D01*
G01X3741166Y-2532380D02*
G01X3806190Y-2532380D01*
G01X3741166Y-2532380D02*
G01X3741166Y-2504440D01*
G01X3744214Y-2495296D01*
G01X3747262Y-2492248D01*
G01X3753612Y-2488946D01*
G01X3759708Y-2488946D01*
G01X3765804Y-2492248D01*
G01X3768852Y-2495296D01*
G01X3772154Y-2504440D01*
G01X3772154Y-2532380D01*
G01X3772154Y-2510790D02*
G01X3806190Y-2488946D01*
G01X3741166Y-2452624D02*
G01X3741166Y-2418588D01*
G01X3765804Y-2437130D01*
G01X3765804Y-2427986D01*
G01X3768852Y-2421636D01*
G01X3772154Y-2418588D01*
G01X3781298Y-2415540D01*
G01X3787648Y-2415540D01*
G01X3796792Y-2418588D01*
G01X3803142Y-2424684D01*
G01X3806190Y-2434082D01*
G01X3806190Y-2443480D01*
G01X3803142Y-2452624D01*
G01X3799840Y-2455672D01*
G01X3793744Y-2458720D01*
G54D11*
G01X4834636Y-2974594D02*
G01X4834636Y-3047492D01*
G01X4798060Y-3011170D02*
G01X4870958Y-3011170D01*
G01X4918710Y-2962402D02*
G01X4963414Y-2962402D01*
G01X4939030Y-2994914D01*
G01X4951222Y-2994914D01*
G01X4959350Y-2998978D01*
G01X4963414Y-3003042D01*
G01X4967478Y-3015234D01*
G01X4967478Y-3023362D01*
G01X4963414Y-3035300D01*
G01X4955286Y-3043428D01*
G01X4943094Y-3047492D01*
G01X4930902Y-3047492D01*
G01X4918710Y-3043428D01*
G01X4914646Y-3039364D01*
G01X4910836Y-3031490D01*
G01X5011166Y-3027426D02*
G01X5007356Y-3031490D01*
G01X5011166Y-3035300D01*
G01X5015230Y-3031490D01*
G01X5011166Y-3027426D01*
G01X5062982Y-2962402D02*
G01X5107686Y-2962402D01*
G01X5083302Y-2994914D01*
G01X5095494Y-2994914D01*
G01X5103622Y-2998978D01*
G01X5107686Y-3003042D01*
G01X5111750Y-3015234D01*
G01X5111750Y-3023362D01*
G01X5107686Y-3035300D01*
G01X5099558Y-3043428D01*
G01X5087366Y-3047492D01*
G01X5075174Y-3047492D01*
G01X5062982Y-3043428D01*
G01X5058918Y-3039364D01*
G01X5055108Y-3031490D01*
G01X5151628Y-2962402D02*
G01X5183886Y-3047492D01*
G01X5216398Y-2962402D02*
G01X5183886Y-3047492D01*
G01X4896866Y-2309622D02*
G01X4892802Y-2301494D01*
G01X4884674Y-2293366D01*
G01X4876800Y-2289302D01*
G01X4860544Y-2289302D01*
G01X4852416Y-2293366D01*
G01X4844288Y-2301494D01*
G01X4840224Y-2309622D01*
G01X4836160Y-2321814D01*
G01X4836160Y-2342134D01*
G01X4840224Y-2354326D01*
G01X4844288Y-2362200D01*
G01X4852416Y-2370328D01*
G01X4860544Y-2374392D01*
G01X4876800Y-2374392D01*
G01X4884674Y-2370328D01*
G01X4892802Y-2362200D01*
G01X4896866Y-2354326D01*
G01X4896866Y-2342134D01*
G01X4876800Y-2342134D02*
G01X4896866Y-2342134D01*
G01X4936744Y-2289302D02*
G01X4936744Y-2374392D01*
G01X4936744Y-2289302D02*
G01X4993386Y-2374392D01*
G01X4993386Y-2289302D02*
G01X4993386Y-2374392D01*
G01X5033264Y-2289302D02*
G01X5033264Y-2374392D01*
G01X5033264Y-2289302D02*
G01X5061458Y-2289302D01*
G01X5073650Y-2293366D01*
G01X5081778Y-2301494D01*
G01X5085842Y-2309622D01*
G01X5089906Y-2321814D01*
G01X5089906Y-2342134D01*
G01X5085842Y-2354326D01*
G01X5081778Y-2362200D01*
G01X5073650Y-2370328D01*
G01X5061458Y-2374392D01*
G01X5033264Y-2374392D01*
G01X3067812Y-2457704D02*
G01X3061462Y-2460752D01*
G01X3055366Y-2467102D01*
G01X3052318Y-2473198D01*
G01X3052318Y-2485644D01*
G01X3055366Y-2491994D01*
G01X3061462Y-2498344D01*
G01X3067812Y-2501392D01*
G01X3077210Y-2504440D01*
G01X3092704Y-2504440D01*
G01X3102102Y-2501392D01*
G01X3108198Y-2498344D01*
G01X3114548Y-2491994D01*
G01X3117596Y-2485644D01*
G01X3117596Y-2473198D01*
G01X3114548Y-2467102D01*
G01X3108198Y-2460752D01*
G01X3102102Y-2457704D01*
G01X3092704Y-2457704D01*
G01X3092704Y-2473198D02*
G01X3092704Y-2457704D01*
G01X3052318Y-2422398D02*
G01X3117596Y-2422398D01*
G01X3052318Y-2422398D02*
G01X3117596Y-2378710D01*
G01X3052318Y-2378710D02*
G01X3117596Y-2378710D01*
G01X3052318Y-2343404D02*
G01X3117596Y-2343404D01*
G01X3052318Y-2343404D02*
G01X3052318Y-2321560D01*
G01X3055366Y-2312416D01*
G01X3061462Y-2306066D01*
G01X3067812Y-2303018D01*
G01X3077210Y-2299716D01*
G01X3092704Y-2299716D01*
G01X3102102Y-2303018D01*
G01X3108198Y-2306066D01*
G01X3114548Y-2312416D01*
G01X3117596Y-2321560D01*
G01X3117596Y-2343404D01*
G01X2925318Y-2482596D02*
G01X2990596Y-2482596D01*
G01X2925318Y-2504440D02*
G01X2925318Y-2460752D01*
G01X2925318Y-2425446D02*
G01X2990596Y-2381758D01*
G01X2925318Y-2381758D02*
G01X2990596Y-2425446D01*
G01X2798318Y-2504440D02*
G01X2863596Y-2504440D01*
G01X2863596Y-2504440D02*
G01X2863596Y-2467102D01*
G01X2798318Y-2431796D02*
G01X2863596Y-2431796D01*
G01X2798318Y-2396490D02*
G01X2863596Y-2396490D01*
G01X2798318Y-2396490D02*
G01X2798318Y-2374646D01*
G01X2801366Y-2365502D01*
G01X2807462Y-2359152D01*
G01X2813812Y-2356104D01*
G01X2823210Y-2352802D01*
G01X2838704Y-2352802D01*
G01X2848102Y-2356104D01*
G01X2854198Y-2359152D01*
G01X2860548Y-2365502D01*
G01X2863596Y-2374646D01*
G01X2863596Y-2396490D01*
G01X2798318Y-2292604D02*
G01X2863596Y-2317496D01*
G01X2798318Y-2292604D02*
G01X2863596Y-2267712D01*
G01X2841752Y-2308098D02*
G01X2841752Y-2277110D01*
G01X2798318Y-2232406D02*
G01X2863596Y-2232406D01*
G01X2798318Y-2232406D02*
G01X2798318Y-2204466D01*
G01X2801366Y-2195068D01*
G01X2804414Y-2192020D01*
G01X2810764Y-2188718D01*
G01X2816860Y-2188718D01*
G01X2823210Y-2192020D01*
G01X2826258Y-2195068D01*
G01X2829306Y-2204466D01*
G01X2829306Y-2232406D01*
G01X2829306Y-2210562D02*
G01X2863596Y-2188718D01*
G01X1759712Y-2457704D02*
G01X1753362Y-2460752D01*
G01X1747266Y-2467102D01*
G01X1744218Y-2473198D01*
G01X1744218Y-2485644D01*
G01X1747266Y-2491994D01*
G01X1753362Y-2498344D01*
G01X1759712Y-2501392D01*
G01X1769110Y-2504440D01*
G01X1784604Y-2504440D01*
G01X1794002Y-2501392D01*
G01X1800098Y-2498344D01*
G01X1806448Y-2491994D01*
G01X1809496Y-2485644D01*
G01X1809496Y-2473198D01*
G01X1806448Y-2467102D01*
G01X1800098Y-2460752D01*
G01X1794002Y-2457704D01*
G01X1744218Y-2397506D02*
G01X1809496Y-2422398D01*
G01X1744218Y-2397506D02*
G01X1809496Y-2372614D01*
G01X1787652Y-2413000D02*
G01X1787652Y-2382012D01*
G01X1744218Y-2337308D02*
G01X1809496Y-2337308D01*
G01X1744218Y-2337308D02*
G01X1809496Y-2312416D01*
G01X1744218Y-2287524D02*
G01X1809496Y-2312416D01*
G01X1744218Y-2287524D02*
G01X1809496Y-2287524D01*
G01X1880362Y-2460752D02*
G01X1874266Y-2467102D01*
G01X1871218Y-2476500D01*
G01X1871218Y-2488946D01*
G01X1874266Y-2498344D01*
G01X1880362Y-2504440D01*
G01X1886712Y-2504440D01*
G01X1892808Y-2501392D01*
G01X1896110Y-2498344D01*
G01X1899158Y-2491994D01*
G01X1905508Y-2473198D01*
G01X1908556Y-2467102D01*
G01X1911604Y-2464054D01*
G01X1917954Y-2460752D01*
G01X1927098Y-2460752D01*
G01X1933448Y-2467102D01*
G01X1936496Y-2476500D01*
G01X1936496Y-2488946D01*
G01X1933448Y-2498344D01*
G01X1927098Y-2504440D01*
G01X1871218Y-2403602D02*
G01X1936496Y-2403602D01*
G01X1871218Y-2425446D02*
G01X1871218Y-2381758D01*
G01X1871218Y-2346452D02*
G01X1936496Y-2346452D01*
G01X1871218Y-2346452D02*
G01X1871218Y-2318512D01*
G01X1874266Y-2309114D01*
G01X1877314Y-2306066D01*
G01X1883664Y-2302764D01*
G01X1889760Y-2302764D01*
G01X1896110Y-2306066D01*
G01X1899158Y-2309114D01*
G01X1902206Y-2318512D01*
G01X1902206Y-2346452D01*
G01X1902206Y-2324608D02*
G01X1936496Y-2302764D01*
G01X1871218Y-2267458D02*
G01X1936496Y-2267458D01*
G01X1871218Y-2267458D02*
G01X1871218Y-2239518D01*
G01X1874266Y-2230120D01*
G01X1877314Y-2227072D01*
G01X1883664Y-2223770D01*
G01X1889760Y-2223770D01*
G01X1896110Y-2227072D01*
G01X1899158Y-2230120D01*
G01X1902206Y-2239518D01*
G01X1902206Y-2267458D02*
G01X1902206Y-2239518D01*
G01X1905508Y-2230120D01*
G01X1908556Y-2227072D01*
G01X1914652Y-2223770D01*
G01X1924050Y-2223770D01*
G01X1930400Y-2227072D01*
G01X1933448Y-2230120D01*
G01X1936496Y-2239518D01*
G01X1936496Y-2267458D01*
G01X2013712Y-2457704D02*
G01X2007362Y-2460752D01*
G01X2001266Y-2467102D01*
G01X1998218Y-2473198D01*
G01X1998218Y-2485644D01*
G01X2001266Y-2491994D01*
G01X2007362Y-2498344D01*
G01X2013712Y-2501392D01*
G01X2023110Y-2504440D01*
G01X2038604Y-2504440D01*
G01X2048002Y-2501392D01*
G01X2054098Y-2498344D01*
G01X2060448Y-2491994D01*
G01X2063496Y-2485644D01*
G01X2063496Y-2473198D01*
G01X2060448Y-2467102D01*
G01X2054098Y-2460752D01*
G01X2048002Y-2457704D01*
G01X2038604Y-2457704D01*
G01X2038604Y-2473198D02*
G01X2038604Y-2457704D01*
G01X1998218Y-2422398D02*
G01X2063496Y-2422398D01*
G01X1998218Y-2422398D02*
G01X2063496Y-2378710D01*
G01X1998218Y-2378710D02*
G01X2063496Y-2378710D01*
G01X1998218Y-2343404D02*
G01X2063496Y-2343404D01*
G01X1998218Y-2343404D02*
G01X1998218Y-2321560D01*
G01X2001266Y-2312416D01*
G01X2007362Y-2306066D01*
G01X2013712Y-2303018D01*
G01X2023110Y-2299716D01*
G01X2038604Y-2299716D01*
G01X2048002Y-2303018D01*
G01X2054098Y-2306066D01*
G01X2060448Y-2312416D01*
G01X2063496Y-2321560D01*
G01X2063496Y-2343404D01*
G01X4254632Y-2973902D02*
G01X4254632Y-3058992D01*
G01X4254632Y-2973902D02*
G01X4291208Y-2973902D01*
G01X4303146Y-2977966D01*
G01X4307210Y-2982030D01*
G01X4311274Y-2990158D01*
G01X4311274Y-3002350D01*
G01X4307210Y-3010478D01*
G01X4303146Y-3014542D01*
G01X4291208Y-3018606D01*
G01X4254632Y-3018606D01*
G01X4351152Y-2973902D02*
G01X4371218Y-3058992D01*
G01X4391538Y-2973902D02*
G01X4371218Y-3058992D01*
G01X4391538Y-2973902D02*
G01X4411858Y-3058992D01*
G01X4432178Y-2973902D02*
G01X4411858Y-3058992D01*
G01X4472056Y-2973902D02*
G01X4472056Y-3058992D01*
G01X4472056Y-2973902D02*
G01X4508378Y-2973902D01*
G01X4520570Y-2977966D01*
G01X4524634Y-2982030D01*
G01X4528698Y-2990158D01*
G01X4528698Y-2998286D01*
G01X4524634Y-3006414D01*
G01X4520570Y-3010478D01*
G01X4508378Y-3014542D01*
G01X4472056Y-3014542D01*
G01X4500250Y-3014542D02*
G01X4528698Y-3058992D01*
G01X3524416Y-2854828D02*
G01X3609506Y-2854828D01*
G01X3609506Y-2854828D02*
G01X3609506Y-2806314D01*
G01X3524416Y-2766436D02*
G01X3609506Y-2766436D01*
G01X3524416Y-2766436D02*
G01X3524416Y-2713858D01*
G01X3565056Y-2766436D02*
G01X3565056Y-2734178D01*
G01X3609506Y-2766436D02*
G01X3609506Y-2713858D01*
G01X3524416Y-2673980D02*
G01X3609506Y-2673980D01*
G01X3524416Y-2673980D02*
G01X3524416Y-2645786D01*
G01X3528480Y-2633594D01*
G01X3536608Y-2625466D01*
G01X3544736Y-2621402D01*
G01X3556928Y-2617338D01*
G01X3577248Y-2617338D01*
G01X3589440Y-2621402D01*
G01X3597314Y-2625466D01*
G01X3605442Y-2633594D01*
G01X3609506Y-2645786D01*
G01X3609506Y-2673980D01*
G54D12*
G01X4698238Y-1331976D02*
G01X4690872Y-1324610D01*
G01X4679696Y-1320800D01*
G01X4664964Y-1320800D01*
G01X4653788Y-1324610D01*
G01X4646422Y-1331976D01*
G01X4646422Y-1339342D01*
G01X4650232Y-1346708D01*
G01X4653788Y-1350264D01*
G01X4661154Y-1354074D01*
G01X4683252Y-1361440D01*
G01X4690872Y-1364996D01*
G01X4694428Y-1368806D01*
G01X4698238Y-1376172D01*
G01X4698238Y-1387348D01*
G01X4690872Y-1394714D01*
G01X4679696Y-1398270D01*
G01X4664964Y-1398270D01*
G01X4653788Y-1394714D01*
G01X4646422Y-1387348D01*
G01X4737862Y-1320800D02*
G01X4756404Y-1398270D01*
G01X4774692Y-1320800D02*
G01X4756404Y-1398270D01*
G01X4774692Y-1320800D02*
G01X4793234Y-1398270D01*
G01X4811776Y-1320800D02*
G01X4793234Y-1398270D01*
G01X4906772Y-1339342D02*
G01X4903216Y-1331976D01*
G01X4895850Y-1324610D01*
G01X4888230Y-1320800D01*
G01X4873498Y-1320800D01*
G01X4866132Y-1324610D01*
G01X4858766Y-1331976D01*
G01X4855210Y-1339342D01*
G01X4851400Y-1350264D01*
G01X4851400Y-1368806D01*
G01X4855210Y-1379728D01*
G01X4858766Y-1387348D01*
G01X4866132Y-1394714D01*
G01X4873498Y-1398270D01*
G01X4888230Y-1398270D01*
G01X4895850Y-1394714D01*
G01X4903216Y-1387348D01*
G01X4906772Y-1379728D01*
G01X4946396Y-1320800D02*
G01X4946396Y-1398270D01*
G01X4946396Y-1398270D02*
G01X4990846Y-1398270D01*
G01X5030470Y-1320800D02*
G01X5030470Y-1398270D01*
G01X5082286Y-1320800D02*
G01X5030470Y-1372362D01*
G01X5049012Y-1354074D02*
G01X5082286Y-1398270D01*
G01X4892294Y-1593342D02*
G01X4888738Y-1585976D01*
G01X4881372Y-1578610D01*
G01X4873752Y-1574800D01*
G01X4859020Y-1574800D01*
G01X4851654Y-1578610D01*
G01X4844288Y-1585976D01*
G01X4840732Y-1593342D01*
G01X4836922Y-1604264D01*
G01X4836922Y-1622806D01*
G01X4840732Y-1633728D01*
G01X4844288Y-1641348D01*
G01X4851654Y-1648714D01*
G01X4859020Y-1652270D01*
G01X4873752Y-1652270D01*
G01X4881372Y-1648714D01*
G01X4888738Y-1641348D01*
G01X4892294Y-1633728D01*
G01X4892294Y-1622806D01*
G01X4873752Y-1622806D02*
G01X4892294Y-1622806D01*
G01X4931918Y-1574800D02*
G01X4931918Y-1652270D01*
G01X4931918Y-1574800D02*
G01X4983734Y-1652270D01*
G01X4983734Y-1574800D02*
G01X4983734Y-1652270D01*
G01X5023358Y-1574800D02*
G01X5023358Y-1652270D01*
G01X5023358Y-1574800D02*
G01X5049266Y-1574800D01*
G01X5060188Y-1578610D01*
G01X5067808Y-1585976D01*
G01X5071364Y-1593342D01*
G01X5075174Y-1604264D01*
G01X5075174Y-1622806D01*
G01X5071364Y-1633728D01*
G01X5067808Y-1641348D01*
G01X5060188Y-1648714D01*
G01X5049266Y-1652270D01*
G01X5023358Y-1652270D01*
G01X4736338Y-1839976D02*
G01X4728972Y-1832610D01*
G01X4717796Y-1828800D01*
G01X4703064Y-1828800D01*
G01X4691888Y-1832610D01*
G01X4684522Y-1839976D01*
G01X4684522Y-1847342D01*
G01X4688332Y-1854708D01*
G01X4691888Y-1858264D01*
G01X4699254Y-1862074D01*
G01X4721352Y-1869440D01*
G01X4728972Y-1872996D01*
G01X4732528Y-1876806D01*
G01X4736338Y-1884172D01*
G01X4736338Y-1895348D01*
G01X4728972Y-1902714D01*
G01X4717796Y-1906270D01*
G01X4703064Y-1906270D01*
G01X4691888Y-1902714D01*
G01X4684522Y-1895348D01*
G01X4775962Y-1828800D02*
G01X4794504Y-1906270D01*
G01X4812792Y-1828800D02*
G01X4794504Y-1906270D01*
G01X4812792Y-1828800D02*
G01X4831334Y-1906270D01*
G01X4849876Y-1828800D02*
G01X4831334Y-1906270D01*
G01X4889500Y-1828800D02*
G01X4889500Y-1906270D01*
G01X4889500Y-1828800D02*
G01X4915408Y-1828800D01*
G01X4926330Y-1832610D01*
G01X4933950Y-1839976D01*
G01X4937506Y-1847342D01*
G01X4941316Y-1858264D01*
G01X4941316Y-1876806D01*
G01X4937506Y-1887728D01*
G01X4933950Y-1895348D01*
G01X4926330Y-1902714D01*
G01X4915408Y-1906270D01*
G01X4889500Y-1906270D01*
G01X4980940Y-1828800D02*
G01X4980940Y-1906270D01*
G01X5042916Y-1828800D02*
G01X5035550Y-1832610D01*
G01X5028184Y-1839976D01*
G01X5024374Y-1847342D01*
G01X5020818Y-1858264D01*
G01X5020818Y-1876806D01*
G01X5024374Y-1887728D01*
G01X5028184Y-1895348D01*
G01X5035550Y-1902714D01*
G01X5042916Y-1906270D01*
G01X5057648Y-1906270D01*
G01X5065014Y-1902714D01*
G01X5072380Y-1895348D01*
G01X5075936Y-1887728D01*
G01X5079746Y-1876806D01*
G01X5079746Y-1858264D01*
G01X5075936Y-1847342D01*
G01X5072380Y-1839976D01*
G01X5065014Y-1832610D01*
G01X5057648Y-1828800D01*
G01X5042916Y-1828800D01*
G01X4705096Y-2081276D02*
G01X4705096Y-2147570D01*
G01X4671822Y-2114296D02*
G01X4738370Y-2114296D01*
G01X4785360Y-2070100D02*
G01X4826000Y-2070100D01*
G01X4803902Y-2099564D01*
G01X4814824Y-2099564D01*
G01X4822444Y-2103374D01*
G01X4826000Y-2106930D01*
G01X4829810Y-2118106D01*
G01X4829810Y-2125472D01*
G01X4826000Y-2136648D01*
G01X4818634Y-2144014D01*
G01X4807458Y-2147570D01*
G01X4796536Y-2147570D01*
G01X4785360Y-2144014D01*
G01X4781804Y-2140204D01*
G01X4777994Y-2132838D01*
G01X4873244Y-2129028D02*
G01X4869434Y-2132838D01*
G01X4873244Y-2136648D01*
G01X4876800Y-2132838D01*
G01X4873244Y-2129028D01*
G01X4923790Y-2070100D02*
G01X4964430Y-2070100D01*
G01X4942332Y-2099564D01*
G01X4953254Y-2099564D01*
G01X4960874Y-2103374D01*
G01X4964430Y-2106930D01*
G01X4968240Y-2118106D01*
G01X4968240Y-2125472D01*
G01X4964430Y-2136648D01*
G01X4957064Y-2144014D01*
G01X4945888Y-2147570D01*
G01X4934966Y-2147570D01*
G01X4923790Y-2144014D01*
G01X4920234Y-2140204D01*
G01X4916424Y-2132838D01*
G01X5007864Y-2070100D02*
G01X5037328Y-2147570D01*
G01X5067046Y-2070100D02*
G01X5037328Y-2147570D01*
G54D11*
G01X178618Y-2921757D02*
G01X243896Y-2921757D01*
G01X178618Y-2921757D02*
G01X178618Y-2893817D01*
G01X181666Y-2884419D01*
G01X184714Y-2881371D01*
G01X191064Y-2878069D01*
G01X197160Y-2878069D01*
G01X203510Y-2881371D01*
G01X206558Y-2884419D01*
G01X209606Y-2893817D01*
G01X209606Y-2921757D01*
G01X209606Y-2899913D02*
G01X243896Y-2878069D01*
G01X178618Y-2842763D02*
G01X243896Y-2842763D01*
G01X178618Y-2842763D02*
G01X178618Y-2802377D01*
G01X209606Y-2842763D02*
G01X209606Y-2817871D01*
G01X243896Y-2842763D02*
G01X243896Y-2802377D01*
G01X187762Y-2723383D02*
G01X181666Y-2729733D01*
G01X178618Y-2739131D01*
G01X178618Y-2751577D01*
G01X181666Y-2760975D01*
G01X187762Y-2767071D01*
G01X194112Y-2767071D01*
G01X200208Y-2764023D01*
G01X203510Y-2760975D01*
G01X206558Y-2754625D01*
G01X212908Y-2736083D01*
G01X215956Y-2729733D01*
G01X219004Y-2726685D01*
G01X225354Y-2723383D01*
G01X234498Y-2723383D01*
G01X240848Y-2729733D01*
G01X243896Y-2739131D01*
G01X243896Y-2751577D01*
G01X240848Y-2760975D01*
G01X234498Y-2767071D01*
G01X178618Y-2688077D02*
G01X243896Y-2688077D01*
G01X178618Y-2688077D02*
G01X178618Y-2647691D01*
G01X209606Y-2688077D02*
G01X209606Y-2663185D01*
G01X243896Y-2688077D02*
G01X243896Y-2647691D01*
G01X178618Y-2590541D02*
G01X243896Y-2590541D01*
G01X178618Y-2612385D02*
G01X178618Y-2568697D01*
G04 Text End*

G04 PolygonModel Start*
G54D13*
G01X4137581Y-1747357D02*
G01X4057584Y-1747357D01*
G01X4193626Y-1747403D02*
G01X4273624Y-1747403D01*
G01X4137581Y-1605389D02*
G01X4057584Y-1605389D01*
G01X4193626Y-1605437D02*
G01X4273624Y-1605437D01*
G01X4026609Y-1716375D02*
G01X4026609Y-1636370D01*
G01X4304602Y-1636423D02*
G01X4304602Y-1716425D01*
G01X4273619Y-1605437D02*
G02X4304602Y-1636423I0J-30983D01*
G01X4304602Y-1716420D02*
G02X4273619Y-1747403I-30983J0D01*
G01X4057589Y-1747357D02*
G02X4026609Y-1716375I3J30983D01*
G01X4026609Y-1636377D02*
G02X4057589Y-1605389I30983J5D01*
G01X4137581Y-1937857D02*
G01X4057584Y-1937857D01*
G01X4193626Y-1937903D02*
G01X4273624Y-1937903D01*
G01X4137581Y-1795889D02*
G01X4057584Y-1795889D01*
G01X4193626Y-1795937D02*
G01X4273624Y-1795937D01*
G01X4026609Y-1906875D02*
G01X4026609Y-1826870D01*
G01X4304602Y-1826923D02*
G01X4304602Y-1906925D01*
G01X4273619Y-1795937D02*
G02X4304602Y-1826923I0J-30983D01*
G01X4304602Y-1906920D02*
G02X4273619Y-1937903I-30983J0D01*
G01X4057589Y-1937857D02*
G02X4026609Y-1906875I3J30983D01*
G01X4026609Y-1826877D02*
G02X4057589Y-1795889I30983J5D01*
G01X4137523Y-2129430D02*
G01X4057526Y-2129430D01*
G01X4193568Y-2129476D02*
G01X4273565Y-2129476D01*
G01X4137523Y-1987462D02*
G01X4057526Y-1987462D01*
G01X4193568Y-1987510D02*
G01X4273565Y-1987510D01*
G01X4026550Y-2098447D02*
G01X4026550Y-2018442D01*
G01X4304543Y-2018496D02*
G01X4304543Y-2098498D01*
G01X4273560Y-1987510D02*
G02X4304543Y-2018496I0J-30983D01*
G01X4304543Y-2098493D02*
G02X4273560Y-2129476I-30983J0D01*
G01X4057531Y-2129430D02*
G02X4026550Y-2098447I3J30983D01*
G01X4026550Y-2018450D02*
G02X4057531Y-1987462I30983J5D01*
G01X4137581Y-2318857D02*
G01X4057584Y-2318857D01*
G01X4193626Y-2318903D02*
G01X4273624Y-2318903D01*
G01X4137581Y-2176889D02*
G01X4057584Y-2176889D01*
G01X4193626Y-2176937D02*
G01X4273624Y-2176937D01*
G01X4026609Y-2287875D02*
G01X4026609Y-2207870D01*
G01X4304602Y-2207923D02*
G01X4304602Y-2287925D01*
G01X4273619Y-2176937D02*
G02X4304602Y-2207923I0J-30983D01*
G01X4304602Y-2287920D02*
G02X4273619Y-2318903I-30983J0D01*
G01X4057589Y-2318857D02*
G02X4026609Y-2287875I3J30983D01*
G01X4026609Y-2207877D02*
G02X4057589Y-2176889I30983J5D01*
G01X627543Y-2448481D02*
G01X627543Y-2368484D01*
G01X627497Y-2504526D02*
G01X627497Y-2584524D01*
G01X769511Y-2448481D02*
G01X769511Y-2368484D01*
G01X769463Y-2504526D02*
G01X769463Y-2584524D01*
G01X658525Y-2337509D02*
G01X738530Y-2337509D01*
G01X738477Y-2615501D02*
G01X658475Y-2615501D01*
G01X769463Y-2584519D02*
G02X738477Y-2615501I-30983J0D01*
G01X658480Y-2615501D02*
G02X627497Y-2584519I0J30983D01*
G01X627543Y-2368489D02*
G02X658525Y-2337509I30983J-3D01*
G01X738523Y-2337509D02*
G02X769511Y-2368489I5J-30983D01*
G01X4899800Y-2413000D02*
G01X4899800Y-2921000D01*
G01X4345800Y-2413000D02*
G01X4899800Y-2413000D01*
G01X4345800Y-2921000D02*
G01X4899800Y-2921000D01*
G01X4345800Y-2666294D02*
G01X4622800Y-2666294D01*
G01X4622800Y-2666294D02*
G01X4622800Y-2921000D01*
G01X4345800Y-2413000D02*
G01X4345800Y-2921000D01*
G54D10*
G01X535960Y-2433879D02*
G01X535960Y-2337991D01*
G01X535960Y-2337991D02*
G01X403840Y-2337991D01*
G01X403840Y-2337991D02*
G01X403840Y-2433879D01*
G01X535960Y-2519121D02*
G01X535960Y-2615009D01*
G01X535960Y-2615009D02*
G01X403840Y-2615009D01*
G01X403840Y-2615009D02*
G01X403840Y-2519121D01*
G54D14*
G01X3496310Y-1221740D02*
G01X3496310Y-1841500D01*
G01X3496310Y-1841500D02*
G01X2830830Y-1841500D01*
G01X2830830Y-1841500D02*
G01X2830830Y-1178560D01*
G01X2830830Y-1178560D02*
G01X3496310Y-1178560D01*
G01X3496310Y-1178560D02*
G01X3496310Y-1254760D01*
G54D15*
G01X2756301Y-1172301D02*
G03X2716302Y-1172428I-20000J-127D01*
G03X2756301Y-1172555I20000J0D01*
G54D13*
G01X1617000Y-3054327D02*
G01X1617000Y-3127299D01*
G01X1617000Y-3127299D02*
G01X2192000Y-3127299D01*
G01X2192000Y-3127299D02*
G01X2192000Y-3054215D01*
G01X2088121Y-2697300D02*
G01X2193000Y-2697300D01*
G01X2193000Y-2697300D02*
G01X2193000Y-2747300D01*
G01X2193000Y-2747300D02*
G01X2279998Y-2747300D01*
G01X2279998Y-2747300D02*
G01X2290958Y-2758260D01*
G01X1963128Y-2697300D02*
G01X1971893Y-2697300D01*
G01X1838109Y-2697300D02*
G01X1846900Y-2697300D01*
G01X1526042Y-2758260D02*
G01X1528001Y-2756301D01*
G01X1528001Y-2756301D02*
G01X1617000Y-2756301D01*
G01X1617000Y-2756301D02*
G01X1617000Y-2697300D01*
G01X1617000Y-2697300D02*
G01X1721881Y-2697300D01*
G36*
G01X1669301Y-2633289D02*
G02X1714716Y-2633289I22708J0D01*
G02X1669301Y-2633289I-22708J0D01*
G37*
G01X5156200Y-1991548D02*
G01X5156200Y-1231900D01*
G01X5156200Y-1231900D02*
G01X5410200Y-1231900D01*
G01X5410200Y-1231900D02*
G01X5410200Y-2247900D01*
G01X5410200Y-2247900D02*
G01X5156200Y-2247900D01*
G01X5156200Y-2247900D02*
G01X5156200Y-1991548D01*
G01X5156200Y-1991548D02*
G01X5410200Y-1991548D01*
G01X486900Y-3058310D02*
G01X506908Y-3208299D01*
G01X706900Y-3058310D02*
G01X686900Y-3208312D01*
G01X686892Y-3208310D02*
G01X506908Y-3208310D01*
G01X356895Y-2854795D02*
G01X356895Y-2925204D01*
G01X836905Y-2854795D02*
G01X836905Y-2925204D01*
G01X686892Y-3058297D02*
G01X783791Y-3058297D01*
G01X783791Y-3058297D02*
G01X686892Y-3058297D01*
G01X686892Y-3058297D02*
G01X506908Y-3058297D01*
G01X506908Y-3058297D02*
G01X410009Y-3058297D01*
G01X701774Y-2808260D02*
G01X492026Y-2808260D01*
G01X2671100Y-3054327D02*
G01X2671100Y-3127299D01*
G01X2671100Y-3127299D02*
G01X3246100Y-3127299D01*
G01X3246100Y-3127299D02*
G01X3246100Y-3054215D01*
G01X3142221Y-2697300D02*
G01X3247100Y-2697300D01*
G01X3247100Y-2697300D02*
G01X3247100Y-2747300D01*
G01X3247100Y-2747300D02*
G01X3334098Y-2747300D01*
G01X3334098Y-2747300D02*
G01X3345058Y-2758260D01*
G01X3017228Y-2697300D02*
G01X3025993Y-2697300D01*
G01X2892209Y-2697300D02*
G01X2901000Y-2697300D01*
G01X2580142Y-2758260D02*
G01X2582101Y-2756301D01*
G01X2582101Y-2756301D02*
G01X2671100Y-2756301D01*
G01X2671100Y-2756301D02*
G01X2671100Y-2697300D01*
G01X2671100Y-2697300D02*
G01X2775981Y-2697300D01*
G36*
G01X2723401Y-2633289D02*
G02X2768816Y-2633289I22708J0D01*
G02X2723401Y-2633289I-22708J0D01*
G37*
G54D17*
G01X4073342Y-3029552D02*
G01X4072346Y-3029552D01*
G01X4072346Y-3029552D02*
G01X4039342Y-2996547D01*
G01X4073342Y-2961549D02*
G01X4073342Y-2962547D01*
G01X4073342Y-2962547D02*
G01X4039342Y-2996547D01*
G01X4073342Y-2961549D02*
G01X4073342Y-3029552D01*
G01X4075346Y-2921541D02*
G01X4190347Y-2921541D01*
G01X4075346Y-3071553D02*
G01X4190347Y-3071553D01*
G01X4190347Y-2921551D02*
G01X4190347Y-3069544D01*
G01X4037345Y-3071785D02*
G01X3932334Y-3071785D01*
G01X3902339Y-3031777D02*
G01X3902339Y-3041780D01*
G01X3902339Y-3041780D02*
G01X3932334Y-3071785D01*
G01X3902339Y-2961782D02*
G01X3902339Y-3031777D01*
G01X3902339Y-2961782D02*
G01X3902339Y-2951767D01*
G01X3902339Y-2951767D02*
G01X3932334Y-2921772D01*
G01X4037345Y-2921772D02*
G01X3932334Y-2921772D01*
G01X4073342Y-2996547D02*
G01X4039342Y-2996547D01*
G01X3713033Y-3024447D02*
G01X3712037Y-3024447D01*
G01X3712037Y-3024447D02*
G01X3679033Y-2991443D01*
G01X3713033Y-2956444D02*
G01X3713033Y-2957442D01*
G01X3713033Y-2957442D02*
G01X3679033Y-2991443D01*
G01X3713033Y-2956444D02*
G01X3713033Y-3024447D01*
G01X3715037Y-2916436D02*
G01X3830038Y-2916436D01*
G01X3715037Y-3066449D02*
G01X3830038Y-3066449D01*
G01X3830038Y-2916447D02*
G01X3830038Y-3064440D01*
G01X3677036Y-3066680D02*
G01X3572025Y-3066680D01*
G01X3542030Y-3026672D02*
G01X3542030Y-3036675D01*
G01X3542030Y-3036675D02*
G01X3572025Y-3066680D01*
G01X3542030Y-2956678D02*
G01X3542030Y-3026672D01*
G01X3542030Y-2956678D02*
G01X3542030Y-2946662D01*
G01X3542030Y-2946662D02*
G01X3572025Y-2916668D01*
G01X3677036Y-2916668D02*
G01X3572025Y-2916668D01*
G01X3713033Y-2991443D02*
G01X3679033Y-2991443D01*
G54D10*
G01X4193560Y-2675179D02*
G01X4193560Y-2579291D01*
G01X4193560Y-2579291D02*
G01X4061440Y-2579291D01*
G01X4061440Y-2579291D02*
G01X4061440Y-2675179D01*
G01X4193560Y-2760421D02*
G01X4193560Y-2856309D01*
G01X4193560Y-2856309D02*
G01X4061440Y-2856309D01*
G01X4061440Y-2856309D02*
G01X4061440Y-2760421D01*
G01X3837960Y-2675179D02*
G01X3837960Y-2579291D01*
G01X3837960Y-2579291D02*
G01X3705840Y-2579291D01*
G01X3705840Y-2579291D02*
G01X3705840Y-2675179D01*
G01X3837960Y-2760421D02*
G01X3837960Y-2856309D01*
G01X3837960Y-2856309D02*
G01X3705840Y-2856309D01*
G01X3705840Y-2856309D02*
G01X3705840Y-2760421D01*

G04 Circle Start*
G54D13*
G01X2862250Y-1249299D02*
G03X2896337Y-1249299I17043J0D01*
G03X2862250Y-1249299I-17043J0D01*
G04 Circle End*

M02*

