G04 Layer: TopLayer*
G04 EasyEDA Pro v3.2.149.88089769, 2026-07-05 20:04:29*
G04 Gerber Generator version 0.3*
G04 Scale: 100 percent, Rotated: No, Reflected: No*
G04 Dimensions in millimeters*
G04 Leading zeros omitted, absolute positions, 4 integers and 5 decimals*
G04 Generated by one-click*
G04 Object Configs: Pad,Via,Track,Text,Image,Dimension,BoardOutline,BoardCutout,CopperFilled,SolidRegion,FPCStiffener,Line,PlaneZone,ComponentProperty,ComponentSilkscreen,TearDrop*
G04 Layer Configs: 1,2,3,4,5,6,7,8,9,10,11,13,14,56*
G04 Copper Areas: 44*
%FSLAX45Y45*%
%MOMM*%
%ADD10C,0.2032*%
%ADD11C,0.254*%
%ADD12R,0.8X0.9*%
%ADD13R,0.9X0.8*%
%ADD14R,1.7X1.7*%
%ADD15C,1.7*%
%ADD16R,0.86401X0.80648*%
%ADD17O,1.5X0.27*%
%ADD18O,0.27X1.5*%
%ADD19R,1.8091X2.49999*%
%ADD20R,1.8X2.49999*%
%ADD21R,0.7X1.7*%
%ADD22R,0.59995X1.1999*%
%ADD23R,0.8X0.8*%
%ADD24C,0.61*%
G75*


G04 Copper Start*
G36*
G01X5300000Y-3076886D02*
G01X901670Y-3076886D01*
G01X902716Y-3068295D01*
G01X902716Y-3031288D01*
G01X1399189Y-3031288D01*
G01X1400942Y-3042355D01*
G01X1406029Y-3052339D01*
G01X1413953Y-3060262D01*
G01X1423936Y-3065349D01*
G01X1435003Y-3067102D01*
G01X1615003Y-3067102D01*
G01X1626070Y-3065349D01*
G01X1636054Y-3060262D01*
G01X1643977Y-3052339D01*
G01X1649064Y-3042355D01*
G01X1650817Y-3031288D01*
G01X2159183Y-3031288D01*
G01X2160936Y-3042355D01*
G01X2166023Y-3052339D01*
G01X2173946Y-3060262D01*
G01X2183930Y-3065349D01*
G01X2194997Y-3067102D01*
G01X2374997Y-3067102D01*
G01X2386064Y-3065349D01*
G01X2396047Y-3060262D01*
G01X2403971Y-3052339D01*
G01X2409058Y-3042355D01*
G01X2410811Y-3031288D01*
G01X2453289Y-3031288D01*
G01X2455042Y-3042355D01*
G01X2460129Y-3052339D01*
G01X2468053Y-3060262D01*
G01X2478036Y-3065349D01*
G01X2489103Y-3067102D01*
G01X2669103Y-3067102D01*
G01X2680170Y-3065349D01*
G01X2690154Y-3060262D01*
G01X2698077Y-3052339D01*
G01X2703164Y-3042355D01*
G01X2704917Y-3031288D01*
G01X3213283Y-3031288D01*
G01X3215036Y-3042355D01*
G01X3220123Y-3052339D01*
G01X3228046Y-3060262D01*
G01X3238030Y-3065349D01*
G01X3249097Y-3067102D01*
G01X3429097Y-3067102D01*
G01X3440164Y-3065349D01*
G01X3450147Y-3060262D01*
G01X3458071Y-3052339D01*
G01X3463158Y-3042355D01*
G01X3464911Y-3031288D01*
G01X3464911Y-2781289D01*
G01X3463158Y-2770221D01*
G01X3458071Y-2760238D01*
G01X3450147Y-2752314D01*
G01X3440164Y-2747227D01*
G01X3429097Y-2745475D01*
G01X3249097Y-2745475D01*
G01X3238030Y-2747227D01*
G01X3228046Y-2752314D01*
G01X3220123Y-2760238D01*
G01X3215036Y-2770221D01*
G01X3213283Y-2781289D01*
G01X3213283Y-3031288D01*
G01X3213283Y-3031288D01*
G01X2704917Y-3031288D01*
G01X2704917Y-2781289D01*
G01X2703164Y-2770221D01*
G01X2698077Y-2760238D01*
G01X2690154Y-2752314D01*
G01X2680170Y-2747227D01*
G01X2669103Y-2745475D01*
G01X2489103Y-2745475D01*
G01X2478036Y-2747227D01*
G01X2468053Y-2752314D01*
G01X2460129Y-2760238D01*
G01X2455042Y-2770221D01*
G01X2453289Y-2781289D01*
G01X2453289Y-3031288D01*
G01X2453289Y-3031288D01*
G01X2410811Y-3031288D01*
G01X2410811Y-2781289D01*
G01X2409058Y-2770221D01*
G01X2403971Y-2760238D01*
G01X2396047Y-2752314D01*
G01X2386064Y-2747227D01*
G01X2374997Y-2745475D01*
G01X2194997Y-2745475D01*
G01X2183930Y-2747227D01*
G01X2173946Y-2752314D01*
G01X2166023Y-2760238D01*
G01X2160936Y-2770221D01*
G01X2159183Y-2781289D01*
G01X2159183Y-3031288D01*
G01X2159183Y-3031288D01*
G01X1650817Y-3031288D01*
G01X1650817Y-2781289D01*
G01X1649064Y-2770221D01*
G01X1643977Y-2760238D01*
G01X1636054Y-2752314D01*
G01X1626070Y-2747227D01*
G01X1615003Y-2745475D01*
G01X1435003Y-2745475D01*
G01X1423936Y-2747227D01*
G01X1413953Y-2752314D01*
G01X1406029Y-2760238D01*
G01X1400942Y-2770221D01*
G01X1399189Y-2781289D01*
G01X1399189Y-3031288D01*
G01X1399189Y-3031288D01*
G01X902716Y-3031288D01*
G01X902716Y-2948305D01*
G01X900963Y-2937238D01*
G01X895876Y-2927254D01*
G01X887953Y-2919331D01*
G01X877969Y-2914244D01*
G01X866902Y-2912491D01*
G01X806907Y-2912491D01*
G01X795840Y-2914244D01*
G01X785856Y-2919331D01*
G01X777933Y-2927254D01*
G01X772846Y-2937238D01*
G01X771093Y-2948305D01*
G01X771093Y-3068295D01*
G01X772139Y-3076886D01*
G01X421661Y-3076886D01*
G01X422707Y-3068295D01*
G01X422707Y-2948305D01*
G01X421271Y-2938266D01*
G01X417079Y-2929032D01*
G01X410466Y-2921343D01*
G01X406733Y-2916321D01*
G01X405409Y-2910205D01*
G01X405409Y-2895401D01*
G01X411576Y-2889234D01*
G01X419816Y-2885421D01*
G01X428802Y-2884114D01*
G01X462646Y-2884114D01*
G01X449683Y-2896569D01*
G01X439795Y-2911582D01*
G01X433469Y-2928409D01*
G01X431020Y-2946218D01*
G01X432569Y-2964127D01*
G01X438038Y-2981252D01*
G01X447158Y-2996743D01*
G01X459476Y-3009836D01*
G01X474384Y-3019881D01*
G01X491144Y-3026382D01*
G01X508926Y-3029018D01*
G01X526851Y-3027657D01*
G01X544032Y-3022368D01*
G01X559618Y-3013412D01*
G01X572839Y-3001231D01*
G01X583040Y-2986429D01*
G01X589717Y-2969739D01*
G01X592539Y-2951985D01*
G01X592539Y-2951985D01*
G01X601261Y-2951985D01*
G01X604083Y-2969739D01*
G01X610760Y-2986429D01*
G01X620961Y-3001231D01*
G01X634182Y-3013412D01*
G01X649768Y-3022368D01*
G01X649768Y-3022368D01*
G01X666949Y-3027657D01*
G01X684874Y-3029018D01*
G01X702656Y-3026382D01*
G01X719416Y-3019881D01*
G01X734324Y-3009836D01*
G01X746642Y-2996743D01*
G01X755762Y-2981252D01*
G01X761231Y-2964127D01*
G01X762780Y-2946218D01*
G01X760331Y-2928409D01*
G01X754005Y-2911582D01*
G01X744117Y-2896569D01*
G01X731154Y-2884114D01*
G01X814899Y-2884114D01*
G01X825966Y-2882361D01*
G01X835950Y-2877274D01*
G01X843873Y-2869351D01*
G01X848960Y-2859367D01*
G01X850713Y-2848300D01*
G01X850713Y-2800000D01*
G01X964186Y-2800000D01*
G01X966077Y-2826444D01*
G01X971713Y-2852350D01*
G01X980978Y-2877190D01*
G01X993683Y-2900459D01*
G01X1009571Y-2921682D01*
G01X1028318Y-2940429D01*
G01X1049541Y-2956317D01*
G01X1072810Y-2969022D01*
G01X1097650Y-2978287D01*
G01X1123556Y-2983923D01*
G01X1150000Y-2985814D01*
G01X1176444Y-2983923D01*
G01X1202350Y-2978287D01*
G01X1227190Y-2969022D01*
G01X1250459Y-2956317D01*
G01X1271682Y-2940429D01*
G01X1290429Y-2921682D01*
G01X1306317Y-2900459D01*
G01X1319022Y-2877190D01*
G01X1328287Y-2852350D01*
G01X1333923Y-2826444D01*
G01X1335814Y-2800000D01*
G01X1333923Y-2773556D01*
G01X1328287Y-2747650D01*
G01X1319022Y-2722810D01*
G01X1306317Y-2699541D01*
G01X1290429Y-2678318D01*
G01X1271682Y-2659571D01*
G01X1250459Y-2643683D01*
G01X1227190Y-2630978D01*
G01X1202350Y-2621713D01*
G01X1176444Y-2616077D01*
G01X1150000Y-2614186D01*
G01X1123556Y-2616077D01*
G01X1097650Y-2621713D01*
G01X1072810Y-2630978D01*
G01X1049541Y-2643683D01*
G01X1028318Y-2659571D01*
G01X1009571Y-2678318D01*
G01X993683Y-2699541D01*
G01X980978Y-2722810D01*
G01X971713Y-2747650D01*
G01X966077Y-2773556D01*
G01X964186Y-2800000D01*
G01X964186Y-2800000D01*
G01X850713Y-2800000D01*
G01X850713Y-2768300D01*
G01X848960Y-2757233D01*
G01X843873Y-2747249D01*
G01X835950Y-2739326D01*
G01X825966Y-2734239D01*
G01X814899Y-2732486D01*
G01X724899Y-2732486D01*
G01X713832Y-2734239D01*
G01X703849Y-2739326D01*
G01X695925Y-2747249D01*
G01X690838Y-2757233D01*
G01X689085Y-2768300D01*
G01X689085Y-2848300D01*
G01X690691Y-2858902D01*
G01X695362Y-2868553D01*
G01X677412Y-2867569D01*
G01X659689Y-2870577D01*
G01X643070Y-2877428D01*
G01X628376Y-2887784D01*
G01X616335Y-2901132D01*
G01X607542Y-2916812D01*
G01X602433Y-2934047D01*
G01X601261Y-2951985D01*
G01X592539Y-2951985D01*
G01X591367Y-2934047D01*
G01X586258Y-2916812D01*
G01X577465Y-2901132D01*
G01X565424Y-2887784D01*
G01X550730Y-2877428D01*
G01X534111Y-2870577D01*
G01X516388Y-2867569D01*
G01X498438Y-2868553D01*
G01X503109Y-2858902D01*
G01X504715Y-2848300D01*
G01X504715Y-2808202D01*
G01X505710Y-2799624D01*
G01X508642Y-2791501D01*
G01X513986Y-2782551D01*
G01X517294Y-2772665D01*
G01X518414Y-2762301D01*
G01X518414Y-2630260D01*
G01X518734Y-2627528D01*
G01X528678Y-2624409D01*
G01X537303Y-2618558D01*
G01X543878Y-2610473D01*
G01X547848Y-2600836D01*
G01X551200Y-2600350D01*
G01X615400Y-2600350D01*
G01X621135Y-2601836D01*
G01X626682Y-2610239D01*
G01X634350Y-2616766D01*
G01X643531Y-2620901D01*
G01X653500Y-2622316D01*
G01X743500Y-2622316D01*
G01X755071Y-2620395D01*
G01X765401Y-2614839D01*
G01X773382Y-2606243D01*
G01X778158Y-2595529D01*
G01X781600Y-2595016D01*
G01X971398Y-2595016D01*
G01X983954Y-2593363D01*
G01X995655Y-2588517D01*
G01X1005702Y-2580807D01*
G01X1741568Y-1844941D01*
G01X1743291Y-1844442D01*
G01X1745938Y-1844039D01*
G01X1760614Y-1840996D01*
G01X1774232Y-1834735D01*
G01X1786096Y-1825576D01*
G01X1795600Y-1813987D01*
G01X1802259Y-1800559D01*
G01X1805732Y-1785979D01*
G01X1805843Y-1770991D01*
G01X1802584Y-1756361D01*
G01X1796124Y-1742837D01*
G01X1786791Y-1731109D01*
G01X1775063Y-1721776D01*
G01X1761539Y-1715316D01*
G01X1746909Y-1712057D01*
G01X1731921Y-1712168D01*
G01X1717341Y-1715641D01*
G01X1703913Y-1722300D01*
G01X1692324Y-1731804D01*
G01X1683165Y-1743668D01*
G01X1676904Y-1757286D01*
G01X1673861Y-1771962D01*
G01X1673458Y-1774609D01*
G01X1672959Y-1776332D01*
G01X951302Y-2497988D01*
G01X781600Y-2497988D01*
G01X778158Y-2497476D01*
G01X774914Y-2489304D01*
G01X769778Y-2482169D01*
G01X763057Y-2476500D01*
G01X771747Y-2468514D01*
G01X777369Y-2458138D01*
G01X779314Y-2446498D01*
G01X779314Y-2366498D01*
G01X777561Y-2355431D01*
G01X772474Y-2345447D01*
G01X764551Y-2337524D01*
G01X754567Y-2332437D01*
G01X743500Y-2330684D01*
G01X653500Y-2330684D01*
G01X642433Y-2332437D01*
G01X632449Y-2337524D01*
G01X624526Y-2345447D01*
G01X619439Y-2355431D01*
G01X617686Y-2366498D01*
G01X617686Y-2446498D01*
G01X619631Y-2458138D01*
G01X625253Y-2468514D01*
G01X633943Y-2476500D01*
G01X625973Y-2483592D01*
G01X620446Y-2492717D01*
G01X617851Y-2503065D01*
G01X615400Y-2503322D01*
G01X551200Y-2503322D01*
G01X547848Y-2502837D01*
G01X544123Y-2493617D01*
G01X538007Y-2485777D01*
G01X529971Y-2479921D01*
G01X520634Y-2476500D01*
G01X529756Y-2473193D01*
G01X537656Y-2467558D01*
G01X543753Y-2460009D01*
G01X547600Y-2451101D01*
G01X548914Y-2441487D01*
G01X548914Y-2402865D01*
G01X550221Y-2393879D01*
G01X554035Y-2385638D01*
G01X1241943Y-1697730D01*
G01X1266155Y-1690582D01*
G01X1291027Y-1686256D01*
G01X1316231Y-1684807D01*
G01X2626516Y-1684807D01*
G01X2626515Y-1687779D01*
G01X2289607Y-1687779D01*
G01X2277050Y-1689432D01*
G01X2265350Y-1694279D01*
G01X2255302Y-1701989D01*
G01X1745689Y-2211602D01*
G01X1737980Y-2221649D01*
G01X1733133Y-2233350D01*
G01X1731480Y-2245906D01*
G01X1731480Y-2533202D01*
G01X1730107Y-2538728D01*
G01X1721535Y-2544240D01*
G01X1714863Y-2551943D01*
G01X1710630Y-2561214D01*
G01X1709180Y-2571302D01*
G01X1709180Y-2741301D01*
G01X1710933Y-2752368D01*
G01X1716020Y-2762352D01*
G01X1723943Y-2770275D01*
G01X1733927Y-2775362D01*
G01X1744994Y-2777115D01*
G01X1814994Y-2777115D01*
G01X1825302Y-2775600D01*
G01X1834738Y-2771181D01*
G01X1842503Y-2764233D01*
G01X1850268Y-2771181D01*
G01X1859704Y-2775600D01*
G01X1870013Y-2777115D01*
G01X1940013Y-2777115D01*
G01X1950315Y-2775602D01*
G01X1959746Y-2771188D01*
G01X1967509Y-2764248D01*
G01X1975273Y-2771188D01*
G01X1984704Y-2775602D01*
G01X1995006Y-2777115D01*
G01X2065006Y-2777115D01*
G01X2076073Y-2775362D01*
G01X2086057Y-2770275D01*
G01X2093980Y-2762352D01*
G01X2099067Y-2752368D01*
G01X2100820Y-2741301D01*
G01X2100820Y-2571302D01*
G01X2099067Y-2560235D01*
G01X2093980Y-2550251D01*
G01X2086057Y-2542328D01*
G01X2076073Y-2537241D01*
G01X2065006Y-2535488D01*
G01X1995006Y-2535488D01*
G01X1984704Y-2537001D01*
G01X1975273Y-2541415D01*
G01X1967509Y-2548355D01*
G01X1959746Y-2541415D01*
G01X1950315Y-2537001D01*
G01X1940013Y-2535488D01*
G01X1870013Y-2535488D01*
G01X1859704Y-2537003D01*
G01X1850268Y-2541422D01*
G01X1842503Y-2548370D01*
G01X1836733Y-2542840D01*
G01X1829881Y-2538728D01*
G01X1828508Y-2533202D01*
G01X1828508Y-2266001D01*
G01X2201233Y-1893276D01*
G01X2448293Y-1893276D01*
G01X2450206Y-1908141D01*
G01X2455408Y-1922198D01*
G01X2463634Y-1934727D01*
G01X2465221Y-1936884D01*
G01X2466086Y-1938455D01*
G01X2466086Y-2336808D01*
G01X2467739Y-2349364D01*
G01X2472586Y-2361065D01*
G01X2480295Y-2371112D01*
G01X2753724Y-2644540D01*
G01X2753724Y-2644540D01*
G01X2759226Y-2651272D01*
G01X2763280Y-2658963D01*
G01X2763280Y-2741301D01*
G01X2765033Y-2752368D01*
G01X2770120Y-2762352D01*
G01X2778043Y-2770275D01*
G01X2788027Y-2775362D01*
G01X2799094Y-2777115D01*
G01X2869094Y-2777115D01*
G01X2879402Y-2775600D01*
G01X2888838Y-2771181D01*
G01X2896603Y-2764233D01*
G01X2904368Y-2771181D01*
G01X2913804Y-2775600D01*
G01X2924113Y-2777115D01*
G01X2994113Y-2777115D01*
G01X3004415Y-2775602D01*
G01X3013846Y-2771188D01*
G01X3021609Y-2764248D01*
G01X3029373Y-2771188D01*
G01X3038804Y-2775602D01*
G01X3049106Y-2777115D01*
G01X3119106Y-2777115D01*
G01X3130173Y-2775362D01*
G01X3140157Y-2770275D01*
G01X3148080Y-2762352D01*
G01X3153167Y-2752368D01*
G01X3154920Y-2741301D01*
G01X3154920Y-2571302D01*
G01X3153167Y-2560235D01*
G01X3148080Y-2550251D01*
G01X3140157Y-2542328D01*
G01X3130173Y-2537241D01*
G01X3119106Y-2535488D01*
G01X3049106Y-2535488D01*
G01X3038804Y-2537001D01*
G01X3029373Y-2541415D01*
G01X3021609Y-2548355D01*
G01X3015844Y-2542834D01*
G01X3009000Y-2538728D01*
G01X3007627Y-2533202D01*
G01X3007627Y-2394982D01*
G01X3080795Y-2321814D01*
G01X3560645Y-2321814D01*
G01X3562216Y-2322679D01*
G01X3564373Y-2324266D01*
G01X3576902Y-2332492D01*
G01X3590959Y-2337694D01*
G01X3605824Y-2339607D01*
G01X3620740Y-2338132D01*
G01X3634943Y-2333346D01*
G01X3647709Y-2325492D01*
G01X3658385Y-2314972D01*
G01X3666425Y-2302324D01*
G01X3671420Y-2288192D01*
G01X3673114Y-2273300D01*
G01X3671420Y-2258408D01*
G01X3666425Y-2244276D01*
G01X3658385Y-2231628D01*
G01X3647709Y-2221108D01*
G01X3634943Y-2213254D01*
G01X3620740Y-2208468D01*
G01X3605824Y-2206993D01*
G01X3590959Y-2208906D01*
G01X3576902Y-2214108D01*
G01X3564373Y-2222334D01*
G01X3562216Y-2223921D01*
G01X3560645Y-2224786D01*
G01X3060700Y-2224786D01*
G01X3048144Y-2226439D01*
G01X3036443Y-2231286D01*
G01X3026395Y-2238995D01*
G01X2924808Y-2340583D01*
G01X2917098Y-2350630D01*
G01X2912252Y-2362331D01*
G01X2910599Y-2374887D01*
G01X2910599Y-2533202D01*
G01X2909226Y-2538728D01*
G01X2902373Y-2542840D01*
G01X2896603Y-2548370D01*
G01X2888838Y-2541422D01*
G01X2879402Y-2537003D01*
G01X2869094Y-2535488D01*
G01X2799094Y-2535488D01*
G01X2791818Y-2536235D01*
G01X2784846Y-2538444D01*
G01X2563114Y-2316712D01*
G01X2563114Y-1938455D01*
G01X2563979Y-1936884D01*
G01X2565566Y-1934727D01*
G01X2573792Y-1922198D01*
G01X2578994Y-1908141D01*
G01X2580907Y-1893276D01*
G01X2579432Y-1878360D01*
G01X2578230Y-1874793D01*
G01X2837980Y-1874793D01*
G01X2837980Y-1997793D01*
G01X2839674Y-2010605D01*
G01X2844638Y-2022537D01*
G01X2852531Y-2032770D01*
G01X2862812Y-2040601D01*
G01X2874775Y-2045491D01*
G01X2887597Y-2047106D01*
G01X2900399Y-2045334D01*
G01X2912301Y-2040296D01*
G01X2924345Y-2045373D01*
G01X2937299Y-2047107D01*
G01X2950255Y-2045377D01*
G01X2962300Y-2040304D01*
G01X2974346Y-2045377D01*
G01X2987301Y-2047107D01*
G01X3000256Y-2045373D01*
G01X3012300Y-2040296D01*
G01X3024344Y-2045373D01*
G01X3037299Y-2047107D01*
G01X3050254Y-2045377D01*
G01X3062300Y-2040304D01*
G01X3074346Y-2045377D01*
G01X3087301Y-2047107D01*
G01X3100256Y-2045373D01*
G01X3112300Y-2040296D01*
G01X3124344Y-2045373D01*
G01X3137299Y-2047107D01*
G01X3150254Y-2045377D01*
G01X3162300Y-2040304D01*
G01X3174346Y-2045377D01*
G01X3187301Y-2047107D01*
G01X3200256Y-2045373D01*
G01X3212300Y-2040296D01*
G01X3224344Y-2045373D01*
G01X3237299Y-2047107D01*
G01X3250254Y-2045377D01*
G01X3262300Y-2040304D01*
G01X3274346Y-2045377D01*
G01X3287301Y-2047107D01*
G01X3300256Y-2045373D01*
G01X3312300Y-2040296D01*
G01X3324344Y-2045373D01*
G01X3337299Y-2047107D01*
G01X3350254Y-2045377D01*
G01X3362300Y-2040304D01*
G01X3374345Y-2045377D01*
G01X3387301Y-2047107D01*
G01X3400255Y-2045373D01*
G01X3412300Y-2040296D01*
G01X3423262Y-2045065D01*
G01X3435050Y-2047055D01*
G01X3446970Y-2046150D01*
G01X3458322Y-2042404D01*
G01X3468440Y-2036036D01*
G01X3723386Y-2290982D01*
G01X3723386Y-2564040D01*
G01X3723066Y-2566772D01*
G01X3713428Y-2569745D01*
G01X3705001Y-2575288D01*
G01X3698454Y-2582960D01*
G01X3694306Y-2592154D01*
G01X3692886Y-2602140D01*
G01X3692886Y-2682787D01*
G01X3694200Y-2692401D01*
G01X3698047Y-2701309D01*
G01X3704144Y-2708858D01*
G01X3712044Y-2714493D01*
G01X3721166Y-2717800D01*
G01X3712044Y-2721107D01*
G01X3704144Y-2726742D01*
G01X3698047Y-2734291D01*
G01X3694200Y-2743199D01*
G01X3692886Y-2752813D01*
G01X3692886Y-2833460D01*
G01X3694306Y-2843446D01*
G01X3698454Y-2852640D01*
G01X3705001Y-2860312D01*
G01X3713428Y-2865855D01*
G01X3723066Y-2868828D01*
G01X3723386Y-2871560D01*
G01X3723386Y-2913983D01*
G01X3723141Y-2916374D01*
G01X3712148Y-2919010D01*
G01X3702525Y-2924941D01*
G01X3695229Y-2933576D01*
G01X3690988Y-2944054D01*
G01X3687536Y-2934966D01*
G01X3681767Y-2927141D01*
G01X3674106Y-2921155D01*
G01X3665118Y-2917450D01*
G01X3664605Y-2914008D01*
G01X3664605Y-2815991D01*
G01X3662952Y-2803435D01*
G01X3658106Y-2791734D01*
G01X3650396Y-2781687D01*
G01X3419741Y-2551032D01*
G01X3419242Y-2549309D01*
G01X3418839Y-2546662D01*
G01X3415796Y-2531986D01*
G01X3409535Y-2518368D01*
G01X3400376Y-2506504D01*
G01X3388787Y-2497000D01*
G01X3375359Y-2490341D01*
G01X3360779Y-2486868D01*
G01X3345791Y-2486757D01*
G01X3331161Y-2490016D01*
G01X3317637Y-2496476D01*
G01X3305909Y-2505809D01*
G01X3296576Y-2517537D01*
G01X3290116Y-2531061D01*
G01X3286857Y-2545691D01*
G01X3286968Y-2560679D01*
G01X3290441Y-2575259D01*
G01X3297100Y-2588687D01*
G01X3306604Y-2600276D01*
G01X3318468Y-2609435D01*
G01X3332086Y-2615696D01*
G01X3346762Y-2618739D01*
G01X3349409Y-2619142D01*
G01X3351132Y-2619641D01*
G01X3567577Y-2836086D01*
G01X3567577Y-2914008D01*
G01X3567065Y-2917450D01*
G01X3556351Y-2922226D01*
G01X3547755Y-2930207D01*
G01X3542198Y-2940537D01*
G01X3540277Y-2952108D01*
G01X3540277Y-3032108D01*
G01X3542030Y-3043175D01*
G01X3547117Y-3053159D01*
G01X3555040Y-3061082D01*
G01X3565024Y-3066169D01*
G01X3576091Y-3067922D01*
G01X3656091Y-3067922D01*
G01X3667906Y-3065917D01*
G01X3678397Y-3060127D01*
G01X3686392Y-3051201D01*
G01X3690994Y-3040136D01*
G01X3695601Y-3051192D01*
G01X3703595Y-3060110D01*
G01X3714082Y-3065894D01*
G01X3725890Y-3067897D01*
G01X3805890Y-3067897D01*
G01X3816957Y-3066144D01*
G01X3826941Y-3061057D01*
G01X3834864Y-3053134D01*
G01X3839951Y-3043150D01*
G01X3841704Y-3032083D01*
G01X3841704Y-2952083D01*
G01X3840361Y-2942368D01*
G01X3836434Y-2933381D01*
G01X3830215Y-2925797D01*
G01X3822173Y-2920184D01*
G01X3820414Y-2913983D01*
G01X3820414Y-2871560D01*
G01X3820734Y-2868828D01*
G01X3830372Y-2865855D01*
G01X3838799Y-2860312D01*
G01X3845346Y-2852640D01*
G01X3849494Y-2843446D01*
G01X3850914Y-2833460D01*
G01X3850914Y-2752813D01*
G01X3849600Y-2743199D01*
G01X3845753Y-2734291D01*
G01X3839656Y-2726742D01*
G01X3831756Y-2721107D01*
G01X3822634Y-2717800D01*
G01X3831971Y-2714379D01*
G01X3840007Y-2708523D01*
G01X3846123Y-2700683D01*
G01X3849848Y-2691463D01*
G01X3853200Y-2690978D01*
G01X4046200Y-2690978D01*
G01X4049552Y-2691463D01*
G01X4053277Y-2700683D01*
G01X4059393Y-2708523D01*
G01X4067429Y-2714379D01*
G01X4076766Y-2717800D01*
G01X4067644Y-2721107D01*
G01X4059744Y-2726742D01*
G01X4053647Y-2734291D01*
G01X4049800Y-2743199D01*
G01X4048486Y-2752813D01*
G01X4048486Y-2833460D01*
G01X4049906Y-2843446D01*
G01X4054054Y-2852640D01*
G01X4060601Y-2860312D01*
G01X4069028Y-2865855D01*
G01X4078666Y-2868828D01*
G01X4078986Y-2871560D01*
G01X4078986Y-2919087D01*
G01X4078570Y-2922196D01*
G01X4069118Y-2925710D01*
G01X4061020Y-2931719D01*
G01X4054919Y-2939748D01*
G01X4051297Y-2949159D01*
G01X4046690Y-2938104D01*
G01X4038696Y-2929185D01*
G01X4028209Y-2923401D01*
G01X4016400Y-2921399D01*
G01X3936401Y-2921399D01*
G01X3925333Y-2923152D01*
G01X3915350Y-2928239D01*
G01X3907426Y-2936162D01*
G01X3902339Y-2946146D01*
G01X3900587Y-2957213D01*
G01X3900587Y-3037213D01*
G01X3902339Y-3048280D01*
G01X3907426Y-3058264D01*
G01X3915350Y-3066187D01*
G01X3925333Y-3071274D01*
G01X3936401Y-3073027D01*
G01X4016400Y-3073027D01*
G01X4028215Y-3071022D01*
G01X4038706Y-3065232D01*
G01X4046701Y-3056305D01*
G01X4051303Y-3045241D01*
G01X4055910Y-3056296D01*
G01X4063904Y-3065215D01*
G01X4074391Y-3070999D01*
G01X4086200Y-3073001D01*
G01X4166199Y-3073001D01*
G01X4177267Y-3071248D01*
G01X4187250Y-3066161D01*
G01X4195174Y-3058238D01*
G01X4200261Y-3048254D01*
G01X4202013Y-3037187D01*
G01X4202013Y-2957187D01*
G01X4200211Y-2945969D01*
G01X4194985Y-2935879D01*
G01X4186861Y-2927935D01*
G01X4176658Y-2922935D01*
G01X4176014Y-2919087D01*
G01X4176014Y-2871560D01*
G01X4176334Y-2868828D01*
G01X4185972Y-2865855D01*
G01X4194399Y-2860312D01*
G01X4200946Y-2852640D01*
G01X4205094Y-2843446D01*
G01X4206514Y-2833460D01*
G01X4206514Y-2752813D01*
G01X4205200Y-2743199D01*
G01X4201353Y-2734291D01*
G01X4195256Y-2726742D01*
G01X4187356Y-2721107D01*
G01X4178234Y-2717800D01*
G01X4187571Y-2714379D01*
G01X4195607Y-2708523D01*
G01X4201723Y-2700683D01*
G01X4205448Y-2691463D01*
G01X4208800Y-2690978D01*
G01X4324168Y-2690978D01*
G01X4369866Y-2736675D01*
G01X4373679Y-2744916D01*
G01X4374986Y-2753901D01*
G01X4374986Y-2879000D01*
G01X4376739Y-2890067D01*
G01X4381826Y-2900051D01*
G01X4389749Y-2907974D01*
G01X4399733Y-2913061D01*
G01X4410800Y-2914814D01*
G01X4580800Y-2914814D01*
G01X4591867Y-2913061D01*
G01X4601851Y-2907974D01*
G01X4609774Y-2900051D01*
G01X4614861Y-2890067D01*
G01X4616614Y-2879000D01*
G01X4616614Y-2842737D01*
G01X4618900Y-2842514D01*
G01X4621329Y-2842514D01*
G01X4629931Y-2849813D01*
G01X4669980Y-2884691D01*
G01X4686624Y-2896979D01*
G01X4705119Y-2906248D01*
G01X4724925Y-2912225D01*
G01X4745461Y-2914736D01*
G01X4766123Y-2913706D01*
G01X4786307Y-2909166D01*
G01X4805420Y-2901249D01*
G01X4822903Y-2890187D01*
G01X4838242Y-2876305D01*
G01X4850987Y-2860009D01*
G01X4860765Y-2841777D01*
G01X4867290Y-2822145D01*
G01X4870369Y-2801687D01*
G01X4870485Y-2800000D01*
G01X5014186Y-2800000D01*
G01X5016077Y-2826444D01*
G01X5021713Y-2852350D01*
G01X5030978Y-2877190D01*
G01X5043683Y-2900459D01*
G01X5059571Y-2921682D01*
G01X5078318Y-2940429D01*
G01X5099541Y-2956317D01*
G01X5122810Y-2969022D01*
G01X5147650Y-2978287D01*
G01X5173556Y-2983923D01*
G01X5200000Y-2985814D01*
G01X5226444Y-2983923D01*
G01X5252350Y-2978287D01*
G01X5277190Y-2969022D01*
G01X5300459Y-2956317D01*
G01X5321682Y-2940429D01*
G01X5340429Y-2921682D01*
G01X5356317Y-2900459D01*
G01X5369022Y-2877190D01*
G01X5378287Y-2852350D01*
G01X5383923Y-2826444D01*
G01X5385814Y-2800000D01*
G01X5383923Y-2773556D01*
G01X5378287Y-2747650D01*
G01X5369022Y-2722810D01*
G01X5356317Y-2699541D01*
G01X5340429Y-2678318D01*
G01X5321682Y-2659571D01*
G01X5300459Y-2643683D01*
G01X5277190Y-2630978D01*
G01X5252350Y-2621713D01*
G01X5226444Y-2616077D01*
G01X5200000Y-2614186D01*
G01X5173556Y-2616077D01*
G01X5147650Y-2621713D01*
G01X5122810Y-2630978D01*
G01X5099541Y-2643683D01*
G01X5078318Y-2659571D01*
G01X5059571Y-2678318D01*
G01X5043683Y-2699541D01*
G01X5030978Y-2722810D01*
G01X5021713Y-2747650D01*
G01X5016077Y-2773556D01*
G01X5014186Y-2800000D01*
G01X5014186Y-2800000D01*
G01X4870485Y-2800000D01*
G01X4874026Y-2748705D01*
G01X4874948Y-2737462D01*
G01X5317505Y-2294905D01*
G01X5325214Y-2284857D01*
G01X5330061Y-2273156D01*
G01X5331714Y-2260600D01*
G01X5331714Y-2244000D01*
G01X5331937Y-2241714D01*
G01X5368200Y-2241714D01*
G01X5379267Y-2239961D01*
G01X5389251Y-2234874D01*
G01X5397174Y-2226951D01*
G01X5402261Y-2216967D01*
G01X5404014Y-2205900D01*
G01X5404014Y-2035900D01*
G01X5402261Y-2024833D01*
G01X5397174Y-2014849D01*
G01X5389251Y-2006926D01*
G01X5379267Y-2001839D01*
G01X5368200Y-2000086D01*
G01X5198200Y-2000086D01*
G01X5187133Y-2001839D01*
G01X5177149Y-2006926D01*
G01X5169226Y-2014849D01*
G01X5164139Y-2024833D01*
G01X5162386Y-2035900D01*
G01X5162386Y-2205900D01*
G01X5164139Y-2216967D01*
G01X5169226Y-2226951D01*
G01X5177149Y-2234874D01*
G01X5187133Y-2239961D01*
G01X5198200Y-2241714D01*
G01X5233477Y-2241714D01*
G01X4806338Y-2668852D01*
G01X4795095Y-2669774D01*
G01X4742113Y-2673431D01*
G01X4722471Y-2676318D01*
G01X4703567Y-2682383D01*
G01X4685911Y-2691461D01*
G01X4669980Y-2703309D01*
G01X4629931Y-2738187D01*
G01X4621329Y-2745486D01*
G01X4618900Y-2745486D01*
G01X4616614Y-2745263D01*
G01X4616614Y-2709000D01*
G01X4614861Y-2697933D01*
G01X4609774Y-2687949D01*
G01X4601851Y-2680026D01*
G01X4591867Y-2674939D01*
G01X4580800Y-2673186D01*
G01X4455701Y-2673186D01*
G01X4446716Y-2671879D01*
G01X4438475Y-2668066D01*
G01X4378568Y-2608159D01*
G01X4368521Y-2600449D01*
G01X4356820Y-2595603D01*
G01X4344264Y-2593950D01*
G01X4244623Y-2593950D01*
G01X4269907Y-2568666D01*
G01X4277617Y-2558618D01*
G01X4282463Y-2546918D01*
G01X4283374Y-2540000D01*
G01X4374986Y-2540000D01*
G01X4376822Y-2560979D01*
G01X4382272Y-2581321D01*
G01X4391172Y-2600407D01*
G01X4403251Y-2617658D01*
G01X4418142Y-2632549D01*
G01X4435393Y-2644628D01*
G01X4454479Y-2653528D01*
G01X4474821Y-2658978D01*
G01X4495800Y-2660814D01*
G01X4516779Y-2658978D01*
G01X4537121Y-2653528D01*
G01X4556207Y-2644628D01*
G01X4573458Y-2632549D01*
G01X4588349Y-2617658D01*
G01X4600428Y-2600407D01*
G01X4609328Y-2581321D01*
G01X4614778Y-2560979D01*
G01X4616614Y-2540000D01*
G01X4628986Y-2540000D01*
G01X4630822Y-2560979D01*
G01X4636272Y-2581321D01*
G01X4645172Y-2600407D01*
G01X4657251Y-2617658D01*
G01X4672142Y-2632549D01*
G01X4689393Y-2644628D01*
G01X4708479Y-2653528D01*
G01X4728821Y-2658978D01*
G01X4749800Y-2660814D01*
G01X4770779Y-2658978D01*
G01X4791121Y-2653528D01*
G01X4810207Y-2644628D01*
G01X4827458Y-2632549D01*
G01X4842349Y-2617658D01*
G01X4854428Y-2600407D01*
G01X4863328Y-2581321D01*
G01X4868778Y-2560979D01*
G01X4870614Y-2540000D01*
G01X4868778Y-2519021D01*
G01X4863328Y-2498679D01*
G01X4854428Y-2479593D01*
G01X4842349Y-2462342D01*
G01X4827458Y-2447451D01*
G01X4810207Y-2435372D01*
G01X4791121Y-2426472D01*
G01X4770779Y-2421022D01*
G01X4749800Y-2419186D01*
G01X4728821Y-2421022D01*
G01X4708479Y-2426472D01*
G01X4689393Y-2435372D01*
G01X4672142Y-2447451D01*
G01X4657251Y-2462342D01*
G01X4645172Y-2479593D01*
G01X4636272Y-2498679D01*
G01X4630822Y-2519021D01*
G01X4628986Y-2540000D01*
G01X4628986Y-2540000D01*
G01X4616614Y-2540000D01*
G01X4614778Y-2519021D01*
G01X4609328Y-2498679D01*
G01X4600428Y-2479593D01*
G01X4588349Y-2462342D01*
G01X4573458Y-2447451D01*
G01X4556207Y-2435372D01*
G01X4537121Y-2426472D01*
G01X4516779Y-2421022D01*
G01X4495800Y-2419186D01*
G01X4474821Y-2421022D01*
G01X4454479Y-2426472D01*
G01X4435393Y-2435372D01*
G01X4418142Y-2447451D01*
G01X4403251Y-2462342D01*
G01X4391172Y-2479593D01*
G01X4382272Y-2498679D01*
G01X4376822Y-2519021D01*
G01X4374986Y-2540000D01*
G01X4374986Y-2540000D01*
G01X4283374Y-2540000D01*
G01X4284116Y-2534361D01*
G01X4284116Y-2331000D01*
G01X4284629Y-2327558D01*
G01X4295343Y-2322782D01*
G01X4303939Y-2314801D01*
G01X4309495Y-2304471D01*
G01X4311416Y-2292900D01*
G01X4311416Y-2202900D01*
G01X4309495Y-2191329D01*
G01X4303939Y-2180999D01*
G01X4295343Y-2173018D01*
G01X4284629Y-2168242D01*
G01X4284116Y-2164800D01*
G01X4284116Y-2141573D01*
G01X4284634Y-2138114D01*
G01X4295325Y-2133328D01*
G01X4303901Y-2125348D01*
G01X4309442Y-2115029D01*
G01X4311358Y-2103473D01*
G01X4311358Y-2013473D01*
G01X4309442Y-2001917D01*
G01X4303901Y-1991597D01*
G01X4295325Y-1983618D01*
G01X4284634Y-1978832D01*
G01X4284116Y-1975373D01*
G01X4284116Y-1950000D01*
G01X4284629Y-1946558D01*
G01X4295343Y-1941782D01*
G01X4303939Y-1933801D01*
G01X4309495Y-1923471D01*
G01X4311416Y-1911900D01*
G01X4311416Y-1821900D01*
G01X4309495Y-1810329D01*
G01X4303939Y-1799999D01*
G01X4295343Y-1792018D01*
G01X4284629Y-1787242D01*
G01X4284116Y-1783800D01*
G01X4284116Y-1759500D01*
G01X4284629Y-1756058D01*
G01X4295343Y-1751282D01*
G01X4303939Y-1743301D01*
G01X4309495Y-1732971D01*
G01X4311416Y-1721400D01*
G01X4311416Y-1631400D01*
G01X4310095Y-1621760D01*
G01X4306227Y-1612832D01*
G01X4300099Y-1605274D01*
G01X4292163Y-1599645D01*
G01X4290314Y-1593300D01*
G01X4290314Y-1557455D01*
G01X4291179Y-1555884D01*
G01X4292766Y-1553727D01*
G01X4300992Y-1541198D01*
G01X4306194Y-1527141D01*
G01X4308107Y-1512276D01*
G01X4306632Y-1497360D01*
G01X4301846Y-1483157D01*
G01X4293992Y-1470391D01*
G01X4283472Y-1459715D01*
G01X4270824Y-1451675D01*
G01X4256692Y-1446680D01*
G01X4241800Y-1444986D01*
G01X4226908Y-1446680D01*
G01X4212776Y-1451675D01*
G01X4200128Y-1459715D01*
G01X4189608Y-1470391D01*
G01X4181754Y-1483157D01*
G01X4176968Y-1497360D01*
G01X4175493Y-1512276D01*
G01X4177406Y-1527141D01*
G01X4182608Y-1541198D01*
G01X4190834Y-1553727D01*
G01X4192421Y-1555884D01*
G01X4193286Y-1557455D01*
G01X4193286Y-1593300D01*
G01X4193044Y-1595678D01*
G01X4193044Y-1595678D01*
G01X4182362Y-1598124D01*
G01X4172919Y-1603686D01*
G01X4165600Y-1611843D01*
G01X4157614Y-1603153D01*
G01X4147238Y-1597531D01*
G01X4135598Y-1595586D01*
G01X4055598Y-1595586D01*
G01X4044531Y-1597339D01*
G01X4034547Y-1602426D01*
G01X4026624Y-1610349D01*
G01X4021537Y-1620333D01*
G01X4019784Y-1631400D01*
G01X4019784Y-1721400D01*
G01X4021537Y-1732467D01*
G01X4026624Y-1742451D01*
G01X4034547Y-1750374D01*
G01X4044531Y-1755461D01*
G01X4055598Y-1757214D01*
G01X4135598Y-1757214D01*
G01X4147238Y-1755269D01*
G01X4157614Y-1749647D01*
G01X4165600Y-1740957D01*
G01X4171269Y-1747678D01*
G01X4178404Y-1752814D01*
G01X4186576Y-1756058D01*
G01X4187088Y-1759500D01*
G01X4187088Y-1783800D01*
G01X4186576Y-1787242D01*
G01X4178404Y-1790486D01*
G01X4171269Y-1795622D01*
G01X4165600Y-1802343D01*
G01X4157614Y-1793653D01*
G01X4147238Y-1788031D01*
G01X4135598Y-1786086D01*
G01X4055598Y-1786086D01*
G01X4044531Y-1787839D01*
G01X4034547Y-1792926D01*
G01X4026624Y-1800849D01*
G01X4021537Y-1810833D01*
G01X4019784Y-1821900D01*
G01X4019784Y-1911900D01*
G01X4021537Y-1922967D01*
G01X4026624Y-1932951D01*
G01X4034547Y-1940874D01*
G01X4044531Y-1945961D01*
G01X4055598Y-1947714D01*
G01X4135598Y-1947714D01*
G01X4147238Y-1945769D01*
G01X4157614Y-1940147D01*
G01X4165600Y-1931457D01*
G01X4171269Y-1938178D01*
G01X4178404Y-1943314D01*
G01X4186576Y-1946558D01*
G01X4187088Y-1950000D01*
G01X4187088Y-1975373D01*
G01X4186581Y-1978799D01*
G01X4178384Y-1982038D01*
G01X4171226Y-1987181D01*
G01X4165542Y-1993916D01*
G01X4157556Y-1985226D01*
G01X4147180Y-1979603D01*
G01X4135539Y-1977659D01*
G01X4055539Y-1977659D01*
G01X4044472Y-1979412D01*
G01X4034488Y-1984499D01*
G01X4026565Y-1992422D01*
G01X4021478Y-2002406D01*
G01X4019725Y-2013473D01*
G01X4019725Y-2103473D01*
G01X4021478Y-2114540D01*
G01X4026565Y-2124524D01*
G01X4034488Y-2132447D01*
G01X4044472Y-2137534D01*
G01X4055539Y-2139287D01*
G01X4135539Y-2139287D01*
G01X4147180Y-2137342D01*
G01X4157556Y-2131720D01*
G01X4165542Y-2123030D01*
G01X4171226Y-2129765D01*
G01X4178384Y-2134908D01*
G01X4186581Y-2138147D01*
G01X4187088Y-2141573D01*
G01X4187088Y-2164800D01*
G01X4186576Y-2168242D01*
G01X4178404Y-2171486D01*
G01X4171269Y-2176622D01*
G01X4165600Y-2183343D01*
G01X4157614Y-2174653D01*
G01X4147238Y-2169031D01*
G01X4135598Y-2167086D01*
G01X4055598Y-2167086D01*
G01X4044531Y-2168839D01*
G01X4034547Y-2173926D01*
G01X4026624Y-2181849D01*
G01X4021537Y-2191833D01*
G01X4019784Y-2202900D01*
G01X4019784Y-2292900D01*
G01X4021537Y-2303967D01*
G01X4026624Y-2313951D01*
G01X4034547Y-2321874D01*
G01X4044531Y-2326961D01*
G01X4055598Y-2328714D01*
G01X4135598Y-2328714D01*
G01X4147238Y-2326769D01*
G01X4157614Y-2321147D01*
G01X4165600Y-2312457D01*
G01X4171269Y-2319178D01*
G01X4178404Y-2324314D01*
G01X4186576Y-2327558D01*
G01X4187088Y-2331000D01*
G01X4187088Y-2514266D01*
G01X4140149Y-2561206D01*
G01X4131908Y-2565019D01*
G01X4122922Y-2566326D01*
G01X4084300Y-2566326D01*
G01X4072643Y-2568276D01*
G01X4062255Y-2573914D01*
G01X4054269Y-2582626D01*
G01X4049552Y-2593464D01*
G01X4046200Y-2593950D01*
G01X3853200Y-2593950D01*
G01X3849848Y-2593464D01*
G01X3845878Y-2583827D01*
G01X3839303Y-2575742D01*
G01X3830678Y-2569891D01*
G01X3820734Y-2566772D01*
G01X3820414Y-2564040D01*
G01X3820414Y-2270887D01*
G01X3818761Y-2258331D01*
G01X3813914Y-2246630D01*
G01X3806205Y-2236582D01*
G01X3496680Y-1927057D01*
G01X3494246Y-1924422D01*
G01X3492349Y-1922067D01*
G01X3488017Y-1915627D01*
G01X3486620Y-1912871D01*
G01X3486620Y-1874793D01*
G01X3484926Y-1861981D01*
G01X3479962Y-1850049D01*
G01X3472069Y-1839816D01*
G01X3461788Y-1831985D01*
G01X3449825Y-1827095D01*
G01X3437003Y-1825480D01*
G01X3424201Y-1827252D01*
G01X3412300Y-1832289D01*
G01X3400255Y-1827213D01*
G01X3387301Y-1825479D01*
G01X3374345Y-1827209D01*
G01X3362300Y-1832282D01*
G01X3350254Y-1827209D01*
G01X3337299Y-1825479D01*
G01X3324344Y-1827213D01*
G01X3312300Y-1832289D01*
G01X3300256Y-1827213D01*
G01X3287301Y-1825479D01*
G01X3274346Y-1827209D01*
G01X3262300Y-1832282D01*
G01X3250254Y-1827209D01*
G01X3237299Y-1825479D01*
G01X3224344Y-1827213D01*
G01X3212300Y-1832289D01*
G01X3200256Y-1827213D01*
G01X3187301Y-1825479D01*
G01X3174346Y-1827209D01*
G01X3162300Y-1832282D01*
G01X3150254Y-1827209D01*
G01X3137299Y-1825479D01*
G01X3124344Y-1827213D01*
G01X3112300Y-1832289D01*
G01X3100256Y-1827213D01*
G01X3087301Y-1825479D01*
G01X3074346Y-1827209D01*
G01X3062300Y-1832282D01*
G01X3050254Y-1827209D01*
G01X3037299Y-1825479D01*
G01X3024344Y-1827213D01*
G01X3012300Y-1832289D01*
G01X3000256Y-1827213D01*
G01X2987301Y-1825479D01*
G01X2974346Y-1827209D01*
G01X2962300Y-1832282D01*
G01X2950255Y-1827209D01*
G01X2937299Y-1825479D01*
G01X2924345Y-1827213D01*
G01X2912301Y-1832289D01*
G01X2900399Y-1827252D01*
G01X2887597Y-1825480D01*
G01X2874775Y-1827095D01*
G01X2862812Y-1831985D01*
G01X2852531Y-1839816D01*
G01X2844638Y-1850049D01*
G01X2839674Y-1861981D01*
G01X2837980Y-1874793D01*
G01X2578230Y-1874793D01*
G01X2574646Y-1864157D01*
G01X2566792Y-1851391D01*
G01X2556272Y-1840715D01*
G01X2543624Y-1832675D01*
G01X2529492Y-1827680D01*
G01X2514600Y-1825986D01*
G01X2499708Y-1827680D01*
G01X2485576Y-1832675D01*
G01X2472928Y-1840715D01*
G01X2462408Y-1851391D01*
G01X2454554Y-1864157D01*
G01X2449768Y-1878360D01*
G01X2448293Y-1893276D01*
G01X2201233Y-1893276D01*
G01X2309702Y-1784807D01*
G01X2626516Y-1784807D01*
G01X2627866Y-1797859D01*
G01X2632609Y-1810092D01*
G01X2640411Y-1820642D01*
G01X2650719Y-1828761D01*
G01X2662803Y-1833874D01*
G01X2675807Y-1835620D01*
G01X2798807Y-1835620D01*
G01X2811619Y-1833926D01*
G01X2823551Y-1828962D01*
G01X2833784Y-1821069D01*
G01X2841615Y-1810788D01*
G01X2846505Y-1798825D01*
G01X2848120Y-1786003D01*
G01X2846348Y-1773201D01*
G01X2841311Y-1761299D01*
G01X2846387Y-1749255D01*
G01X2848121Y-1736301D01*
G01X2846391Y-1723345D01*
G01X2841318Y-1711300D01*
G01X2846391Y-1699254D01*
G01X2848121Y-1686299D01*
G01X2846387Y-1673344D01*
G01X2841311Y-1661300D01*
G01X2846387Y-1649256D01*
G01X2848121Y-1636301D01*
G01X2846391Y-1623346D01*
G01X2841318Y-1611300D01*
G01X2846391Y-1599254D01*
G01X2848121Y-1586299D01*
G01X2846387Y-1573344D01*
G01X2841311Y-1561300D01*
G01X2846387Y-1549256D01*
G01X2848121Y-1536301D01*
G01X2846391Y-1523346D01*
G01X2841318Y-1511300D01*
G01X2846391Y-1499254D01*
G01X2848121Y-1486299D01*
G01X2846387Y-1473344D01*
G01X2841311Y-1461300D01*
G01X2846387Y-1449256D01*
G01X2848121Y-1436301D01*
G01X2846391Y-1423346D01*
G01X2841318Y-1411300D01*
G01X2846391Y-1399254D01*
G01X2848121Y-1386299D01*
G01X2846387Y-1373344D01*
G01X2841311Y-1361300D01*
G01X2846387Y-1349256D01*
G01X2848121Y-1336301D01*
G01X2846391Y-1323346D01*
G01X2841318Y-1311300D01*
G01X2846391Y-1299255D01*
G01X2848121Y-1286299D01*
G01X2846387Y-1273345D01*
G01X2841311Y-1261300D01*
G01X2846348Y-1249399D01*
G01X2848120Y-1236597D01*
G01X2846505Y-1223775D01*
G01X2841615Y-1211812D01*
G01X2833784Y-1201531D01*
G01X2823551Y-1193638D01*
G01X2811619Y-1188674D01*
G01X2798807Y-1186980D01*
G01X2675807Y-1186980D01*
G01X2663770Y-1188472D01*
G01X2652461Y-1192857D01*
G01X2642564Y-1199870D01*
G01X2634678Y-1209086D01*
G01X2629281Y-1219949D01*
G01X2626699Y-1231800D01*
G01X2627087Y-1243923D01*
G01X2616389Y-1252002D01*
G01X2556495Y-1311895D01*
G01X2548786Y-1321943D01*
G01X2543939Y-1333644D01*
G01X2542286Y-1346200D01*
G01X2542286Y-1376245D01*
G01X2541421Y-1377816D01*
G01X2539834Y-1379973D01*
G01X2531990Y-1391757D01*
G01X2526826Y-1404937D01*
G01X2524578Y-1418913D01*
G01X2525346Y-1433048D01*
G01X2529098Y-1446698D01*
G01X2535661Y-1459241D01*
G01X2544736Y-1470104D01*
G01X2555911Y-1478794D01*
G01X2568675Y-1484914D01*
G01X2582448Y-1488186D01*
G01X2370255Y-1488186D01*
G01X2368684Y-1487321D01*
G01X2366527Y-1485734D01*
G01X2354111Y-1477565D01*
G01X2340187Y-1472367D01*
G01X2325456Y-1470400D01*
G01X2310656Y-1471763D01*
G01X2296532Y-1476388D01*
G01X2283792Y-1484042D01*
G01X2273077Y-1494342D01*
G01X2264925Y-1506768D01*
G01X2259745Y-1520699D01*
G01X2257798Y-1535433D01*
G01X2259181Y-1550231D01*
G01X2263825Y-1564349D01*
G01X2271496Y-1577078D01*
G01X2281810Y-1587779D01*
G01X1351893Y-1587779D01*
G01X1804852Y-1134821D01*
G01X2834617Y-1134821D01*
G01X2837980Y-1135024D01*
G01X2837980Y-1147807D01*
G01X2839674Y-1160619D01*
G01X2844638Y-1172551D01*
G01X2852531Y-1182784D01*
G01X2862812Y-1190615D01*
G01X2874775Y-1195505D01*
G01X2887597Y-1197120D01*
G01X2900399Y-1195348D01*
G01X2912301Y-1190311D01*
G01X2924345Y-1195387D01*
G01X2937299Y-1197121D01*
G01X2950255Y-1195391D01*
G01X2962300Y-1190318D01*
G01X2974346Y-1195391D01*
G01X2987301Y-1197121D01*
G01X3000256Y-1195387D01*
G01X3012300Y-1190311D01*
G01X3024344Y-1195387D01*
G01X3037299Y-1197121D01*
G01X3050254Y-1195391D01*
G01X3062300Y-1190318D01*
G01X3074346Y-1195391D01*
G01X3087301Y-1197121D01*
G01X3100256Y-1195387D01*
G01X3112300Y-1190311D01*
G01X3124344Y-1195387D01*
G01X3137299Y-1197121D01*
G01X3150254Y-1195391D01*
G01X3162300Y-1190318D01*
G01X3174346Y-1195391D01*
G01X3187301Y-1197121D01*
G01X3200256Y-1195387D01*
G01X3212300Y-1190311D01*
G01X3224344Y-1195387D01*
G01X3237299Y-1197121D01*
G01X3250254Y-1195391D01*
G01X3262300Y-1190318D01*
G01X3274346Y-1195391D01*
G01X3287301Y-1197121D01*
G01X3300256Y-1195387D01*
G01X3312300Y-1190311D01*
G01X3324344Y-1195387D01*
G01X3337299Y-1197121D01*
G01X3350254Y-1195391D01*
G01X3362300Y-1190318D01*
G01X3374345Y-1195391D01*
G01X3387301Y-1197121D01*
G01X3400255Y-1195387D01*
G01X3412300Y-1190311D01*
G01X3424201Y-1195348D01*
G01X3437003Y-1197120D01*
G01X3449825Y-1195505D01*
G01X3461788Y-1190615D01*
G01X3472069Y-1182784D01*
G01X3479962Y-1172551D01*
G01X3484926Y-1160619D01*
G01X3486620Y-1147807D01*
G01X3486620Y-1135024D01*
G01X3489983Y-1134821D01*
G01X3686304Y-1134821D01*
G01X3677105Y-1146702D01*
G01X3670816Y-1160349D01*
G01X3667761Y-1175062D01*
G01X3667358Y-1177709D01*
G01X3666859Y-1179432D01*
G01X3659006Y-1187285D01*
G01X3649923Y-1186998D01*
G01X3648793Y-1186980D01*
G01X3525793Y-1186980D01*
G01X3512981Y-1188674D01*
G01X3501049Y-1193638D01*
G01X3490816Y-1201531D01*
G01X3482985Y-1211812D01*
G01X3478095Y-1223775D01*
G01X3476480Y-1236597D01*
G01X3478252Y-1249399D01*
G01X3483289Y-1261300D01*
G01X3478213Y-1273345D01*
G01X3476479Y-1286299D01*
G01X3478209Y-1299255D01*
G01X3483282Y-1311300D01*
G01X3478209Y-1323346D01*
G01X3476479Y-1336301D01*
G01X3478213Y-1349256D01*
G01X3483289Y-1361300D01*
G01X3478213Y-1373344D01*
G01X3476479Y-1386299D01*
G01X3478209Y-1399254D01*
G01X3483282Y-1411300D01*
G01X3478209Y-1423346D01*
G01X3476479Y-1436301D01*
G01X3478213Y-1449256D01*
G01X3483289Y-1461300D01*
G01X3478213Y-1473344D01*
G01X3476479Y-1486299D01*
G01X3478209Y-1499254D01*
G01X3483282Y-1511300D01*
G01X3478209Y-1523346D01*
G01X3476479Y-1536301D01*
G01X3478213Y-1549256D01*
G01X3483289Y-1561300D01*
G01X3478213Y-1573344D01*
G01X3476479Y-1586299D01*
G01X3478209Y-1599254D01*
G01X3483282Y-1611300D01*
G01X3478209Y-1623346D01*
G01X3476479Y-1636301D01*
G01X3478213Y-1649256D01*
G01X3483289Y-1661300D01*
G01X3478213Y-1673344D01*
G01X3476479Y-1686299D01*
G01X3478209Y-1699254D01*
G01X3483282Y-1711300D01*
G01X3478209Y-1723345D01*
G01X3476479Y-1736301D01*
G01X3478213Y-1749255D01*
G01X3483289Y-1761299D01*
G01X3478252Y-1773201D01*
G01X3476480Y-1786003D01*
G01X3478095Y-1798825D01*
G01X3482985Y-1810788D01*
G01X3490816Y-1821069D01*
G01X3501049Y-1828962D01*
G01X3512981Y-1833926D01*
G01X3525793Y-1835620D01*
G01X3648793Y-1835620D01*
G01X3661605Y-1833926D01*
G01X3673537Y-1828962D01*
G01X3683770Y-1821069D01*
G01X3691601Y-1810788D01*
G01X3696491Y-1798825D01*
G01X3698106Y-1786003D01*
G01X3696334Y-1773201D01*
G01X3691296Y-1761299D01*
G01X3696373Y-1749255D01*
G01X3698107Y-1736301D01*
G01X3696377Y-1723345D01*
G01X3691304Y-1711300D01*
G01X3696377Y-1699254D01*
G01X3698107Y-1686299D01*
G01X3696373Y-1673344D01*
G01X3691296Y-1661300D01*
G01X3696373Y-1649256D01*
G01X3698107Y-1636301D01*
G01X3696377Y-1623346D01*
G01X3691304Y-1611300D01*
G01X3696567Y-1598533D01*
G01X3698084Y-1584808D01*
G01X3725998Y-1584808D01*
G01X3761486Y-1620295D01*
G01X3761486Y-1655645D01*
G01X3760621Y-1657216D01*
G01X3759034Y-1659373D01*
G01X3750808Y-1671902D01*
G01X3745606Y-1685959D01*
G01X3743693Y-1700824D01*
G01X3745168Y-1715740D01*
G01X3749954Y-1729943D01*
G01X3757808Y-1742709D01*
G01X3768328Y-1753385D01*
G01X3780976Y-1761425D01*
G01X3795108Y-1766420D01*
G01X3810000Y-1768114D01*
G01X3824892Y-1766420D01*
G01X3839024Y-1761425D01*
G01X3851672Y-1753385D01*
G01X3862192Y-1742709D01*
G01X3870046Y-1729943D01*
G01X3874832Y-1715740D01*
G01X3876307Y-1700824D01*
G01X3874394Y-1685959D01*
G01X3869192Y-1671902D01*
G01X3860966Y-1659373D01*
G01X3859379Y-1657216D01*
G01X3858514Y-1655645D01*
G01X3858514Y-1600200D01*
G01X3856861Y-1587644D01*
G01X3852014Y-1575943D01*
G01X3844305Y-1565895D01*
G01X3780398Y-1501989D01*
G01X3770351Y-1494279D01*
G01X3758650Y-1489433D01*
G01X3746094Y-1487780D01*
G01X3698085Y-1487780D01*
G01X3696562Y-1474060D01*
G01X3691296Y-1461300D01*
G01X3696373Y-1449256D01*
G01X3698107Y-1436301D01*
G01X3696377Y-1423346D01*
G01X3691304Y-1411300D01*
G01X3696567Y-1398533D01*
G01X3698084Y-1384808D01*
G01X4732499Y-1384808D01*
G01X5158052Y-1810362D01*
G01X5158974Y-1821605D01*
G01X5162631Y-1874587D01*
G01X5165849Y-1895620D01*
G01X5172708Y-1915762D01*
G01X5182994Y-1934388D01*
G01X5196388Y-1950921D01*
G01X5212474Y-1964848D01*
G01X5230755Y-1975737D01*
G01X5250662Y-1983250D01*
G01X5271579Y-1987154D01*
G01X5292856Y-1987327D01*
G01X5313833Y-1983766D01*
G01X5333860Y-1976579D01*
G01X5352316Y-1965991D01*
G01X5368628Y-1952328D01*
G01X5382291Y-1936016D01*
G01X5392879Y-1917560D01*
G01X5400066Y-1897533D01*
G01X5403627Y-1876556D01*
G01X5403454Y-1855279D01*
G01X5399550Y-1834362D01*
G01X5392037Y-1814455D01*
G01X5381148Y-1796174D01*
G01X5367221Y-1780088D01*
G01X5350688Y-1766694D01*
G01X5332062Y-1756408D01*
G01X5311920Y-1749549D01*
G01X5290887Y-1746331D01*
G01X5237905Y-1742674D01*
G01X5226662Y-1741752D01*
G01X5097809Y-1612900D01*
G01X5162386Y-1612900D01*
G01X5164222Y-1633879D01*
G01X5169672Y-1654221D01*
G01X5178572Y-1673307D01*
G01X5190651Y-1690558D01*
G01X5205542Y-1705449D01*
G01X5222793Y-1717528D01*
G01X5241879Y-1726428D01*
G01X5262221Y-1731878D01*
G01X5283200Y-1733714D01*
G01X5283200Y-1733714D01*
G01X5304179Y-1731878D01*
G01X5324521Y-1726428D01*
G01X5343607Y-1717528D01*
G01X5360858Y-1705449D01*
G01X5375749Y-1690558D01*
G01X5387828Y-1673307D01*
G01X5396728Y-1654221D01*
G01X5402178Y-1633879D01*
G01X5404014Y-1612900D01*
G01X5402178Y-1591921D01*
G01X5396728Y-1571579D01*
G01X5387828Y-1552493D01*
G01X5375749Y-1535242D01*
G01X5360858Y-1520351D01*
G01X5343607Y-1508272D01*
G01X5324521Y-1499372D01*
G01X5304179Y-1493922D01*
G01X5283200Y-1492086D01*
G01X5262221Y-1493922D01*
G01X5241879Y-1499372D01*
G01X5222793Y-1508272D01*
G01X5205542Y-1520351D01*
G01X5190651Y-1535242D01*
G01X5178572Y-1552493D01*
G01X5169672Y-1571579D01*
G01X5164222Y-1591921D01*
G01X5162386Y-1612900D01*
G01X5097809Y-1612900D01*
G01X4786899Y-1301989D01*
G01X4776851Y-1294280D01*
G01X4765150Y-1289433D01*
G01X4752594Y-1287780D01*
G01X3698085Y-1287780D01*
G01X3697804Y-1280848D01*
G01X3705843Y-1276440D01*
G01X3712910Y-1270599D01*
G01X3735468Y-1248041D01*
G01X3737191Y-1247542D01*
G01X3739838Y-1247139D01*
G01X3754432Y-1244123D01*
G01X3767985Y-1237924D01*
G01X3779811Y-1228855D01*
G01X3789313Y-1217375D01*
G01X3796011Y-1204063D01*
G01X3799568Y-1189591D01*
G01X3799804Y-1174690D01*
G01X3796705Y-1160113D01*
G01X3790431Y-1146596D01*
G01X3781296Y-1134821D01*
G01X4990512Y-1134821D01*
G01X5158052Y-1302362D01*
G01X5158974Y-1313605D01*
G01X5162631Y-1366587D01*
G01X5165849Y-1387620D01*
G01X5172708Y-1407762D01*
G01X5182994Y-1426388D01*
G01X5196388Y-1442921D01*
G01X5212474Y-1456848D01*
G01X5230755Y-1467737D01*
G01X5250662Y-1475250D01*
G01X5271579Y-1479154D01*
G01X5292856Y-1479327D01*
G01X5313833Y-1475766D01*
G01X5333860Y-1468579D01*
G01X5352316Y-1457991D01*
G01X5368628Y-1444328D01*
G01X5382291Y-1428016D01*
G01X5392879Y-1409560D01*
G01X5400066Y-1389533D01*
G01X5403627Y-1368556D01*
G01X5403454Y-1347279D01*
G01X5399550Y-1326362D01*
G01X5392037Y-1306455D01*
G01X5381148Y-1288174D01*
G01X5367221Y-1272088D01*
G01X5350688Y-1258694D01*
G01X5332062Y-1248408D01*
G01X5311920Y-1241549D01*
G01X5290887Y-1238331D01*
G01X5237905Y-1234674D01*
G01X5226662Y-1233752D01*
G01X5044912Y-1052003D01*
G01X5034864Y-1044293D01*
G01X5023164Y-1039446D01*
G01X5010607Y-1037793D01*
G01X3489983Y-1037793D01*
G01X3486620Y-1037591D01*
G01X3486620Y-1024807D01*
G01X3484926Y-1011995D01*
G01X3479962Y-1000063D01*
G01X3472069Y-989830D01*
G01X3461788Y-981999D01*
G01X3449825Y-977109D01*
G01X3437003Y-975494D01*
G01X3424201Y-977266D01*
G01X3412300Y-982304D01*
G01X3400255Y-977227D01*
G01X3387301Y-975493D01*
G01X3374345Y-977223D01*
G01X3362300Y-982296D01*
G01X3350254Y-977223D01*
G01X3337299Y-975493D01*
G01X3324344Y-977227D01*
G01X3312300Y-982304D01*
G01X3300117Y-977190D01*
G01X3287013Y-975494D01*
G01X3287014Y-965200D01*
G01X3287014Y-965200D01*
G01X3667486Y-965200D01*
G01X3669413Y-981070D01*
G01X3675082Y-996018D01*
G01X3684163Y-1009174D01*
G01X3696129Y-1019775D01*
G01X3710285Y-1027205D01*
G01X3725807Y-1031031D01*
G01X3741793Y-1031031D01*
G01X3757315Y-1027205D01*
G01X3771471Y-1019775D01*
G01X3783437Y-1009174D01*
G01X3792518Y-996018D01*
G01X3798187Y-981070D01*
G01X3800114Y-965200D01*
G01X3798187Y-949330D01*
G01X3792518Y-934382D01*
G01X3783437Y-921226D01*
G01X3771471Y-910625D01*
G01X3757315Y-903195D01*
G01X3741793Y-899369D01*
G01X3725807Y-899369D01*
G01X3710285Y-903195D01*
G01X3696129Y-910625D01*
G01X3684163Y-921226D01*
G01X3675082Y-934382D01*
G01X3669413Y-949330D01*
G01X3667486Y-965200D01*
G01X3667486Y-965200D01*
G01X3287014Y-965200D01*
G01X3285361Y-952644D01*
G01X3280514Y-940943D01*
G01X3272805Y-930895D01*
G01X3158505Y-816595D01*
G01X3148457Y-808886D01*
G01X3136756Y-804039D01*
G01X3124200Y-802386D01*
G01X2628900Y-802386D01*
G01X2616344Y-804039D01*
G01X2604643Y-808886D01*
G01X2594595Y-816595D01*
G01X2512932Y-898259D01*
G01X2511209Y-898758D01*
G01X2508562Y-899161D01*
G01X2493886Y-902204D01*
G01X2480268Y-908465D01*
G01X2468404Y-917624D01*
G01X2458900Y-929213D01*
G01X2452241Y-942641D01*
G01X2448768Y-957221D01*
G01X2448657Y-972209D01*
G01X2451916Y-986839D01*
G01X2458376Y-1000363D01*
G01X2467709Y-1012091D01*
G01X2479437Y-1021424D01*
G01X2492961Y-1027884D01*
G01X2507591Y-1031143D01*
G01X2522579Y-1031032D01*
G01X2537159Y-1027559D01*
G01X2550587Y-1020900D01*
G01X2562176Y-1011396D01*
G01X2571335Y-999532D01*
G01X2577596Y-985914D01*
G01X2580639Y-971238D01*
G01X2581042Y-968591D01*
G01X2581541Y-966868D01*
G01X2648995Y-899414D01*
G01X2747548Y-899414D01*
G01X2732296Y-903229D01*
G01X2718371Y-910527D01*
G01X2706555Y-920898D01*
G01X2697513Y-933759D01*
G01X2691753Y-948387D01*
G01X2689598Y-963961D01*
G01X2691169Y-979603D01*
G01X2696379Y-994437D01*
G01X2704934Y-1007627D01*
G01X2706538Y-1009815D01*
G01X2703376Y-1024151D01*
G01X2697955Y-1037793D01*
G01X1784756Y-1037793D01*
G01X1772200Y-1039446D01*
G01X1760499Y-1044293D01*
G01X1750452Y-1052003D01*
G01X482549Y-2319906D01*
G01X474308Y-2323719D01*
G01X465322Y-2325026D01*
G01X426700Y-2325026D01*
G01X415633Y-2326779D01*
G01X405649Y-2331866D01*
G01X397726Y-2339789D01*
G01X392639Y-2349773D01*
G01X390886Y-2360840D01*
G01X390886Y-2441487D01*
G01X392200Y-2451101D01*
G01X396047Y-2460009D01*
G01X402144Y-2467558D01*
G01X410044Y-2473193D01*
G01X419166Y-2476500D01*
G01X410044Y-2479807D01*
G01X402144Y-2485442D01*
G01X396047Y-2492991D01*
G01X392200Y-2501899D01*
G01X390886Y-2511513D01*
G01X390886Y-2592160D01*
G01X392306Y-2602146D01*
G01X396454Y-2611340D01*
G01X403001Y-2619012D01*
G01X411428Y-2624555D01*
G01X421066Y-2627528D01*
G01X421386Y-2630260D01*
G01X421386Y-2732396D01*
G01X418999Y-2732486D01*
G01X378901Y-2732486D01*
G01X367834Y-2734239D01*
G01X357850Y-2739326D01*
G01X349927Y-2747249D01*
G01X344840Y-2757233D01*
G01X343087Y-2768300D01*
G01X343087Y-2808399D01*
G01X341780Y-2817384D01*
G01X337966Y-2825625D01*
G01X322591Y-2841001D01*
G01X314881Y-2851048D01*
G01X310034Y-2862749D01*
G01X308381Y-2875305D01*
G01X308381Y-2910205D01*
G01X307058Y-2916321D01*
G01X303325Y-2921343D01*
G01X296712Y-2929032D01*
G01X292520Y-2938266D01*
G01X291084Y-2948305D01*
G01X291084Y-3068295D01*
G01X292130Y-3076886D01*
G01X200000Y-3076886D01*
G01X174316Y-3074864D01*
G01X149264Y-3068850D01*
G01X125461Y-3058991D01*
G01X103494Y-3045529D01*
G01X83903Y-3028797D01*
G01X67171Y-3009206D01*
G01X53709Y-2987239D01*
G01X43850Y-2963436D01*
G01X37835Y-2938384D01*
G01X35814Y-2912700D01*
G01X35814Y-300000D01*
G01X5014186Y-300000D01*
G01X5016077Y-326444D01*
G01X5021713Y-352350D01*
G01X5030978Y-377190D01*
G01X5043683Y-400459D01*
G01X5059571Y-421682D01*
G01X5078318Y-440429D01*
G01X5099541Y-456317D01*
G01X5122810Y-469022D01*
G01X5147650Y-478287D01*
G01X5173556Y-483923D01*
G01X5200000Y-485814D01*
G01X5226444Y-483923D01*
G01X5252350Y-478287D01*
G01X5277190Y-469022D01*
G01X5300459Y-456317D01*
G01X5321682Y-440429D01*
G01X5340429Y-421682D01*
G01X5356317Y-400459D01*
G01X5369022Y-377190D01*
G01X5378287Y-352350D01*
G01X5383923Y-326444D01*
G01X5385814Y-300000D01*
G01X5383923Y-273556D01*
G01X5378287Y-247650D01*
G01X5369022Y-222810D01*
G01X5356317Y-199541D01*
G01X5340429Y-178318D01*
G01X5321682Y-159571D01*
G01X5300459Y-143683D01*
G01X5277190Y-130978D01*
G01X5252350Y-121713D01*
G01X5226444Y-116077D01*
G01X5200000Y-114186D01*
G01X5173556Y-116077D01*
G01X5147650Y-121713D01*
G01X5122810Y-130978D01*
G01X5099541Y-143683D01*
G01X5078318Y-159571D01*
G01X5059571Y-178318D01*
G01X5043683Y-199541D01*
G01X5030978Y-222810D01*
G01X5021713Y-247650D01*
G01X5016077Y-273556D01*
G01X5014186Y-300000D01*
G01X5014186Y-300000D01*
G01X35814Y-300000D01*
G01X35814Y-212700D01*
G01X37835Y-187016D01*
G01X43850Y-161964D01*
G01X53709Y-138161D01*
G01X67171Y-116194D01*
G01X83903Y-96603D01*
G01X103494Y-79871D01*
G01X125461Y-66409D01*
G01X149264Y-56550D01*
G01X174316Y-50535D01*
G01X200000Y-48514D01*
G01X5300000Y-48514D01*
G01X5325684Y-50535D01*
G01X5350736Y-56550D01*
G01X5374539Y-66409D01*
G01X5396506Y-79871D01*
G01X5416097Y-96603D01*
G01X5432829Y-116194D01*
G01X5446291Y-138161D01*
G01X5456150Y-161964D01*
G01X5462165Y-187016D01*
G01X5464186Y-212700D01*
G01X5464186Y-2912700D01*
G01X5462165Y-2938384D01*
G01X5456150Y-2963436D01*
G01X5446291Y-2987239D01*
G01X5432829Y-3009206D01*
G01X5416097Y-3028797D01*
G01X5396506Y-3045529D01*
G01X5374539Y-3058991D01*
G01X5350736Y-3068850D01*
G01X5325684Y-3074864D01*
G01X5300000Y-3076886D01*
G37*
G54D10*
G01X5300000Y-3076886D02*
G01X901670Y-3076886D01*
G03X902716Y-3068295I-34768J8591D01*
G01X902716Y-2948305D01*
G03X866902Y-2912491I-35814J0D01*
G01X806907Y-2912491D01*
G03X771093Y-2948305I0J-35814D01*
G01X771093Y-3068295D01*
G03X772139Y-3076886I35814J0D01*
G01X421661Y-3076886D01*
G03X422707Y-3068295I-34768J8591D01*
G01X422707Y-2948305D01*
G03X410466Y-2921343I-35814J0D01*
G02X405409Y-2910205I9738J11138D01*
G01X405409Y-2895401D01*
G01X411576Y-2889234D01*
G02X428802Y-2884114I17226J-26418D01*
G01X462646Y-2884114D01*
G03X544032Y-3022368I49164J-64140D01*
G03X498438Y-2868553I-32222J74114D01*
G03X504715Y-2848300I-29538J20253D01*
G01X504715Y-2808202D01*
G02X508642Y-2791501I37470J0D01*
G03X518414Y-2762301I-38742J29201D01*
G01X518414Y-2630260D01*
G02X518734Y-2627528I11811J0D01*
G03X547848Y-2600836I-5634J35368D01*
G02X551200Y-2600350I3353J-11325D01*
G01X615400Y-2600350D01*
G02X621135Y-2601836I0J-11811D01*
G03X653500Y-2622316I32365J15334D01*
G01X743500Y-2622316D01*
G03X778158Y-2595529I0J35814D01*
G02X781600Y-2595016I3442J-11298D01*
G01X971398Y-2595016D01*
G03X1005702Y-2580807I0J48514D01*
G01X1741568Y-1844941D01*
G01X1743291Y-1844442D01*
G01X1745938Y-1844039D01*
G03X1786791Y-1731109I-6038J66039D01*
G03X1673861Y-1771962I-46891J-46891D01*
G01X1673458Y-1774609D01*
G01X1672959Y-1776332D01*
G01X951302Y-2497988D01*
G01X781600Y-2497988D01*
G02X778158Y-2497476I0J11811D01*
G03X763057Y-2476500I-34658J-9027D01*
G03X779314Y-2446498I-19557J30002D01*
G01X779314Y-2366498D01*
G03X743500Y-2330684I-35814J0D01*
G01X653500Y-2330684D01*
G03X617686Y-2366498I0J-35814D01*
G01X617686Y-2446498D01*
G03X633943Y-2476500I35814J0D01*
G03X617851Y-2503065I19557J-30002D01*
G01X615400Y-2503322D01*
G01X551200Y-2503322D01*
G02X547848Y-2502837I0J11811D01*
G03X520634Y-2476500I-34747J-8676D01*
G03X548914Y-2441487I-7534J35013D01*
G01X548914Y-2402865D01*
G02X554035Y-2385638I31538J0D01*
G01X1241943Y-1697730D01*
G02X1316231Y-1684807I74288J-207069D01*
G01X2626516Y-1684807D01*
G03X2626515Y-1687779I49291J-1499D01*
G01X2289607Y-1687779D01*
G03X2255302Y-1701989I0J-48514D01*
G01X1745689Y-2211602D01*
G03X1731480Y-2245906I34305J-34305D01*
G01X1731480Y-2533202D01*
G02X1730107Y-2538728I-11811J0D01*
G03X1709180Y-2571302I14887J-32573D01*
G01X1709180Y-2741301D01*
G03X1744994Y-2777115I35814J0D01*
G01X1814994Y-2777115D01*
G03X1842503Y-2764233I0J35814D01*
G03X1870013Y-2777115I27509J22932D01*
G01X1940013Y-2777115D01*
G03X1967509Y-2764248I0J35814D01*
G03X1995006Y-2777115I27497J22947D01*
G01X2065006Y-2777115D01*
G03X2100820Y-2741301I0J35814D01*
G01X2100820Y-2571302D01*
G03X2065006Y-2535488I-35814J0D01*
G01X1995006Y-2535488D01*
G03X1967509Y-2548355I0J-35814D01*
G03X1940013Y-2535488I-27497J-22947D01*
G01X1870013Y-2535488D01*
G03X1842503Y-2548370I0J-35814D01*
G03X1829881Y-2538728I-27509J-22932D01*
G02X1828508Y-2533202I10438J5527D01*
G01X1828508Y-2266001D01*
G01X2309702Y-1784807D01*
G01X2626516Y-1784807D01*
G03X2675807Y-1835620I49291J-1499D01*
G01X2798807Y-1835620D01*
G03X2841311Y-1761299I0J49314D01*
G03X2841318Y-1711300I-42504J25006D01*
G03X2841311Y-1661300I-42511J24994D01*
G03X2841318Y-1611300I-42504J25006D01*
G03X2841311Y-1561300I-42511J24994D01*
G03X2841318Y-1511300I-42504J25006D01*
G03X2841311Y-1461300I-42511J24994D01*
G03X2841318Y-1411300I-42504J25006D01*
G03X2841311Y-1361300I-42511J24994D01*
G03X2841318Y-1311300I-42504J25006D01*
G03X2841311Y-1261300I-42511J24994D01*
G03X2798807Y-1186980I-42504J25006D01*
G01X2675807Y-1186980D01*
G03X2627087Y-1243923I0J-49314D01*
G03X2616389Y-1252002I23606J-42383D01*
G01X2556495Y-1311895D01*
G03X2542286Y-1346200I34305J-34305D01*
G01X2542286Y-1376245D01*
G01X2541421Y-1377816D01*
G01X2539834Y-1379973D01*
G03X2529098Y-1446698I50966J-42427D01*
G03X2582448Y-1488186I61702J24298D01*
G01X2370255Y-1488186D01*
G01X2368684Y-1487321D01*
G01X2366527Y-1485734D01*
G03X2273077Y-1494342I-42427J-50966D01*
G03X2281810Y-1587779I51023J-42358D01*
G01X1351893Y-1587779D01*
G01X1804852Y-1134821D01*
G01X2834617Y-1134821D01*
G01X2837980Y-1135024D01*
G01X2837980Y-1147807D01*
G03X2912301Y-1190311I49314J0D01*
G03X2962300Y-1190318I25006J42504D01*
G03X3012300Y-1190311I24994J42511D01*
G03X3062300Y-1190318I25006J42504D01*
G03X3112300Y-1190311I24994J42511D01*
G03X3162300Y-1190318I25006J42504D01*
G03X3212300Y-1190311I24994J42511D01*
G03X3262300Y-1190318I25006J42504D01*
G03X3312300Y-1190311I24994J42511D01*
G03X3362300Y-1190318I25006J42504D01*
G03X3412300Y-1190311I24994J42511D01*
G03X3486620Y-1147807I25006J42504D01*
G01X3486620Y-1135024D01*
G01X3489983Y-1134821D01*
G01X3686304Y-1134821D01*
G03X3667761Y-1175062I47496J-46279D01*
G01X3667358Y-1177709D01*
G01X3666859Y-1179432D01*
G01X3659006Y-1187285D01*
G01X3649923Y-1186998D01*
G01X3648793Y-1186980D01*
G01X3525793Y-1186980D01*
G03X3483289Y-1261300I0J-49314D01*
G03X3483282Y-1311300I42504J-25006D01*
G03X3483289Y-1361300I42511J-24994D01*
G03X3483282Y-1411300I42504J-25006D01*
G03X3483289Y-1461300I42511J-24994D01*
G03X3483282Y-1511300I42504J-25006D01*
G03X3483289Y-1561300I42511J-24994D01*
G03X3483282Y-1611300I42504J-25006D01*
G03X3483289Y-1661300I42511J-24994D01*
G03X3483282Y-1711300I42504J-25006D01*
G03X3483289Y-1761299I42511J-24994D01*
G03X3525793Y-1835620I42504J-25006D01*
G01X3648793Y-1835620D01*
G03X3691296Y-1761299I0J49314D01*
G03X3691304Y-1711300I-42504J25006D01*
G03X3691296Y-1661300I-42511J24994D01*
G03X3691304Y-1611300I-42504J25006D01*
G03X3698084Y-1584808I-42511J24994D01*
G01X3725998Y-1584808D01*
G01X3761486Y-1620295D01*
G01X3761486Y-1655645D01*
G01X3760621Y-1657216D01*
G01X3759034Y-1659373D01*
G03X3810000Y-1768114I50966J-42427D01*
G03X3860966Y-1659373I0J66314D01*
G01X3859379Y-1657216D01*
G01X3858514Y-1655645D01*
G01X3858514Y-1600200D01*
G03X3844305Y-1565895I-48514J0D01*
G01X3780398Y-1501989D01*
G03X3746094Y-1487780I-34305J-34305D01*
G01X3698085Y-1487780D01*
G03X3691296Y-1461300I-49292J1473D01*
G03X3691304Y-1411300I-42504J25006D01*
G03X3698084Y-1384808I-42511J24994D01*
G01X4732499Y-1384808D01*
G01X5158052Y-1810362D01*
G01X5158974Y-1821605D01*
G01X5162631Y-1874587D01*
G03X5368628Y-1952328I120569J7687D01*
G03X5290887Y-1746331I-85428J85428D01*
G01X5237905Y-1742674D01*
G01X5226662Y-1741752D01*
G01X4786899Y-1301989D01*
G03X4752594Y-1287780I-34305J-34305D01*
G01X3698085Y-1287780D01*
G03X3697804Y-1280848I-49292J1473D01*
G03X3712910Y-1270599I-19198J44554D01*
G01X3735468Y-1248041D01*
G01X3737191Y-1247542D01*
G01X3739838Y-1247139D01*
G03X3781296Y-1134821I-6038J66039D01*
G01X4990512Y-1134821D01*
G01X5158052Y-1302362D01*
G01X5158974Y-1313605D01*
G01X5162631Y-1366587D01*
G03X5368628Y-1444328I120569J7687D01*
G03X5290887Y-1238331I-85428J85428D01*
G01X5237905Y-1234674D01*
G01X5226662Y-1233752D01*
G01X5044912Y-1052003D01*
G03X5010607Y-1037793I-34305J-34305D01*
G01X3489983Y-1037793D01*
G01X3486620Y-1037591D01*
G01X3486620Y-1024807D01*
G03X3412300Y-982304I-49314J0D01*
G03X3362300Y-982296I-25006J-42504D01*
G03X3312300Y-982304I-24994J-42511D01*
G03X3287013Y-975494I-25006J-42504D01*
G01X3287014Y-965200D01*
G03X3272805Y-930895I-48514J0D01*
G01X3158505Y-816595D01*
G03X3124200Y-802386I-34305J-34305D01*
G01X2628900Y-802386D01*
G03X2594595Y-816595I0J-48514D01*
G01X2512932Y-898259D01*
G01X2511209Y-898758D01*
G01X2508562Y-899161D01*
G03X2467709Y-1012091I6038J-66039D01*
G03X2580639Y-971238I46891J46891D01*
G01X2581042Y-968591D01*
G01X2581541Y-966868D01*
G01X2648995Y-899414D01*
G01X2747548Y-899414D01*
G03X2704934Y-1007627I8352J-65786D01*
G01X2706538Y-1009815D01*
G02X2697955Y-1037793I-90338J12408D01*
G01X1784756Y-1037793D01*
G03X1750452Y-1052003I0J-48514D01*
G01X482549Y-2319906D01*
G02X465322Y-2325026I-17226J26418D01*
G01X426700Y-2325026D01*
G03X390886Y-2360840I0J-35814D01*
G01X390886Y-2441487D01*
G03X419166Y-2476500I35814J0D01*
G03X390886Y-2511513I7534J-35013D01*
G01X390886Y-2592160D01*
G03X421066Y-2627528I35814J0D01*
G02X421386Y-2630260I-11491J-2732D01*
G01X421386Y-2732396D01*
G01X418999Y-2732486D01*
G01X378901Y-2732486D01*
G03X343087Y-2768300I0J-35814D01*
G01X343087Y-2808399D01*
G02X337966Y-2825625I-31538J0D01*
G01X322591Y-2841001D01*
G03X308381Y-2875305I34305J-34305D01*
G01X308381Y-2910205D01*
G02X303325Y-2921343I-14795J0D01*
G03X291084Y-2948305I23573J-26962D01*
G01X291084Y-3068295D01*
G03X292130Y-3076886I35814J0D01*
G01X200000Y-3076886D01*
G02X35814Y-2912700I0J164186D01*
G01X35814Y-212700D01*
G02X200000Y-48514I164186J0D01*
G01X5300000Y-48514D01*
G02X5464186Y-212700I0J-164186D01*
G01X5464186Y-2912700D01*
G02X5300000Y-3076886I-164186J0D01*
G01X649768Y-3022368D02*
G03X731154Y-2884114I32222J74114D01*
G01X814899Y-2884114D01*
G03X850713Y-2848300I0J35814D01*
G01X850713Y-2768300D01*
G03X814899Y-2732486I-35814J0D01*
G01X724899Y-2732486D01*
G03X689085Y-2768300I0J-35814D01*
G01X689085Y-2848300D01*
G03X695362Y-2868553I35814J0D01*
G03X649768Y-3022368I-13372J-79701D01*
G01X964186Y-2800000D02*
G03X1335814Y-2800000I185814J0D01*
G03X964186Y-2800000I-185814J0D01*
G01X1399189Y-3031288D02*
G03X1435003Y-3067102I35814J0D01*
G01X1615003Y-3067102D01*
G03X1650817Y-3031288I0J35814D01*
G01X1650817Y-2781289D01*
G03X1615003Y-2745475I-35814J0D01*
G01X1435003Y-2745475D01*
G03X1399189Y-2781289I0J-35814D01*
G01X1399189Y-3031288D01*
G01X2159183Y-3031288D02*
G03X2194997Y-3067102I35814J0D01*
G01X2374997Y-3067102D01*
G03X2410811Y-3031288I0J35814D01*
G01X2410811Y-2781289D01*
G03X2374997Y-2745475I-35814J0D01*
G01X2194997Y-2745475D01*
G03X2159183Y-2781289I0J-35814D01*
G01X2159183Y-3031288D01*
G01X2753724Y-2644540D02*
G02X2763280Y-2658963I-30758J-30758D01*
G01X2763280Y-2741301D01*
G03X2799094Y-2777115I35814J0D01*
G01X2869094Y-2777115D01*
G03X2896603Y-2764233I0J35814D01*
G03X2924113Y-2777115I27509J22932D01*
G01X2994113Y-2777115D01*
G03X3021609Y-2764248I0J35814D01*
G03X3049106Y-2777115I27497J22947D01*
G01X3119106Y-2777115D01*
G03X3154920Y-2741301I0J35814D01*
G01X3154920Y-2571302D01*
G03X3119106Y-2535488I-35814J0D01*
G01X3049106Y-2535488D01*
G03X3021609Y-2548355I0J-35814D01*
G03X3009000Y-2538728I-27497J-22947D01*
G02X3007627Y-2533202I10438J5527D01*
G01X3007627Y-2394982D01*
G01X3080795Y-2321814D01*
G01X3560645Y-2321814D01*
G01X3562216Y-2322679D01*
G01X3564373Y-2324266D01*
G03X3673114Y-2273300I42427J50966D01*
G03X3564373Y-2222334I-66314J0D01*
G01X3562216Y-2223921D01*
G01X3560645Y-2224786D01*
G01X3060700Y-2224786D01*
G03X3026395Y-2238995I0J-48514D01*
G01X2924808Y-2340583D01*
G03X2910599Y-2374887I34305J-34305D01*
G01X2910599Y-2533202D01*
G02X2909226Y-2538728I-11811J0D01*
G03X2896603Y-2548370I14887J-32573D01*
G03X2869094Y-2535488I-27509J-22932D01*
G01X2799094Y-2535488D01*
G03X2784846Y-2538444I0J-35814D01*
G01X2563114Y-2316712D01*
G01X2563114Y-1938455D01*
G01X2563979Y-1936884D01*
G01X2565566Y-1934727D01*
G03X2514600Y-1825986I-50966J42427D01*
G03X2463634Y-1934727I0J-66314D01*
G01X2465221Y-1936884D01*
G01X2466086Y-1938455D01*
G01X2466086Y-2336808D01*
G03X2480295Y-2371112I48514J0D01*
G01X2753724Y-2644540D01*
G01X2453289Y-3031288D02*
G03X2489103Y-3067102I35814J0D01*
G01X2669103Y-3067102D01*
G03X2704917Y-3031288I0J35814D01*
G01X2704917Y-2781289D01*
G03X2669103Y-2745475I-35814J0D01*
G01X2489103Y-2745475D01*
G03X2453289Y-2781289I0J-35814D01*
G01X2453289Y-3031288D01*
G01X4193044Y-1595678D02*
G03X4165600Y-1611843I2558J-35723D01*
G03X4135598Y-1595586I-30002J-19557D01*
G01X4055598Y-1595586D01*
G03X4019784Y-1631400I0J-35814D01*
G01X4019784Y-1721400D01*
G03X4055598Y-1757214I35814J0D01*
G01X4135598Y-1757214D01*
G03X4165600Y-1740957I0J35814D01*
G03X4186576Y-1756058I30002J19557D01*
G02X4187088Y-1759500I-11298J-3442D01*
G01X4187088Y-1783800D01*
G02X4186576Y-1787242I-11811J0D01*
G03X4165600Y-1802343I9027J-34658D01*
G03X4135598Y-1786086I-30002J-19557D01*
G01X4055598Y-1786086D01*
G03X4019784Y-1821900I0J-35814D01*
G01X4019784Y-1911900D01*
G03X4055598Y-1947714I35814J0D01*
G01X4135598Y-1947714D01*
G03X4165600Y-1931457I0J35814D01*
G03X4186576Y-1946558I30002J19557D01*
G02X4187088Y-1950000I-11298J-3442D01*
G01X4187088Y-1975373D01*
G02X4186581Y-1978799I-11811J0D01*
G03X4165542Y-1993916I8963J-34674D01*
G03X4135539Y-1977659I-30002J-19557D01*
G01X4055539Y-1977659D01*
G03X4019725Y-2013473I0J-35814D01*
G01X4019725Y-2103473D01*
G03X4055539Y-2139287I35814J0D01*
G01X4135539Y-2139287D01*
G03X4165542Y-2123030I0J35814D01*
G03X4186581Y-2138147I30002J19557D01*
G02X4187088Y-2141573I-11303J-3426D01*
G01X4187088Y-2164800D01*
G02X4186576Y-2168242I-11811J0D01*
G03X4165600Y-2183343I9027J-34658D01*
G03X4135598Y-2167086I-30002J-19557D01*
G01X4055598Y-2167086D01*
G03X4019784Y-2202900I0J-35814D01*
G01X4019784Y-2292900D01*
G03X4055598Y-2328714I35814J0D01*
G01X4135598Y-2328714D01*
G03X4165600Y-2312457I0J35814D01*
G03X4186576Y-2327558I30002J19557D01*
G02X4187088Y-2331000I-11298J-3442D01*
G01X4187088Y-2514266D01*
G01X4140149Y-2561206D01*
G02X4122922Y-2566326I-17226J26418D01*
G01X4084300Y-2566326D01*
G03X4049552Y-2593464I0J-35814D01*
G02X4046200Y-2593950I-3353J11325D01*
G01X3853200Y-2593950D01*
G02X3849848Y-2593464I0J11811D01*
G03X3820734Y-2566772I-34747J-8676D01*
G02X3820414Y-2564040I11491J2732D01*
G01X3820414Y-2270887D01*
G03X3806205Y-2236582I-48514J0D01*
G01X3496680Y-1927057D01*
G01X3494246Y-1924422D01*
G01X3492349Y-1922067D01*
G01X3488017Y-1915627D01*
G01X3486620Y-1912871D01*
G01X3486620Y-1874793D01*
G03X3412300Y-1832289I-49314J0D01*
G03X3362300Y-1832282I-25006J-42504D01*
G03X3312300Y-1832289I-24994J-42511D01*
G03X3262300Y-1832282I-25006J-42504D01*
G03X3212300Y-1832289I-24994J-42511D01*
G03X3162300Y-1832282I-25006J-42504D01*
G03X3112300Y-1832289I-24994J-42511D01*
G03X3062300Y-1832282I-25006J-42504D01*
G03X3012300Y-1832289I-24994J-42511D01*
G03X2962300Y-1832282I-25006J-42504D01*
G03X2912301Y-1832289I-24994J-42511D01*
G03X2837980Y-1874793I-25006J-42504D01*
G01X2837980Y-1997793D01*
G03X2912301Y-2040296I49314J0D01*
G03X2962300Y-2040304I25006J42504D01*
G03X3012300Y-2040296I24994J42511D01*
G03X3062300Y-2040304I25006J42504D01*
G03X3112300Y-2040296I24994J42511D01*
G03X3162300Y-2040304I25006J42504D01*
G03X3212300Y-2040296I24994J42511D01*
G03X3262300Y-2040304I25006J42504D01*
G03X3312300Y-2040296I24994J42511D01*
G03X3362300Y-2040304I25006J42504D01*
G03X3412300Y-2040296I24994J42511D01*
G03X3468440Y-2036036I25006J42504D01*
G01X3723386Y-2290982D01*
G01X3723386Y-2564040D01*
G02X3723066Y-2566772I-11811J0D01*
G03X3692886Y-2602140I5634J-35368D01*
G01X3692886Y-2682787D01*
G03X3721166Y-2717800I35814J0D01*
G03X3692886Y-2752813I7534J-35013D01*
G01X3692886Y-2833460D01*
G03X3723066Y-2868828I35814J0D01*
G02X3723386Y-2871560I-11491J-2732D01*
G01X3723386Y-2913983D01*
G01X3723141Y-2916374D01*
G03X3690988Y-2944054I2749J-35708D01*
G03X3665118Y-2917450I-34897J-8054D01*
G02X3664605Y-2914008I11298J3442D01*
G01X3664605Y-2815991D01*
G03X3650396Y-2781687I-48514J0D01*
G01X3419741Y-2551032D01*
G01X3419242Y-2549309D01*
G01X3418839Y-2546662D01*
G03X3305909Y-2505809I-66039J-6038D01*
G03X3346762Y-2618739I46891J-46891D01*
G01X3349409Y-2619142D01*
G01X3351132Y-2619641D01*
G01X3567577Y-2836086D01*
G01X3567577Y-2914008D01*
G02X3567065Y-2917450I-11811J0D01*
G03X3540277Y-2952108I9027J-34658D01*
G01X3540277Y-3032108D01*
G03X3576091Y-3067922I35814J0D01*
G01X3656091Y-3067922D01*
G03X3690994Y-3040136I0J35814D01*
G03X3725890Y-3067897I34897J8054D01*
G01X3805890Y-3067897D01*
G03X3841704Y-3032083I0J35814D01*
G01X3841704Y-2952083D01*
G03X3822173Y-2920184I-35814J0D01*
G02X3820414Y-2913983I10052J6202D01*
G01X3820414Y-2871560D01*
G02X3820734Y-2868828I11811J0D01*
G03X3850914Y-2833460I-5634J35368D01*
G01X3850914Y-2752813D01*
G03X3822634Y-2717800I-35814J0D01*
G03X3849848Y-2691463I-7534J35013D01*
G02X3853200Y-2690978I3353J-11325D01*
G01X4046200Y-2690978D01*
G02X4049552Y-2691463I0J-11811D01*
G03X4076766Y-2717800I34747J8676D01*
G03X4048486Y-2752813I7534J-35013D01*
G01X4048486Y-2833460D01*
G03X4078666Y-2868828I35814J0D01*
G02X4078986Y-2871560I-11491J-2732D01*
G01X4078986Y-2919087D01*
G02X4078570Y-2922196I-11811J0D01*
G03X4051297Y-2949159I7630J-34992D01*
G03X4016400Y-2921399I-34897J-8054D01*
G01X3936401Y-2921399D01*
G03X3900587Y-2957213I0J-35814D01*
G01X3900587Y-3037213D01*
G03X3936401Y-3073027I35814J0D01*
G01X4016400Y-3073027D01*
G03X4051303Y-3045241I0J35814D01*
G03X4086200Y-3073001I34897J8054D01*
G01X4166199Y-3073001D01*
G03X4202013Y-3037187I0J35814D01*
G01X4202013Y-2957187D01*
G03X4176658Y-2922935I-35814J0D01*
G02X4176014Y-2919087I11167J3847D01*
G01X4176014Y-2871560D01*
G02X4176334Y-2868828I11811J0D01*
G03X4206514Y-2833460I-5634J35368D01*
G01X4206514Y-2752813D01*
G03X4178234Y-2717800I-35814J0D01*
G03X4205448Y-2691463I-7534J35013D01*
G02X4208800Y-2690978I3353J-11325D01*
G01X4324168Y-2690978D01*
G01X4369866Y-2736675D01*
G02X4374986Y-2753901I-26418J-17226D01*
G01X4374986Y-2879000D01*
G03X4410800Y-2914814I35814J0D01*
G01X4580800Y-2914814D01*
G03X4616614Y-2879000I0J35814D01*
G01X4616614Y-2842737D01*
G01X4618900Y-2842514D01*
G01X4621329Y-2842514D01*
G01X4629931Y-2849813D01*
G01X4669980Y-2884691D01*
G03X4870369Y-2801687I79820J90691D01*
G01X4874026Y-2748705D01*
G01X4874948Y-2737462D01*
G01X5317505Y-2294905D01*
G03X5331714Y-2260600I-34305J34305D01*
G01X5331714Y-2244000D01*
G01X5331937Y-2241714D01*
G01X5368200Y-2241714D01*
G03X5404014Y-2205900I0J35814D01*
G01X5404014Y-2035900D01*
G03X5368200Y-2000086I-35814J0D01*
G01X5198200Y-2000086D01*
G03X5162386Y-2035900I0J-35814D01*
G01X5162386Y-2205900D01*
G03X5198200Y-2241714I35814J0D01*
G01X5233477Y-2241714D01*
G01X4806338Y-2668852D01*
G01X4795095Y-2669774D01*
G01X4742113Y-2673431D01*
G03X4669980Y-2703309I7687J-120569D01*
G01X4629931Y-2738187D01*
G01X4621329Y-2745486D01*
G01X4618900Y-2745486D01*
G01X4616614Y-2745263D01*
G01X4616614Y-2709000D01*
G03X4580800Y-2673186I-35814J0D01*
G01X4455701Y-2673186D01*
G02X4438475Y-2668066I0J31538D01*
G01X4378568Y-2608159D01*
G03X4344264Y-2593950I-34305J-34305D01*
G01X4244623Y-2593950D01*
G01X4269907Y-2568666D01*
G03X4284116Y-2534361I-34305J34305D01*
G01X4284116Y-2331000D01*
G02X4284629Y-2327558I11811J0D01*
G03X4311416Y-2292900I-9027J34658D01*
G01X4311416Y-2202900D01*
G03X4284629Y-2168242I-35814J0D01*
G02X4284116Y-2164800I11298J3442D01*
G01X4284116Y-2141573D01*
G02X4284634Y-2138114I11811J0D01*
G03X4311358Y-2103473I-9090J34641D01*
G01X4311358Y-2013473D01*
G03X4284634Y-1978832I-35814J0D01*
G02X4284116Y-1975373I11293J3459D01*
G01X4284116Y-1950000D01*
G02X4284629Y-1946558I11811J0D01*
G03X4311416Y-1911900I-9027J34658D01*
G01X4311416Y-1821900D01*
G03X4284629Y-1787242I-35814J0D01*
G02X4284116Y-1783800I11298J3442D01*
G01X4284116Y-1759500D01*
G02X4284629Y-1756058I11811J0D01*
G03X4311416Y-1721400I-9027J34658D01*
G01X4311416Y-1631400D01*
G03X4292163Y-1599645I-35814J0D01*
G02X4290314Y-1593300I9962J6345D01*
G01X4290314Y-1557455D01*
G01X4291179Y-1555884D01*
G01X4292766Y-1553727D01*
G03X4241800Y-1444986I-50966J42427D01*
G03X4190834Y-1553727I0J-66314D01*
G01X4192421Y-1555884D01*
G01X4193286Y-1557455D01*
G01X4193286Y-1593300D01*
G01X4193044Y-1595678D01*
G01X3213283Y-3031288D02*
G03X3249097Y-3067102I35814J0D01*
G01X3429097Y-3067102D01*
G03X3464911Y-3031288I0J35814D01*
G01X3464911Y-2781289D01*
G03X3429097Y-2745475I-35814J0D01*
G01X3249097Y-2745475D01*
G03X3213283Y-2781289I0J-35814D01*
G01X3213283Y-3031288D01*
G01X3667486Y-965200D02*
G03X3800114Y-965200I66314J0D01*
G03X3667486Y-965200I-66314J0D01*
G01X4374986Y-2540000D02*
G03X4616614Y-2540000I120814J0D01*
G03X4374986Y-2540000I-120814J0D01*
G01X4628986Y-2540000D02*
G03X4870614Y-2540000I120814J0D01*
G03X4628986Y-2540000I-120814J0D01*
G01X5014186Y-300000D02*
G03X5385814Y-300000I185814J0D01*
G03X5014186Y-300000I-185814J0D01*
G01X5014186Y-2800000D02*
G03X5385814Y-2800000I185814J0D01*
G03X5014186Y-2800000I-185814J0D01*
G01X5283200Y-1733714D02*
G03X5283200Y-1492086I0J120814D01*
G03X5283200Y-1733714I0J-120814D01*
G54D11*
G01X698500Y-2406498D02*
G01X698500Y-2340844D01*
G01X698500Y-2406498D02*
G01X769154Y-2406498D01*
G01X698500Y-2406498D02*
G01X627846Y-2406498D01*
G01X769899Y-2808300D02*
G01X840553Y-2808300D01*
G01X769899Y-2808300D02*
G01X699245Y-2808300D01*
G01X769899Y-2808300D02*
G01X769899Y-2873954D01*
G01X769899Y-2808300D02*
G01X769899Y-2742646D01*
G01X836905Y-3008300D02*
G01X836905Y-2922651D01*
G01X836905Y-3008300D02*
G01X892556Y-3008300D01*
G01X836905Y-3008300D02*
G01X781253Y-3008300D01*
G01X2030006Y-2656302D02*
G01X2090660Y-2656302D01*
G01X2030006Y-2656302D02*
G01X2030006Y-2766955D01*
G01X2030006Y-2656302D02*
G01X2030006Y-2545648D01*
G01X3084106Y-2656302D02*
G01X3144760Y-2656302D01*
G01X3084106Y-2656302D02*
G01X3084106Y-2766955D01*
G01X3084106Y-2656302D02*
G01X3084106Y-2545648D01*
G01X4095539Y-2058473D02*
G01X4029885Y-2058473D01*
G01X4095539Y-2058473D02*
G01X4095539Y-1987819D01*
G01X4095539Y-2058473D02*
G01X4095539Y-2129127D01*
G01X3976400Y-2997213D02*
G01X3976400Y-3062867D01*
G01X3976400Y-2997213D02*
G01X3976400Y-2931559D01*
G01X3976400Y-2997213D02*
G01X3910747Y-2997213D01*
G01X4095598Y-2247900D02*
G01X4029944Y-2247900D01*
G01X4095598Y-2247900D02*
G01X4095598Y-2177246D01*
G01X4095598Y-2247900D02*
G01X4095598Y-2318554D01*
G01X4095598Y-1676400D02*
G01X4029944Y-1676400D01*
G01X4095598Y-1676400D02*
G01X4095598Y-1605746D01*
G01X4095598Y-1676400D02*
G01X4095598Y-1747054D01*
G01X4095598Y-1866900D02*
G01X4029944Y-1866900D01*
G01X4095598Y-1866900D02*
G01X4095598Y-1796246D01*
G01X4095598Y-1866900D02*
G01X4095598Y-1937554D01*
G01X5283200Y-1612900D02*
G01X5283200Y-1723554D01*
G01X5283200Y-1612900D02*
G01X5283200Y-1502246D01*
G01X5283200Y-1612900D02*
G01X5172546Y-1612900D01*
G01X5283200Y-1612900D02*
G01X5393854Y-1612900D01*
G01X4495800Y-2540000D02*
G01X4385146Y-2540000D01*
G01X4495800Y-2540000D02*
G01X4606454Y-2540000D01*
G01X4495800Y-2540000D02*
G01X4495800Y-2429346D01*
G01X4495800Y-2540000D02*
G01X4495800Y-2650654D01*
G01X4749800Y-2540000D02*
G01X4639146Y-2540000D01*
G01X4749800Y-2540000D02*
G01X4860454Y-2540000D01*
G01X4749800Y-2540000D02*
G01X4749800Y-2429346D01*
G01X4749800Y-2540000D02*
G01X4749800Y-2650654D01*
G04 Copper End*

G04 TearDrop Start*
G36*
G01X4248302Y-1759500D02*
G01X4222902Y-1759500D01*
G03X4203852Y-1721400I-47625J0D01*
G01X4267352Y-1721400D01*
G03X4248302Y-1759500I28575J-38100D01*
G37*
G36*
G01X4229100Y-1593300D02*
G01X4254500Y-1593300D01*
G03X4273550Y-1631400I47625J0D01*
G01X4210050Y-1631400D01*
G03X4229100Y-1593300I-28575J38100D01*
G37*
G36*
G01X4017498Y-1689100D02*
G01X4017498Y-1663700D01*
G03X4055598Y-1644650I0J47625D01*
G01X4055598Y-1708150D01*
G03X4017498Y-1689100I-38100J-28575D01*
G37*
G36*
G01X4248302Y-1950000D02*
G01X4222902Y-1950000D01*
G03X4203852Y-1911900I-47625J0D01*
G01X4267352Y-1911900D01*
G03X4248302Y-1950000I28575J-38100D01*
G37*
G36*
G01X4222902Y-1783800D02*
G01X4248302Y-1783800D01*
G03X4267352Y-1821900I47625J0D01*
G01X4203852Y-1821900D01*
G03X4222902Y-1783800I-28575J38100D01*
G37*
G36*
G01X4017498Y-1879600D02*
G01X4017498Y-1854200D01*
G03X4055598Y-1835150I0J47625D01*
G01X4055598Y-1898650D01*
G03X4017498Y-1879600I-38100J-28575D01*
G37*
G36*
G01X4248302Y-2141573D02*
G01X4222902Y-2141573D01*
G03X4203852Y-2103473I-47625J0D01*
G01X4267352Y-2103473D01*
G03X4248302Y-2141573I28575J-38100D01*
G37*
G36*
G01X4222902Y-1975373D02*
G01X4248302Y-1975373D01*
G03X4267352Y-2013473I47625J0D01*
G01X4203852Y-2013473D01*
G03X4222902Y-1975373I-28575J38100D01*
G37*
G36*
G01X4017439Y-2071173D02*
G01X4017439Y-2045773D01*
G03X4055539Y-2026723I0J47625D01*
G01X4055539Y-2090223D01*
G03X4017439Y-2071173I-38100J-28575D01*
G37*
G36*
G01X4222902Y-2164800D02*
G01X4248302Y-2164800D01*
G03X4267352Y-2202900I47625J0D01*
G01X4203852Y-2202900D01*
G03X4222902Y-2164800I-28575J38100D01*
G37*
G36*
G01X4248302Y-2331000D02*
G01X4222902Y-2331000D01*
G03X4203852Y-2292900I-47625J0D01*
G01X4267352Y-2292900D01*
G03X4248302Y-2331000I28575J-38100D01*
G37*
G36*
G01X4017498Y-2260600D02*
G01X4017498Y-2235200D01*
G03X4055598Y-2216150I0J47625D01*
G01X4055598Y-2279650D01*
G03X4017498Y-2260600I-38100J-28575D01*
G37*
G36*
G01X781600Y-2533802D02*
G01X781600Y-2559202D01*
G03X743500Y-2578252I0J-47625D01*
G01X743500Y-2514752D01*
G03X781600Y-2533802I38100J28575D01*
G37*
G36*
G01X615400Y-2564536D02*
G01X615400Y-2539136D01*
G03X653500Y-2520086I0J47625D01*
G01X653500Y-2583586D01*
G03X615400Y-2564536I-38100J-28575D01*
G37*
G36*
G01X781600Y-2393798D02*
G01X781600Y-2419198D01*
G03X743500Y-2438248I0J-47625D01*
G01X743500Y-2374748D01*
G03X781600Y-2393798I38100J28575D01*
G37*
G36*
G01X4397330Y-2713490D02*
G01X4415290Y-2695530D01*
G03X4455701Y-2709000I40411J53882D01*
G01X4410800Y-2753901D01*
G03X4397330Y-2713490I-67352J0D01*
G37*
G36*
G01X4618900Y-2781300D02*
G01X4618900Y-2806700D01*
G03X4580800Y-2825750I0J-47625D01*
G01X4580800Y-2762250D01*
G03X4618900Y-2781300I38100J28575D01*
G37*
G36*
G01X4483100Y-2424278D02*
G01X4508500Y-2424278D01*
G01X4512887Y-2429845D01*
G01X4524453Y-2443477D01*
G01X4559550Y-2483778D01*
G01X4432050Y-2483778D01*
G01X4467147Y-2443477D01*
G01X4478713Y-2429845D01*
G01X4483100Y-2424278D01*
G37*
G36*
G01X4634078Y-2806700D02*
G01X4634078Y-2781300D01*
G01X4639645Y-2776913D01*
G01X4653277Y-2765347D01*
G01X4693578Y-2730250D01*
G01X4693578Y-2857750D01*
G01X4653277Y-2822653D01*
G01X4639645Y-2811087D01*
G01X4634078Y-2806700D01*
G37*
G36*
G01X4822648Y-2703192D02*
G01X4840608Y-2721152D01*
G01X4839773Y-2728191D01*
G01X4838313Y-2746009D01*
G01X4834633Y-2799323D01*
G01X4744477Y-2709167D01*
G01X4797791Y-2705487D01*
G01X4815609Y-2704027D01*
G01X4822648Y-2703192D01*
G37*
G36*
G01X4737100Y-2424278D02*
G01X4762500Y-2424278D01*
G01X4766887Y-2429845D01*
G01X4778453Y-2443477D01*
G01X4813550Y-2483778D01*
G01X4686050Y-2483778D01*
G01X4721147Y-2443477D01*
G01X4732713Y-2429845D01*
G01X4737100Y-2424278D01*
G37*
G36*
G01X505734Y-2347369D02*
G01X526571Y-2362453D01*
G03X513100Y-2402865I53882J-40411D01*
G01X465322Y-2360840D01*
G03X505734Y-2347369I0J67352D01*
G37*
G36*
G01X551200Y-2539136D02*
G01X551200Y-2564536D01*
G03X513100Y-2583586I0J-47625D01*
G01X513100Y-2520086D01*
G03X551200Y-2539136I38100J28575D01*
G37*
G36*
G01X482600Y-2630260D02*
G01X457200Y-2630260D01*
G03X438150Y-2592160I-47625J0D01*
G01X501650Y-2592160D01*
G03X482600Y-2630260I28575J-38100D01*
G37*
G36*
G01X2650693Y-1299007D02*
G01X2650693Y-1273607D01*
G01X2665133Y-1273207D01*
G01X2675807Y-1272807D01*
G01X2675807Y-1299807D01*
G01X2665133Y-1299407D01*
G01X2650693Y-1299007D01*
G37*
G36*
G01X2638114Y-1549400D02*
G01X2637301Y-1524000D01*
G01X2659208Y-1523486D01*
G01X2675401Y-1522800D01*
G01X2676214Y-1549788D01*
G01X2660022Y-1549680D01*
G01X2638114Y-1549400D01*
G37*
G36*
G01X2836907Y-1573606D02*
G01X2836907Y-1599006D01*
G01X2815000Y-1599406D01*
G01X2798807Y-1599806D01*
G01X2798807Y-1572806D01*
G01X2815000Y-1573206D01*
G01X2836907Y-1573606D01*
G37*
G36*
G01X2637707Y-1648993D02*
G01X2637707Y-1623593D01*
G01X2659614Y-1623193D01*
G01X2675807Y-1622793D01*
G01X2675807Y-1649793D01*
G01X2659614Y-1649393D01*
G01X2637707Y-1648993D01*
G37*
G36*
G01X2637707Y-1748993D02*
G01X2637707Y-1723593D01*
G01X2659614Y-1723193D01*
G01X2675807Y-1722793D01*
G01X2675807Y-1749793D01*
G01X2659614Y-1749393D01*
G01X2637707Y-1748993D01*
G37*
G36*
G01X3374593Y-1836693D02*
G01X3399993Y-1836693D01*
G01X3400393Y-1858600D01*
G01X3400793Y-1874793D01*
G01X3373793Y-1874793D01*
G01X3374193Y-1858600D01*
G01X3374593Y-1836693D01*
G37*
G36*
G01X3470852Y-1951878D02*
G01X3484641Y-2001589D01*
G01X3479195Y-1996453D01*
G01X3473489Y-1991621D01*
G01X3467825Y-1987318D01*
G01X3462509Y-1983766D01*
G01X3457845Y-1981189D01*
G01X3454137Y-1979811D01*
G01X3452737Y-1979641D01*
G01X3451689Y-1979854D01*
G01X3451033Y-1980479D01*
G01X3450806Y-1981543D01*
G01X3450806Y-1918043D01*
G01X3451256Y-1921065D01*
G01X3452529Y-1924829D01*
G01X3457070Y-1933788D01*
G01X3463491Y-1943333D01*
G01X3467113Y-1947830D01*
G01X3470852Y-1951878D01*
G37*
G36*
G01X3686893Y-1523594D02*
G01X3686893Y-1548994D01*
G01X3664986Y-1549394D01*
G01X3648793Y-1549794D01*
G01X3648793Y-1522793D01*
G01X3664986Y-1523194D01*
G01X3686893Y-1523594D01*
G37*
G36*
G01X3686893Y-1323594D02*
G01X3686893Y-1348994D01*
G01X3664986Y-1349394D01*
G01X3648793Y-1349794D01*
G01X3648793Y-1322794D01*
G01X3664986Y-1323194D01*
G01X3686893Y-1323594D01*
G37*
G36*
G01X3487693Y-1299007D02*
G01X3487693Y-1273607D01*
G01X3509600Y-1273207D01*
G01X3525793Y-1272807D01*
G01X3525793Y-1299807D01*
G01X3509600Y-1299407D01*
G01X3487693Y-1299007D01*
G37*
G36*
G01X3686893Y-1273607D02*
G01X3686893Y-1299007D01*
G01X3664986Y-1299407D01*
G01X3648793Y-1299807D01*
G01X3648793Y-1272807D01*
G01X3664986Y-1273207D01*
G01X3686893Y-1273607D01*
G37*
G36*
G01X3678606Y-1223594D02*
G01X3678606Y-1248994D01*
G01X3661464Y-1249394D01*
G01X3648793Y-1249794D01*
G01X3648793Y-1222794D01*
G01X3661464Y-1223194D01*
G01X3678606Y-1223594D01*
G37*
G36*
G01X3488906Y-1073607D02*
G01X3488906Y-1099007D01*
G01X3481799Y-1099435D01*
G01X3474916Y-1100644D01*
G01X3468479Y-1102523D01*
G01X3462712Y-1104960D01*
G01X3457838Y-1107844D01*
G01X3454080Y-1111062D01*
G01X3451662Y-1114504D01*
G01X3451024Y-1116274D01*
G01X3450806Y-1118057D01*
G01X3450806Y-1054557D01*
G01X3451024Y-1056341D01*
G01X3451662Y-1058110D01*
G01X3454080Y-1061552D01*
G01X3457838Y-1064771D01*
G01X3462712Y-1067654D01*
G01X3468479Y-1070091D01*
G01X3474916Y-1071970D01*
G01X3481799Y-1073179D01*
G01X3488906Y-1073607D01*
G37*
G36*
G01X3225800Y-986707D02*
G01X3251200Y-986707D01*
G01X3250806Y-1024807D01*
G01X3223806Y-1024807D01*
G01X3224803Y-1008611D01*
G01X3225488Y-998017D01*
G01X3225800Y-986707D01*
G37*
G36*
G01X2950007Y-1185907D02*
G01X2924607Y-1185907D01*
G01X2924207Y-1164000D01*
G01X2923807Y-1147807D01*
G01X2950807Y-1147807D01*
G01X2950407Y-1164000D01*
G01X2950007Y-1185907D01*
G37*
G36*
G01X2835694Y-1099007D02*
G01X2835694Y-1073607D01*
G01X2842801Y-1073179D01*
G01X2849684Y-1071970D01*
G01X2856121Y-1070091D01*
G01X2861888Y-1067654D01*
G01X2866762Y-1064771D01*
G01X2870520Y-1061552D01*
G01X2872938Y-1058110D01*
G01X2873576Y-1056341D01*
G01X2873794Y-1054557D01*
G01X2873794Y-1118057D01*
G01X2873576Y-1116274D01*
G01X2872938Y-1114504D01*
G01X2870520Y-1111062D01*
G01X2866762Y-1107844D01*
G01X2861888Y-1104960D01*
G01X2856121Y-1102523D01*
G01X2849684Y-1100644D01*
G01X2842801Y-1099435D01*
G01X2835694Y-1099007D01*
G37*
G36*
G01X1767294Y-2533202D02*
G01X1792694Y-2533202D01*
G03X1811744Y-2571302I47625J0D01*
G01X1748244Y-2571302D01*
G03X1767294Y-2533202I-28575J38100D01*
G37*
G36*
G01X2103106Y-2628900D02*
G01X2103106Y-2654300D01*
G03X2065006Y-2673350I0J-47625D01*
G01X2065006Y-2609850D01*
G03X2103106Y-2628900I38100J28575D01*
G37*
G36*
G01X5295900Y-2244000D02*
G01X5270500Y-2244000D01*
G03X5251450Y-2205900I-47625J0D01*
G01X5314950Y-2205900D01*
G03X5295900Y-2244000I28575J-38100D01*
G37*
G36*
G01X5192392Y-1794052D02*
G01X5210352Y-1776092D01*
G01X5217391Y-1776927D01*
G01X5235209Y-1778387D01*
G01X5288523Y-1782067D01*
G01X5198367Y-1872223D01*
G01X5194687Y-1818909D01*
G01X5193227Y-1801091D01*
G01X5192392Y-1794052D01*
G37*
G36*
G01X5192392Y-1540052D02*
G01X5210352Y-1522092D01*
G01X5217391Y-1522927D01*
G01X5235209Y-1524387D01*
G01X5288523Y-1528067D01*
G01X5198367Y-1618223D01*
G01X5194687Y-1564909D01*
G01X5193227Y-1547091D01*
G01X5192392Y-1540052D01*
G37*
G36*
G01X5192392Y-1286052D02*
G01X5210352Y-1268092D01*
G01X5217391Y-1268927D01*
G01X5235209Y-1270387D01*
G01X5288523Y-1274067D01*
G01X5198367Y-1364223D01*
G01X5194687Y-1310909D01*
G01X5193227Y-1293091D01*
G01X5192392Y-1286052D01*
G37*
G36*
G01X828370Y-2848810D02*
G01X805409Y-2861771D01*
G03X764998Y-2848300I-40411J-53882D01*
G01X814899Y-2808399D01*
G03X828370Y-2848810I67352J0D01*
G37*
G36*
G01X459410Y-2754830D02*
G01X478880Y-2771281D01*
G03X468901Y-2808202I63305J-36921D01*
G01X418999Y-2768300D01*
G03X459410Y-2754830I0J67352D01*
G37*
G36*
G01X388391Y-2861771D02*
G01X365430Y-2848810D01*
G03X378901Y-2808399I-53882J40411D01*
G01X428802Y-2848300D01*
G03X388391Y-2861771I0J-67352D01*
G37*
G36*
G01X905002Y-2995600D02*
G01X905002Y-3021000D01*
G03X866902Y-3040050I0J-47625D01*
G01X866902Y-2976550D01*
G03X905002Y-2995600I38100J28575D01*
G37*
G36*
G01X824205Y-2910205D02*
G01X849605Y-2910205D01*
G03X866902Y-2948305I50609J0D01*
G01X806907Y-2948305D01*
G03X824205Y-2910205I-33312J38100D01*
G37*
G36*
G01X344195Y-2910205D02*
G01X369595Y-2910205D01*
G03X386893Y-2948305I50609J0D01*
G01X326898Y-2948305D01*
G03X344195Y-2910205I-33312J38100D01*
G37*
G36*
G01X2779048Y-2619216D02*
G01X2765258Y-2569506D01*
G03X2799094Y-2589552I56082J56082D01*
G01X2799094Y-2653052D01*
G03X2779048Y-2619216I-76128J-22247D01*
G37*
G36*
G01X2946413Y-2533202D02*
G01X2971813Y-2533202D01*
G03X2990863Y-2571302I47625J0D01*
G01X2927363Y-2571302D01*
G03X2946413Y-2533202I-28575J38100D01*
G37*
G36*
G01X3134898Y-2643602D02*
G01X3134898Y-2669002D01*
G03X3119106Y-2688052I3594J-19050D01*
G01X3119106Y-2624552D01*
G03X3134898Y-2643602I19386J0D01*
G37*
G36*
G01X4114800Y-2919087D02*
G01X4140200Y-2919087D01*
G03X4159250Y-2957187I47625J0D01*
G01X4095750Y-2957187D01*
G03X4114800Y-2919087I-28575J38100D01*
G37*
G36*
G01X3963700Y-2919113D02*
G01X3989100Y-2919113D01*
G03X4008150Y-2957213I47625J0D01*
G01X3944650Y-2957213D01*
G03X3963700Y-2919113I-28575J38100D01*
G37*
G36*
G01X3759200Y-2913983D02*
G01X3784600Y-2913983D01*
G03X3803650Y-2952083I47625J0D01*
G01X3740150Y-2952083D01*
G03X3759200Y-2913983I-28575J38100D01*
G37*
G36*
G01X3603391Y-2914008D02*
G01X3628791Y-2914008D01*
G03X3647841Y-2952108I47625J0D01*
G01X3584341Y-2952108D01*
G03X3603391Y-2914008I-28575J38100D01*
G37*
G36*
G01X4046200Y-2655164D02*
G01X4046200Y-2629764D01*
G03X4084300Y-2610714I0J47625D01*
G01X4084300Y-2674214D01*
G03X4046200Y-2655164I-38100J-28575D01*
G37*
G36*
G01X4163334Y-2588669D02*
G01X4184171Y-2603753D01*
G03X4170700Y-2644165I53882J-40411D01*
G01X4122922Y-2602140D01*
G03X4163334Y-2588669I0J67352D01*
G37*
G36*
G01X4208800Y-2629764D02*
G01X4208800Y-2655164D01*
G03X4170700Y-2674214I0J-47625D01*
G01X4170700Y-2610714D01*
G03X4208800Y-2629764I38100J28575D01*
G37*
G36*
G01X4140200Y-2871560D02*
G01X4114800Y-2871560D01*
G03X4095750Y-2833460I-47625J0D01*
G01X4159250Y-2833460D01*
G03X4140200Y-2871560I28575J-38100D01*
G37*
G36*
G01X3853200Y-2629764D02*
G01X3853200Y-2655164D01*
G03X3815100Y-2674214I0J-47625D01*
G01X3815100Y-2610714D01*
G03X3853200Y-2629764I38100J28575D01*
G37*
G36*
G01X3759200Y-2564040D02*
G01X3784600Y-2564040D01*
G03X3803650Y-2602140I47625J0D01*
G01X3740150Y-2602140D01*
G03X3759200Y-2564040I-28575J38100D01*
G37*
G36*
G01X3784600Y-2871560D02*
G01X3759200Y-2871560D01*
G03X3740150Y-2833460I-47625J0D01*
G01X3803650Y-2833460D01*
G03X3784600Y-2871560I28575J-38100D01*
G37*
G36*
G01X2104776Y-2654300D02*
G01X2104776Y-2628900D01*
G01X2109371Y-2628026D01*
G01X2115128Y-2625720D01*
G01X2121046Y-2622461D01*
G01X2126126Y-2618725D01*
G01X2126126Y-2664475D01*
G01X2121046Y-2660739D01*
G01X2115128Y-2657480D01*
G01X2109371Y-2655174D01*
G01X2104776Y-2654300D01*
G37*
G36*
G01X3167318Y-2641842D02*
G01X3149358Y-2623882D01*
G01X3151988Y-2620014D01*
G01X3154429Y-2614314D01*
G01X3156310Y-2607824D01*
G01X3157260Y-2601590D01*
G01X3189610Y-2633940D01*
G01X3183376Y-2634890D01*
G01X3176886Y-2636771D01*
G01X3171186Y-2639212D01*
G01X3167318Y-2641842D01*
G37*
G36*
G01X3989100Y-2872630D02*
G01X3963700Y-2874581D01*
G01X3962790Y-2869843D01*
G01X3960390Y-2864038D01*
G01X3956996Y-2858167D01*
G01X3953106Y-2853231D01*
G01X3998814Y-2851280D01*
G01X3995248Y-2856493D01*
G01X3992136Y-2862456D01*
G01X3989935Y-2868169D01*
G01X3989100Y-2872630D01*
G37*
G36*
G01X4508500Y-2264024D02*
G01X4483100Y-2264024D01*
G01X4482226Y-2259429D01*
G01X4479920Y-2253672D01*
G01X4476661Y-2247754D01*
G01X4472925Y-2242674D01*
G01X4518675Y-2242674D01*
G01X4514939Y-2247754D01*
G01X4511680Y-2253672D01*
G01X4509374Y-2259429D01*
G01X4508500Y-2264024D01*
G37*
G36*
G01X4762500Y-2264024D02*
G01X4737100Y-2264024D01*
G01X4736226Y-2259429D01*
G01X4733920Y-2253672D01*
G01X4730661Y-2247754D01*
G01X4726925Y-2242674D01*
G01X4772675Y-2242674D01*
G01X4768939Y-2247754D01*
G01X4765680Y-2253672D01*
G01X4763374Y-2259429D01*
G01X4762500Y-2264024D01*
G37*
G36*
G01X3998868Y-1663700D02*
G01X3998863Y-1689100D01*
G01X3994269Y-1689974D01*
G01X3988512Y-1692279D01*
G01X3982593Y-1695538D01*
G01X3977513Y-1699274D01*
G01X3977518Y-1653524D01*
G01X3982598Y-1657260D01*
G01X3988516Y-1660520D01*
G01X3994273Y-1662825D01*
G01X3998868Y-1663700D01*
G37*
G36*
G01X3999622Y-1854200D02*
G01X3998086Y-1879600D01*
G01X3993597Y-1880444D01*
G01X3987876Y-1882667D01*
G01X3981922Y-1885811D01*
G01X3976736Y-1889416D01*
G01X3978272Y-1843691D01*
G01X3983240Y-1847550D01*
G01X3989121Y-1850916D01*
G01X3994915Y-1853297D01*
G01X3999622Y-1854200D01*
G37*
G36*
G01X3996196Y-2045773D02*
G01X4001284Y-2071173D01*
G01X3998966Y-2071424D01*
G01X3996297Y-2072134D01*
G01X3990409Y-2074667D01*
G01X3984621Y-2078249D01*
G01X3979934Y-2082354D01*
G01X3974846Y-2036888D01*
G01X3980247Y-2040150D01*
G01X3986272Y-2042996D01*
G01X3991922Y-2045009D01*
G01X3996196Y-2045773D01*
G37*
G36*
G01X3998900Y-2235200D02*
G01X3998831Y-2260600D01*
G01X3994242Y-2261473D01*
G01X3988486Y-2263775D01*
G01X3982566Y-2267029D01*
G01X3977481Y-2270760D01*
G01X3977550Y-2225009D01*
G01X3982625Y-2228751D01*
G01X3988542Y-2232015D01*
G01X3994300Y-2234324D01*
G01X3998900Y-2235200D01*
G37*
G36*
G01X3565276Y-2286000D02*
G01X3565276Y-2260600D01*
G01X3569871Y-2259726D01*
G01X3575628Y-2257420D01*
G01X3581546Y-2254161D01*
G01X3586626Y-2250425D01*
G01X3586626Y-2296175D01*
G01X3581546Y-2292439D01*
G01X3575628Y-2289180D01*
G01X3569871Y-2286874D01*
G01X3565276Y-2286000D01*
G37*
G36*
G01X3797300Y-1660276D02*
G01X3822700Y-1660276D01*
G01X3823574Y-1664871D01*
G01X3825880Y-1670628D01*
G01X3829139Y-1676546D01*
G01X3832875Y-1681626D01*
G01X3787125Y-1681626D01*
G01X3790861Y-1676546D01*
G01X3794120Y-1670628D01*
G01X3796426Y-1664871D01*
G01X3797300Y-1660276D01*
G37*
G36*
G01X3713418Y-1219442D02*
G01X3695458Y-1201482D01*
G01X3698088Y-1197614D01*
G01X3700529Y-1191914D01*
G01X3702410Y-1185424D01*
G01X3703360Y-1179190D01*
G01X3735710Y-1211540D01*
G01X3729476Y-1212490D01*
G01X3722986Y-1214371D01*
G01X3717286Y-1216812D01*
G01X3713418Y-1219442D01*
G37*
G36*
G01X2527300Y-1933824D02*
G01X2501900Y-1933824D01*
G01X2501026Y-1929229D01*
G01X2498720Y-1923472D01*
G01X2495461Y-1917554D01*
G01X2491725Y-1912474D01*
G01X2537475Y-1912474D01*
G01X2533739Y-1917554D01*
G01X2530480Y-1923472D01*
G01X2528174Y-1929229D01*
G01X2527300Y-1933824D01*
G37*
G36*
G01X2534982Y-926858D02*
G01X2552942Y-944818D01*
G01X2550312Y-948686D01*
G01X2547871Y-954386D01*
G01X2545990Y-960876D01*
G01X2545040Y-967110D01*
G01X2512690Y-934760D01*
G01X2518924Y-933810D01*
G01X2525414Y-931929D01*
G01X2531114Y-929488D01*
G01X2534982Y-926858D01*
G37*
G36*
G01X1719518Y-1816342D02*
G01X1701558Y-1798382D01*
G01X1704188Y-1794514D01*
G01X1706629Y-1788814D01*
G01X1708510Y-1782324D01*
G01X1709460Y-1776090D01*
G01X1741810Y-1808440D01*
G01X1735576Y-1809390D01*
G01X1729086Y-1811271D01*
G01X1723386Y-1813712D01*
G01X1719518Y-1816342D01*
G37*
G36*
G01X2365624Y-1524000D02*
G01X2365624Y-1549400D01*
G01X2361029Y-1550274D01*
G01X2355272Y-1552580D01*
G01X2349354Y-1555839D01*
G01X2344274Y-1559575D01*
G01X2344274Y-1513825D01*
G01X2349354Y-1517561D01*
G01X2355272Y-1520820D01*
G01X2361029Y-1523126D01*
G01X2365624Y-1524000D01*
G37*
G36*
G01X897104Y-3021000D02*
G01X899504Y-2995600D01*
G01X903937Y-2994775D01*
G01X909640Y-2992599D01*
G01X915612Y-2989524D01*
G01X920854Y-2985998D01*
G01X918454Y-3031685D01*
G01X913552Y-3027762D01*
G01X907692Y-3024339D01*
G01X901876Y-3021918D01*
G01X897104Y-3021000D01*
G37*
G36*
G01X2958858Y-1338518D02*
G01X2976818Y-1320558D01*
G01X2980686Y-1323188D01*
G01X2986386Y-1325629D01*
G01X2992876Y-1327510D01*
G01X2999110Y-1328460D01*
G01X2966760Y-1360810D01*
G01X2965810Y-1354576D01*
G01X2963929Y-1348086D01*
G01X2961488Y-1342386D01*
G01X2958858Y-1338518D01*
G37*
G36*
G01X3327927Y-1320558D02*
G01X3345887Y-1338518D01*
G01X3343257Y-1342386D01*
G01X3340816Y-1348086D01*
G01X3338936Y-1354576D01*
G01X3337986Y-1360810D01*
G01X3305635Y-1328460D01*
G01X3311869Y-1327510D01*
G01X3318359Y-1325629D01*
G01X3324060Y-1323188D01*
G01X3327927Y-1320558D01*
G37*
G36*
G01X2958858Y-1630618D02*
G01X2976818Y-1612658D01*
G01X2980686Y-1615288D01*
G01X2986386Y-1617729D01*
G01X2992876Y-1619610D01*
G01X2999110Y-1620560D01*
G01X2966760Y-1652910D01*
G01X2965810Y-1646676D01*
G01X2963929Y-1640186D01*
G01X2961488Y-1634486D01*
G01X2958858Y-1630618D01*
G37*
G36*
G01X3348887Y-1671382D02*
G01X3330927Y-1689342D01*
G01X3327060Y-1686712D01*
G01X3321359Y-1684271D01*
G01X3314869Y-1682390D01*
G01X3308635Y-1681440D01*
G01X3340986Y-1649090D01*
G01X3341936Y-1655324D01*
G01X3343816Y-1661814D01*
G01X3346257Y-1667514D01*
G01X3348887Y-1671382D01*
G37*
G36*
G01X814445Y-2419198D02*
G01X805149Y-2393798D01*
G01X807680Y-2393533D01*
G01X810500Y-2392784D01*
G01X816510Y-2390111D01*
G01X822176Y-2386333D01*
G01X824568Y-2384202D01*
G01X826499Y-2382002D01*
G01X835795Y-2426797D01*
G01X830211Y-2424007D01*
G01X824124Y-2421572D01*
G01X818535Y-2419851D01*
G01X814445Y-2419198D01*
G37*
G36*
G01X2578100Y-1380876D02*
G01X2603500Y-1380876D01*
G01X2604374Y-1385471D01*
G01X2606680Y-1391228D01*
G01X2609939Y-1397146D01*
G01X2613675Y-1402226D01*
G01X2567925Y-1402226D01*
G01X2571661Y-1397146D01*
G01X2574920Y-1391228D01*
G01X2577226Y-1385471D01*
G01X2578100Y-1380876D01*
G37*
G36*
G01X3391142Y-2573082D02*
G01X3373182Y-2591042D01*
G01X3369314Y-2588412D01*
G01X3363614Y-2585971D01*
G01X3357124Y-2584090D01*
G01X3350890Y-2583140D01*
G01X3383240Y-2550790D01*
G01X3384190Y-2557024D01*
G01X3386071Y-2563514D01*
G01X3388512Y-2569214D01*
G01X3391142Y-2573082D01*
G37*
G36*
G01X4254500Y-1552824D02*
G01X4229100Y-1552824D01*
G01X4228226Y-1548229D01*
G01X4225920Y-1542472D01*
G01X4222661Y-1536554D01*
G01X4218925Y-1531474D01*
G01X4264675Y-1531474D01*
G01X4260939Y-1536554D01*
G01X4257680Y-1542472D01*
G01X4255374Y-1548229D01*
G01X4254500Y-1552824D01*
G37*
G36*
G01X2768600Y-1006724D02*
G01X2743200Y-1006724D01*
G01X2742326Y-1002129D01*
G01X2740020Y-996372D01*
G01X2736761Y-990454D01*
G01X2733025Y-985374D01*
G01X2778775Y-985374D01*
G01X2775039Y-990454D01*
G01X2771780Y-996372D01*
G01X2769474Y-1002129D01*
G01X2768600Y-1006724D01*
G37*
G36*
G01X1341631Y-1623593D02*
G02X1283391Y-1605633I0J103405D01*
G01X1234770Y-1636293D01*
G01X1222070Y-1666954D01*
G02X1316231Y-1648993I94161J-237845D01*
G01X1341631Y-1623593D01*
G37*
G36*
G01X2768600Y-997407D02*
G03X2794000Y-1073607I127000J0D01*
G01X2750944Y-1086307D01*
G01X2717800Y-1073607D01*
G03X2743200Y-997407I-101600J76200D01*
G01X2768600Y-997407D01*
G37*
G04 TearDrop End*

G04 Pad Start*
G54D12*
G01X4235602Y-1676400D03*
G01X4095598Y-1676400D03*
G01X4235602Y-1866900D03*
G01X4095598Y-1866900D03*
G01X4235544Y-2058473D03*
G01X4095539Y-2058473D03*
G01X4235602Y-2247900D03*
G01X4095598Y-2247900D03*
G54D13*
G01X698500Y-2546502D03*
G01X698500Y-2406498D03*
G54D14*
G01X4495800Y-2794000D03*
G54D15*
G01X4495800Y-2540000D03*
G01X4749800Y-2794000D03*
G01X4749800Y-2540000D03*
G54D16*
G01X469900Y-2401164D03*
G01X469900Y-2551836D03*
G54D17*
G01X2737307Y-1236294D03*
G01X2737307Y-1286307D03*
G01X2737307Y-1336294D03*
G01X2737307Y-1386307D03*
G01X2737307Y-1436294D03*
G01X2737307Y-1486306D03*
G01X2737307Y-1536294D03*
G01X2737307Y-1586306D03*
G01X2737307Y-1636293D03*
G01X2737307Y-1686306D03*
G01X2737307Y-1736293D03*
G01X2737307Y-1786306D03*
G54D18*
G01X2887294Y-1936293D03*
G01X2937307Y-1936293D03*
G01X2987294Y-1936293D03*
G01X3037307Y-1936293D03*
G01X3087294Y-1936293D03*
G01X3137306Y-1936293D03*
G01X3187294Y-1936293D03*
G01X3237306Y-1936293D03*
G01X3287293Y-1936293D03*
G01X3337306Y-1936293D03*
G01X3387293Y-1936293D03*
G01X3437306Y-1936293D03*
G54D17*
G01X3587293Y-1786306D03*
G01X3587293Y-1736293D03*
G01X3587293Y-1686306D03*
G01X3587293Y-1636293D03*
G01X3587293Y-1586306D03*
G01X3587293Y-1536294D03*
G01X3587293Y-1486306D03*
G01X3587293Y-1436294D03*
G01X3587293Y-1386307D03*
G01X3587293Y-1336294D03*
G01X3587293Y-1286307D03*
G01X3587293Y-1236294D03*
G54D18*
G01X3437306Y-1086307D03*
G01X3387293Y-1086307D03*
G01X3337306Y-1086307D03*
G01X3287293Y-1086307D03*
G01X3237306Y-1086307D03*
G01X3187294Y-1086307D03*
G01X3137306Y-1086307D03*
G01X3087294Y-1086307D03*
G01X3037307Y-1086307D03*
G01X2987294Y-1086307D03*
G01X2937307Y-1086307D03*
G01X2887294Y-1086307D03*
G54D20*
G01X2284997Y-2906288D03*
G01X1525003Y-2906288D03*
G54D21*
G01X1779994Y-2656302D03*
G01X1905013Y-2656302D03*
G01X2030006Y-2656302D03*
G54D14*
G01X5283200Y-2120900D03*
G54D15*
G01X5283200Y-1866900D03*
G01X5283200Y-1612900D03*
G01X5283200Y-1358900D03*
G54D13*
G01X769899Y-2808300D03*
G01X423901Y-2808300D03*
G54D22*
G01X836905Y-3008300D03*
G01X356895Y-3008300D03*
G54D20*
G01X3339097Y-2906288D03*
G01X2579103Y-2906288D03*
G54D21*
G01X2834094Y-2656302D03*
G01X2959113Y-2656302D03*
G01X3084106Y-2656302D03*
G54D23*
G01X4126200Y-2997187D03*
G01X3976400Y-2997213D03*
G01X3765890Y-2992083D03*
G01X3616091Y-2992108D03*
G54D16*
G01X4127500Y-2642464D03*
G01X4127500Y-2793136D03*
G01X3771900Y-2642464D03*
G01X3771900Y-2793136D03*
G04 Pad End*

G04 Via Start*
G54D24*
G01X2146300Y-2641600D03*
G01X3187700Y-2603500D03*
G01X3975100Y-2832100D03*
G01X4495800Y-2222500D03*
G01X4749800Y-2222500D03*
G01X3957342Y-1676396D03*
G01X3957342Y-1865876D03*
G01X3957342Y-2061865D03*
G01X3957342Y-2247854D03*
G01X3606800Y-2273300D03*
G01X3810000Y-1701800D03*
G01X3733800Y-1181100D03*
G01X2514600Y-1892300D03*
G01X2514600Y-965200D03*
G01X1739900Y-1778000D03*
G01X2324100Y-1536700D03*
G01X939800Y-3009900D03*
G01X2997200Y-1358900D03*
G01X3307545Y-1358900D03*
G01X2997200Y-1651000D03*
G01X3310545Y-1651000D03*
G01X850900Y-2400300D03*
G01X2590800Y-1422400D03*
G01X3352800Y-2552700D03*
G01X4241800Y-1511300D03*
G01X2755900Y-965200D03*
G01X3733800Y-965200D03*
G01X543814Y-2060886D03*
G01X543814Y-1552886D03*
G01X543814Y-1044886D03*
G01X543814Y-536886D03*
G01X1051814Y-1552886D03*
G01X1051814Y-1044886D03*
G01X1051814Y-536886D03*
G01X1051814Y-2060886D03*
G01X1559814Y-1044886D03*
G01X1559814Y-536886D03*
G01X1559814Y-1552886D03*
G01X1559814Y-2568886D03*
G01X2067814Y-536886D03*
G01X2575814Y-536886D03*
G01X2575814Y-2568886D03*
G01X3083814Y-536886D03*
G01X3083814Y-1552886D03*
G01X3591814Y-536886D03*
G01X3591814Y-2568886D03*
G01X4099814Y-536886D03*
G01X4099814Y-1552886D03*
G01X4607814Y-536886D03*
G01X4607814Y-2060886D03*
G01X4607814Y-1552886D03*
G01X5115814Y-1044886D03*
G01X5115814Y-536886D03*
G01X5115814Y-1552886D03*
G01X5115814Y-2568886D03*
G01X5115814Y-2060886D03*
G04 Via End*

G04 Track Start*
G54D11*
G01X4495800Y-2794000D02*
G01X4749800Y-2794000D01*
G01X5283200Y-2260600D01*
G01X5283200Y-2120900D01*
G01X4495800Y-2794000D02*
G01X4344264Y-2642464D01*
G01X4127500Y-2642464D01*
G01X3771900Y-2642464D01*
G01X4127500Y-2642464D02*
G01X4235602Y-2534361D01*
G01X4235602Y-2247900D01*
G01X4235602Y-2058531D01*
G01X4235602Y-2058414D02*
G01X4235602Y-1866900D01*
G01X4235602Y-1676400D01*
G01X3771900Y-2642464D02*
G01X3771900Y-2270887D01*
G01X3437306Y-1936293D01*
G01X3587293Y-1336294D02*
G01X4752594Y-1336294D01*
G01X5283200Y-1866900D01*
G01X5283200Y-1612900D02*
G01X4956607Y-1286307D01*
G01X3587293Y-1286307D01*
G01X5283200Y-1358900D02*
G01X5010607Y-1086307D01*
G01X3437306Y-1086307D01*
G01X423901Y-2808300D02*
G01X469900Y-2762301D01*
G01X469900Y-2551836D01*
G01X693166Y-2551836D01*
G01X698500Y-2546502D01*
G01X423901Y-2808300D02*
G01X356895Y-2875305D01*
G01X356895Y-3008300D01*
G01X836905Y-3008300D02*
G01X836905Y-2875305D01*
G01X769899Y-2808300D01*
G01X1779994Y-2245906D02*
G01X1779994Y-2656302D01*
G01X2737307Y-1736293D02*
G01X2289607Y-1736293D01*
G01X1779994Y-2245906D01*
G01X4495800Y-2540000D02*
G01X4495800Y-2222500D01*
G01X4749800Y-2540000D02*
G01X4749800Y-2222500D01*
G01X3084106Y-2656302D02*
G01X3134898Y-2656302D01*
G01X3187700Y-2603500D01*
G01X4095598Y-2247900D02*
G01X3957387Y-2247900D01*
G01X4095539Y-2058473D02*
G01X3960734Y-2058473D01*
G01X3957342Y-2061865D01*
G01X4095598Y-1866900D02*
G01X3958365Y-1866900D01*
G01X3957342Y-1865876D01*
G01X4095598Y-1676400D02*
G01X3957345Y-1676400D01*
G01X2959113Y-2656302D02*
G01X2959113Y-2374887D01*
G01X3060700Y-2273300D01*
G01X3606800Y-2273300D01*
G01X3810000Y-1701800D02*
G01X3810000Y-1600200D01*
G01X3746094Y-1536294D01*
G01X3587293Y-1536294D01*
G01X469900Y-2401164D02*
G01X1234770Y-1636293D01*
G01X2737307Y-1636293D01*
G01X1784756Y-1086307D02*
G01X1234770Y-1636293D01*
G01X3587293Y-1236294D02*
G01X3678606Y-1236294D01*
G01X3733800Y-1181100D01*
G01X2834094Y-2656302D02*
G01X2514600Y-2336808D01*
G01X2514600Y-1892300D01*
G01X3238500Y-1085113D02*
G01X3237306Y-1086307D01*
G01X2514600Y-965200D02*
G01X2628900Y-850900D01*
G01X3124200Y-850900D01*
G01X3238500Y-965200D01*
G01X3238500Y-1085113D01*
G01X698500Y-2546502D02*
G01X971398Y-2546502D01*
G01X1739900Y-1778000D01*
G01X2324100Y-1536700D02*
G01X2736901Y-1536700D01*
G01X2737307Y-1536294D01*
G01X836905Y-3008300D02*
G01X938200Y-3008300D01*
G01X939800Y-3009900D01*
G01X3976400Y-2997213D02*
G01X3976400Y-2833400D01*
G01X3975100Y-2832100D01*
G01X2737307Y-1586306D02*
G01X2932506Y-1586306D01*
G01X2997200Y-1651000D01*
G01X3307545Y-1358900D02*
G01X3380139Y-1286307D01*
G01X3587293Y-1286307D01*
G01X2997200Y-1358900D02*
G01X2937307Y-1299007D01*
G01X2937307Y-1086307D01*
G01X3387293Y-1936293D02*
G01X3387293Y-1727748D01*
G01X3310545Y-1651000D01*
G01X2030006Y-2656302D02*
G01X2044708Y-2641600D01*
G01X2146300Y-2641600D01*
G01X850900Y-2400300D02*
G01X844702Y-2406498D01*
G01X698500Y-2406498D01*
G01X2737307Y-1286307D02*
G01X2650693Y-1286307D01*
G01X2590800Y-1346200D01*
G01X2590800Y-1422400D01*
G01X3352800Y-2552700D02*
G01X3616091Y-2815991D01*
G01X3616091Y-2992108D01*
G01X4235602Y-1676400D02*
G01X4241800Y-1670202D01*
G01X4241800Y-1511300D01*
G01X3765890Y-2992083D02*
G01X3771900Y-2986073D01*
G01X3771900Y-2793136D01*
G01X4126200Y-2997187D02*
G01X4127500Y-2995887D01*
G01X4127500Y-2793136D01*
G01X2755900Y-965200D02*
G01X2755900Y-1081351D01*
G01X2750944Y-1086307D01*
G01X2887294Y-1086307D02*
G01X2750944Y-1086307D01*
G01X1784756Y-1086307D01*
G04 Track End*

M02*

