G04 Layer: BottomLayer*
G04 EasyEDA Pro v3.2.149.88089769, 2026-07-05 20:04:29*
G04 Gerber Generator version 0.3*
G04 Scale: 100 percent, Rotated: No, Reflected: No*
G04 Dimensions in millimeters*
G04 Leading zeros omitted, absolute positions, 4 integers and 5 decimals*
G04 Generated by one-click*
G04 Object Configs: Pad,Via,Track,Text,Image,Dimension,BoardOutline,BoardCutout,CopperFilled,SolidRegion,FPCStiffener,Line,PlaneZone,ComponentProperty,ComponentSilkscreen,TearDrop*
G04 Layer Configs: 1,2,3,4,5,6,7,8,9,10,11,13,14,56*
G04 Copper Areas: 13*
%FSLAX45Y45*%
%MOMM*%
%ADD10C,0.2032*%
%ADD11C,0.254*%
%ADD12R,1.7X1.7*%
%ADD13C,1.7*%
%ADD14C,0.61*%
%ADD15C,0.4536*%
G75*


G04 Copper Start*
G36*
G01X35814Y-212700D02*
G01X37835Y-187016D01*
G01X43850Y-161964D01*
G01X53709Y-138161D01*
G01X67171Y-116194D01*
G01X83903Y-96603D01*
G01X103494Y-79871D01*
G01X125461Y-66409D01*
G01X149264Y-56550D01*
G01X174316Y-50535D01*
G01X200000Y-48514D01*
G01X5300000Y-48514D01*
G01X5325684Y-50535D01*
G01X5350736Y-56550D01*
G01X5374539Y-66409D01*
G01X5396506Y-79871D01*
G01X5416097Y-96603D01*
G01X5432829Y-116194D01*
G01X5446291Y-138161D01*
G01X5456150Y-161964D01*
G01X5462165Y-187016D01*
G01X5464186Y-212700D01*
G01X5464186Y-2912700D01*
G01X5462165Y-2938384D01*
G01X5456150Y-2963436D01*
G01X5446291Y-2987239D01*
G01X5432829Y-3009206D01*
G01X5416097Y-3028797D01*
G01X5396506Y-3045529D01*
G01X5374539Y-3058991D01*
G01X5350736Y-3068850D01*
G01X5325684Y-3074864D01*
G01X5300000Y-3076886D01*
G01X200000Y-3076886D01*
G01X174316Y-3074864D01*
G01X149264Y-3068850D01*
G01X125461Y-3058991D01*
G01X103494Y-3045529D01*
G01X83903Y-3028797D01*
G01X67171Y-3009206D01*
G01X53709Y-2987239D01*
G01X43850Y-2963436D01*
G01X40205Y-2948254D01*
G01X430995Y-2948254D01*
G01X432761Y-2965057D01*
G01X437982Y-2981125D01*
G01X446429Y-2995756D01*
G01X457734Y-3008312D01*
G01X471402Y-3018242D01*
G01X486837Y-3025114D01*
G01X503363Y-3028627D01*
G01X520257Y-3028627D01*
G01X536783Y-3025114D01*
G01X552218Y-3018242D01*
G01X565886Y-3008312D01*
G01X577191Y-2995756D01*
G01X585638Y-2981125D01*
G01X590859Y-2965057D01*
G01X592625Y-2948254D01*
G01X601175Y-2948254D01*
G01X602941Y-2965057D01*
G01X608162Y-2981125D01*
G01X616609Y-2995756D01*
G01X627914Y-3008312D01*
G01X641582Y-3018242D01*
G01X657017Y-3025114D01*
G01X673543Y-3028627D01*
G01X690437Y-3028627D01*
G01X706963Y-3025114D01*
G01X722398Y-3018242D01*
G01X736066Y-3008312D01*
G01X747371Y-2995756D01*
G01X755818Y-2981125D01*
G01X761039Y-2965057D01*
G01X762805Y-2948254D01*
G01X761039Y-2931452D01*
G01X755818Y-2915384D01*
G01X747371Y-2900752D01*
G01X736066Y-2888197D01*
G01X722398Y-2878266D01*
G01X706963Y-2871394D01*
G01X690437Y-2867882D01*
G01X673543Y-2867882D01*
G01X657017Y-2871394D01*
G01X641582Y-2878266D01*
G01X627914Y-2888197D01*
G01X616609Y-2900752D01*
G01X608162Y-2915384D01*
G01X602941Y-2931452D01*
G01X601175Y-2948254D01*
G01X601175Y-2948254D01*
G01X592625Y-2948254D01*
G01X590859Y-2931452D01*
G01X585638Y-2915384D01*
G01X577191Y-2900752D01*
G01X565886Y-2888197D01*
G01X552218Y-2878266D01*
G01X536783Y-2871394D01*
G01X520257Y-2867882D01*
G01X503363Y-2867882D01*
G01X486837Y-2871394D01*
G01X471402Y-2878266D01*
G01X457734Y-2888197D01*
G01X446429Y-2900752D01*
G01X437982Y-2915384D01*
G01X432761Y-2931452D01*
G01X430995Y-2948254D01*
G01X430995Y-2948254D01*
G01X40205Y-2948254D01*
G01X37835Y-2938384D01*
G01X35814Y-2912700D01*
G01X35814Y-2800000D01*
G01X964186Y-2800000D01*
G01X966077Y-2826444D01*
G01X971713Y-2852350D01*
G01X980978Y-2877190D01*
G01X993683Y-2900459D01*
G01X1009571Y-2921682D01*
G01X1028318Y-2940429D01*
G01X1049541Y-2956317D01*
G01X1072810Y-2969022D01*
G01X1097650Y-2978287D01*
G01X1123556Y-2983923D01*
G01X1150000Y-2985814D01*
G01X1176444Y-2983923D01*
G01X1202350Y-2978287D01*
G01X1227190Y-2969022D01*
G01X1250459Y-2956317D01*
G01X1271682Y-2940429D01*
G01X1290429Y-2921682D01*
G01X1306317Y-2900459D01*
G01X1319022Y-2877190D01*
G01X1328287Y-2852350D01*
G01X1333923Y-2826444D01*
G01X1335814Y-2800000D01*
G01X1333923Y-2773556D01*
G01X1328287Y-2747650D01*
G01X1319022Y-2722810D01*
G01X1311482Y-2709000D01*
G01X4374986Y-2709000D01*
G01X4374986Y-2879000D01*
G01X4376739Y-2890067D01*
G01X4381826Y-2900051D01*
G01X4389749Y-2907974D01*
G01X4399733Y-2913061D01*
G01X4410800Y-2914814D01*
G01X4580800Y-2914814D01*
G01X4580800Y-2914814D01*
G01X4591867Y-2913061D01*
G01X4601851Y-2907974D01*
G01X4609774Y-2900051D01*
G01X4614861Y-2890067D01*
G01X4616614Y-2879000D01*
G01X4616614Y-2794000D01*
G01X4628986Y-2794000D01*
G01X4630822Y-2814979D01*
G01X4636272Y-2835321D01*
G01X4645172Y-2854407D01*
G01X4657251Y-2871658D01*
G01X4672142Y-2886549D01*
G01X4689393Y-2898628D01*
G01X4708479Y-2907528D01*
G01X4728821Y-2912978D01*
G01X4749800Y-2914814D01*
G01X4770779Y-2912978D01*
G01X4791121Y-2907528D01*
G01X4810207Y-2898628D01*
G01X4827458Y-2886549D01*
G01X4842349Y-2871658D01*
G01X4854428Y-2854407D01*
G01X4863328Y-2835321D01*
G01X4868778Y-2814979D01*
G01X4870089Y-2800000D01*
G01X5014186Y-2800000D01*
G01X5016077Y-2826444D01*
G01X5021713Y-2852350D01*
G01X5030978Y-2877190D01*
G01X5043683Y-2900459D01*
G01X5059571Y-2921682D01*
G01X5078318Y-2940429D01*
G01X5099541Y-2956317D01*
G01X5122810Y-2969022D01*
G01X5147650Y-2978287D01*
G01X5173556Y-2983923D01*
G01X5200000Y-2985814D01*
G01X5226444Y-2983923D01*
G01X5252350Y-2978287D01*
G01X5277190Y-2969022D01*
G01X5300459Y-2956317D01*
G01X5321682Y-2940429D01*
G01X5340429Y-2921682D01*
G01X5356317Y-2900459D01*
G01X5369022Y-2877190D01*
G01X5378287Y-2852350D01*
G01X5383923Y-2826444D01*
G01X5385814Y-2800000D01*
G01X5383923Y-2773556D01*
G01X5378287Y-2747650D01*
G01X5369022Y-2722810D01*
G01X5356317Y-2699541D01*
G01X5340429Y-2678318D01*
G01X5321682Y-2659571D01*
G01X5300459Y-2643683D01*
G01X5277190Y-2630978D01*
G01X5252350Y-2621713D01*
G01X5226444Y-2616077D01*
G01X5200000Y-2614186D01*
G01X5173556Y-2616077D01*
G01X5147650Y-2621713D01*
G01X5122810Y-2630978D01*
G01X5099541Y-2643683D01*
G01X5078318Y-2659571D01*
G01X5059571Y-2678318D01*
G01X5043683Y-2699541D01*
G01X5030978Y-2722810D01*
G01X5021713Y-2747650D01*
G01X5016077Y-2773556D01*
G01X5014186Y-2800000D01*
G01X5014186Y-2800000D01*
G01X4870089Y-2800000D01*
G01X4870614Y-2794000D01*
G01X4868778Y-2773021D01*
G01X4863328Y-2752679D01*
G01X4854428Y-2733593D01*
G01X4842349Y-2716342D01*
G01X4827458Y-2701451D01*
G01X4810207Y-2689372D01*
G01X4791121Y-2680472D01*
G01X4770779Y-2675022D01*
G01X4749800Y-2673186D01*
G01X4728821Y-2675022D01*
G01X4708479Y-2680472D01*
G01X4689393Y-2689372D01*
G01X4672142Y-2701451D01*
G01X4657251Y-2716342D01*
G01X4645172Y-2733593D01*
G01X4636272Y-2752679D01*
G01X4630822Y-2773021D01*
G01X4628986Y-2794000D01*
G01X4628986Y-2794000D01*
G01X4616614Y-2794000D01*
G01X4616614Y-2709000D01*
G01X4614861Y-2697933D01*
G01X4609774Y-2687949D01*
G01X4601851Y-2680026D01*
G01X4591867Y-2674939D01*
G01X4580800Y-2673186D01*
G01X4410800Y-2673186D01*
G01X4399733Y-2674939D01*
G01X4389749Y-2680026D01*
G01X4381826Y-2687949D01*
G01X4376739Y-2697933D01*
G01X4374986Y-2709000D01*
G01X1311482Y-2709000D01*
G01X1306317Y-2699541D01*
G01X1290429Y-2678318D01*
G01X1271682Y-2659571D01*
G01X1250459Y-2643683D01*
G01X1227190Y-2630978D01*
G01X1202350Y-2621713D01*
G01X1176444Y-2616077D01*
G01X1150000Y-2614186D01*
G01X1123556Y-2616077D01*
G01X1097650Y-2621713D01*
G01X1072810Y-2630978D01*
G01X1049541Y-2643683D01*
G01X1028318Y-2659571D01*
G01X1009571Y-2678318D01*
G01X993683Y-2699541D01*
G01X980978Y-2722810D01*
G01X971713Y-2747650D01*
G01X966077Y-2773556D01*
G01X964186Y-2800000D01*
G01X964186Y-2800000D01*
G01X35814Y-2800000D01*
G01X35814Y-1891324D01*
G01X2448293Y-1891324D01*
G01X2449768Y-1906240D01*
G01X2454554Y-1920443D01*
G01X2462408Y-1933209D01*
G01X2472928Y-1943885D01*
G01X2485576Y-1951925D01*
G01X2499708Y-1956920D01*
G01X2514600Y-1958614D01*
G01X2529492Y-1956920D01*
G01X2543624Y-1951925D01*
G01X2556272Y-1943885D01*
G01X2566792Y-1933209D01*
G01X2574646Y-1920443D01*
G01X2579432Y-1906240D01*
G01X2580907Y-1891324D01*
G01X2578994Y-1876459D01*
G01X2573792Y-1862402D01*
G01X2565566Y-1849873D01*
G01X2563979Y-1847716D01*
G01X2563114Y-1846145D01*
G01X2563114Y-1831623D01*
G01X3285859Y-2554368D01*
G01X3286358Y-2556091D01*
G01X3286761Y-2558738D01*
G01X3289804Y-2573414D01*
G01X3296065Y-2587032D01*
G01X3305224Y-2598896D01*
G01X3316813Y-2608400D01*
G01X3330241Y-2615059D01*
G01X3344821Y-2618532D01*
G01X3359809Y-2618643D01*
G01X3374439Y-2615384D01*
G01X3387963Y-2608924D01*
G01X3399691Y-2599591D01*
G01X3409024Y-2587863D01*
G01X3415484Y-2574339D01*
G01X3418743Y-2559709D01*
G01X3418632Y-2544721D01*
G01X3417508Y-2540000D01*
G01X4374986Y-2540000D01*
G01X4376822Y-2560979D01*
G01X4382272Y-2581321D01*
G01X4391172Y-2600407D01*
G01X4403251Y-2617658D01*
G01X4418142Y-2632549D01*
G01X4435393Y-2644628D01*
G01X4454479Y-2653528D01*
G01X4474821Y-2658978D01*
G01X4495800Y-2660814D01*
G01X4516779Y-2658978D01*
G01X4537121Y-2653528D01*
G01X4556207Y-2644628D01*
G01X4573458Y-2632549D01*
G01X4588349Y-2617658D01*
G01X4600428Y-2600407D01*
G01X4609328Y-2581321D01*
G01X4614778Y-2560979D01*
G01X4616614Y-2540000D01*
G01X4628986Y-2540000D01*
G01X4630822Y-2560979D01*
G01X4636272Y-2581321D01*
G01X4645172Y-2600407D01*
G01X4657251Y-2617658D01*
G01X4672142Y-2632549D01*
G01X4689393Y-2644628D01*
G01X4708479Y-2653528D01*
G01X4728821Y-2658978D01*
G01X4749800Y-2660814D01*
G01X4770779Y-2658978D01*
G01X4791121Y-2653528D01*
G01X4810207Y-2644628D01*
G01X4827458Y-2632549D01*
G01X4842349Y-2617658D01*
G01X4854428Y-2600407D01*
G01X4863328Y-2581321D01*
G01X4868778Y-2560979D01*
G01X4870614Y-2540000D01*
G01X4868778Y-2519021D01*
G01X4863328Y-2498679D01*
G01X4854428Y-2479593D01*
G01X4842349Y-2462342D01*
G01X4827458Y-2447451D01*
G01X4810207Y-2435372D01*
G01X4791121Y-2426472D01*
G01X4770779Y-2421022D01*
G01X4749800Y-2419186D01*
G01X4728821Y-2421022D01*
G01X4708479Y-2426472D01*
G01X4689393Y-2435372D01*
G01X4672142Y-2447451D01*
G01X4657251Y-2462342D01*
G01X4645172Y-2479593D01*
G01X4636272Y-2498679D01*
G01X4630822Y-2519021D01*
G01X4628986Y-2540000D01*
G01X4628986Y-2540000D01*
G01X4616614Y-2540000D01*
G01X4614778Y-2519021D01*
G01X4609328Y-2498679D01*
G01X4600428Y-2479593D01*
G01X4588349Y-2462342D01*
G01X4573458Y-2447451D01*
G01X4556207Y-2435372D01*
G01X4537121Y-2426472D01*
G01X4516779Y-2421022D01*
G01X4495800Y-2419186D01*
G01X4474821Y-2421022D01*
G01X4454479Y-2426472D01*
G01X4435393Y-2435372D01*
G01X4418142Y-2447451D01*
G01X4403251Y-2462342D01*
G01X4391172Y-2479593D01*
G01X4382272Y-2498679D01*
G01X4376822Y-2519021D01*
G01X4374986Y-2540000D01*
G01X4374986Y-2540000D01*
G01X3417508Y-2540000D01*
G01X3415159Y-2530141D01*
G01X3408500Y-2516713D01*
G01X3398996Y-2505124D01*
G01X3387132Y-2495965D01*
G01X3373514Y-2489704D01*
G01X3358838Y-2486661D01*
G01X3356191Y-2486258D01*
G01X3354468Y-2485759D01*
G01X3149018Y-2280309D01*
G01X3540857Y-2280309D01*
G01X3544116Y-2294939D01*
G01X3550576Y-2308463D01*
G01X3559909Y-2320191D01*
G01X3571637Y-2329524D01*
G01X3585161Y-2335984D01*
G01X3599791Y-2339243D01*
G01X3614779Y-2339132D01*
G01X3629359Y-2335659D01*
G01X3642787Y-2329000D01*
G01X3654376Y-2319496D01*
G01X3663535Y-2307632D01*
G01X3669796Y-2294014D01*
G01X3672839Y-2279338D01*
G01X3673242Y-2276691D01*
G01X3673741Y-2274968D01*
G01X3844305Y-2104405D01*
G01X3852014Y-2094357D01*
G01X3856861Y-2082656D01*
G01X3858514Y-2070100D01*
G01X3858514Y-2035900D01*
G01X5162386Y-2035900D01*
G01X5162386Y-2205900D01*
G01X5164139Y-2216967D01*
G01X5169226Y-2226951D01*
G01X5177149Y-2234874D01*
G01X5187133Y-2239961D01*
G01X5198200Y-2241714D01*
G01X5368200Y-2241714D01*
G01X5379267Y-2239961D01*
G01X5389251Y-2234874D01*
G01X5397174Y-2226951D01*
G01X5402261Y-2216967D01*
G01X5404014Y-2205900D01*
G01X5404014Y-2035900D01*
G01X5404014Y-2035900D01*
G01X5402261Y-2024833D01*
G01X5397174Y-2014849D01*
G01X5389251Y-2006926D01*
G01X5379267Y-2001839D01*
G01X5368200Y-2000086D01*
G01X5198200Y-2000086D01*
G01X5187133Y-2001839D01*
G01X5177149Y-2006926D01*
G01X5169226Y-2014849D01*
G01X5164139Y-2024833D01*
G01X5162386Y-2035900D01*
G01X3858514Y-2035900D01*
G01X3858514Y-1866900D01*
G01X5162386Y-1866900D01*
G01X5164222Y-1887879D01*
G01X5169672Y-1908221D01*
G01X5178572Y-1927307D01*
G01X5190651Y-1944558D01*
G01X5205542Y-1959449D01*
G01X5222793Y-1971528D01*
G01X5241879Y-1980428D01*
G01X5262221Y-1985878D01*
G01X5283200Y-1987714D01*
G01X5283200Y-1987714D01*
G01X5304179Y-1985878D01*
G01X5324521Y-1980428D01*
G01X5343607Y-1971528D01*
G01X5360858Y-1959449D01*
G01X5375749Y-1944558D01*
G01X5387828Y-1927307D01*
G01X5396728Y-1908221D01*
G01X5402178Y-1887879D01*
G01X5404014Y-1866900D01*
G01X5402178Y-1845921D01*
G01X5396728Y-1825579D01*
G01X5387828Y-1806493D01*
G01X5375749Y-1789242D01*
G01X5360858Y-1774351D01*
G01X5343607Y-1762272D01*
G01X5324521Y-1753372D01*
G01X5304179Y-1747922D01*
G01X5283200Y-1746086D01*
G01X5262221Y-1747922D01*
G01X5241879Y-1753372D01*
G01X5222793Y-1762272D01*
G01X5205542Y-1774351D01*
G01X5190651Y-1789242D01*
G01X5178572Y-1806493D01*
G01X5169672Y-1825579D01*
G01X5164222Y-1845921D01*
G01X5162386Y-1866900D01*
G01X3858514Y-1866900D01*
G01X3858514Y-1747955D01*
G01X3858514Y-1747955D01*
G01X3859379Y-1746384D01*
G01X3860966Y-1744227D01*
G01X3869192Y-1731698D01*
G01X3874394Y-1717641D01*
G01X3876307Y-1702776D01*
G01X3874832Y-1687860D01*
G01X3870046Y-1673657D01*
G01X3862192Y-1660891D01*
G01X3851672Y-1650215D01*
G01X3839024Y-1642175D01*
G01X3824892Y-1637180D01*
G01X3810000Y-1635486D01*
G01X3795108Y-1637180D01*
G01X3780976Y-1642175D01*
G01X3768328Y-1650215D01*
G01X3757808Y-1660891D01*
G01X3749954Y-1673657D01*
G01X3745168Y-1687860D01*
G01X3743693Y-1702776D01*
G01X3745606Y-1717641D01*
G01X3750808Y-1731698D01*
G01X3759034Y-1744227D01*
G01X3760621Y-1746384D01*
G01X3761486Y-1747955D01*
G01X3761486Y-2050005D01*
G01X3605132Y-2206359D01*
G01X3603409Y-2206858D01*
G01X3600762Y-2207261D01*
G01X3586086Y-2210304D01*
G01X3572468Y-2216565D01*
G01X3560604Y-2225724D01*
G01X3551100Y-2237313D01*
G01X3544441Y-2250741D01*
G01X3540968Y-2265321D01*
G01X3540857Y-2280309D01*
G01X3149018Y-2280309D01*
G01X2639314Y-1770605D01*
G01X2639314Y-1612900D01*
G01X5162386Y-1612900D01*
G01X5164222Y-1633879D01*
G01X5169672Y-1654221D01*
G01X5178572Y-1673307D01*
G01X5190651Y-1690558D01*
G01X5205542Y-1705449D01*
G01X5222793Y-1717528D01*
G01X5241879Y-1726428D01*
G01X5262221Y-1731878D01*
G01X5283200Y-1733714D01*
G01X5283200Y-1733714D01*
G01X5304179Y-1731878D01*
G01X5324521Y-1726428D01*
G01X5343607Y-1717528D01*
G01X5360858Y-1705449D01*
G01X5375749Y-1690558D01*
G01X5387828Y-1673307D01*
G01X5396728Y-1654221D01*
G01X5402178Y-1633879D01*
G01X5404014Y-1612900D01*
G01X5402178Y-1591921D01*
G01X5396728Y-1571579D01*
G01X5387828Y-1552493D01*
G01X5375749Y-1535242D01*
G01X5360858Y-1520351D01*
G01X5343607Y-1508272D01*
G01X5324521Y-1499372D01*
G01X5304179Y-1493922D01*
G01X5283200Y-1492086D01*
G01X5262221Y-1493922D01*
G01X5241879Y-1499372D01*
G01X5222793Y-1508272D01*
G01X5205542Y-1520351D01*
G01X5190651Y-1535242D01*
G01X5178572Y-1552493D01*
G01X5169672Y-1571579D01*
G01X5164222Y-1591921D01*
G01X5162386Y-1612900D01*
G01X2639314Y-1612900D01*
G01X2639314Y-1468555D01*
G01X2640179Y-1466984D01*
G01X2641766Y-1464827D01*
G01X2649936Y-1452408D01*
G01X2655135Y-1438481D01*
G01X2657100Y-1423746D01*
G01X2655734Y-1408943D01*
G01X2651105Y-1394816D01*
G01X2643445Y-1382076D01*
G01X2633140Y-1371362D01*
G01X2620707Y-1363213D01*
G01X2606771Y-1358038D01*
G01X2592033Y-1356097D01*
G01X2577233Y-1357489D01*
G01X2563114Y-1362142D01*
G01X2563114Y-1011355D01*
G01X2563979Y-1009784D01*
G01X2565566Y-1007627D01*
G01X2573792Y-995098D01*
G01X2578994Y-981041D01*
G01X2580907Y-966176D01*
G01X2580810Y-965200D01*
G01X2689586Y-965200D01*
G01X2691280Y-980092D01*
G01X2696275Y-994224D01*
G01X2704315Y-1006872D01*
G01X2714991Y-1017392D01*
G01X2727757Y-1025246D01*
G01X2741960Y-1030032D01*
G01X2756876Y-1031507D01*
G01X2771741Y-1029594D01*
G01X2785798Y-1024392D01*
G01X2798327Y-1016166D01*
G01X2800484Y-1014579D01*
G01X2802055Y-1013714D01*
G01X3685286Y-1013714D01*
G01X3685286Y-1013714D01*
G01X3685286Y-1134945D01*
G01X3684421Y-1136516D01*
G01X3682834Y-1138673D01*
G01X3674019Y-1152398D01*
G01X3668821Y-1167860D01*
G01X3667555Y-1184122D01*
G01X3670297Y-1200202D01*
G01X3676881Y-1215126D01*
G01X3686909Y-1227991D01*
G01X3699774Y-1238019D01*
G01X3714698Y-1244603D01*
G01X3730778Y-1247345D01*
G01X3747040Y-1246079D01*
G01X3762502Y-1240881D01*
G01X3776227Y-1232066D01*
G01X3778384Y-1230479D01*
G01X3779955Y-1229614D01*
G01X4069305Y-1229614D01*
G01X4193286Y-1353595D01*
G01X4193286Y-1465145D01*
G01X4192421Y-1466716D01*
G01X4190834Y-1468873D01*
G01X4182608Y-1481402D01*
G01X4177406Y-1495459D01*
G01X4175493Y-1510324D01*
G01X4176968Y-1525240D01*
G01X4181754Y-1539443D01*
G01X4189608Y-1552209D01*
G01X4200128Y-1562885D01*
G01X4212776Y-1570925D01*
G01X4226908Y-1575920D01*
G01X4241800Y-1577614D01*
G01X4256692Y-1575920D01*
G01X4270824Y-1570925D01*
G01X4283472Y-1562885D01*
G01X4293992Y-1552209D01*
G01X4301846Y-1539443D01*
G01X4306632Y-1525240D01*
G01X4308107Y-1510324D01*
G01X4306194Y-1495459D01*
G01X4300992Y-1481402D01*
G01X4292766Y-1468873D01*
G01X4291179Y-1466716D01*
G01X4290314Y-1465145D01*
G01X4290314Y-1358900D01*
G01X5162386Y-1358900D01*
G01X5164222Y-1379879D01*
G01X5169672Y-1400221D01*
G01X5178572Y-1419307D01*
G01X5190651Y-1436558D01*
G01X5205542Y-1451449D01*
G01X5222793Y-1463528D01*
G01X5241879Y-1472428D01*
G01X5262221Y-1477878D01*
G01X5283200Y-1479714D01*
G01X5283200Y-1479714D01*
G01X5304179Y-1477878D01*
G01X5324521Y-1472428D01*
G01X5343607Y-1463528D01*
G01X5360858Y-1451449D01*
G01X5375749Y-1436558D01*
G01X5387828Y-1419307D01*
G01X5396728Y-1400221D01*
G01X5402178Y-1379879D01*
G01X5404014Y-1358900D01*
G01X5402178Y-1337921D01*
G01X5396728Y-1317579D01*
G01X5387828Y-1298493D01*
G01X5375749Y-1281242D01*
G01X5360858Y-1266351D01*
G01X5343607Y-1254272D01*
G01X5324521Y-1245372D01*
G01X5304179Y-1239922D01*
G01X5283200Y-1238086D01*
G01X5262221Y-1239922D01*
G01X5241879Y-1245372D01*
G01X5222793Y-1254272D01*
G01X5205542Y-1266351D01*
G01X5190651Y-1281242D01*
G01X5178572Y-1298493D01*
G01X5169672Y-1317579D01*
G01X5164222Y-1337921D01*
G01X5162386Y-1358900D01*
G01X4290314Y-1358900D01*
G01X4290314Y-1333500D01*
G01X4288661Y-1320944D01*
G01X4283814Y-1309243D01*
G01X4276105Y-1299195D01*
G01X4123705Y-1146795D01*
G01X4113657Y-1139086D01*
G01X4101956Y-1134239D01*
G01X4089400Y-1132586D01*
G01X3782314Y-1132586D01*
G01X3782314Y-1011355D01*
G01X3783179Y-1009784D01*
G01X3784766Y-1007627D01*
G01X3793581Y-993902D01*
G01X3798779Y-978440D01*
G01X3800045Y-962178D01*
G01X3797303Y-946098D01*
G01X3790719Y-931174D01*
G01X3780691Y-918309D01*
G01X3767826Y-908281D01*
G01X3752902Y-901697D01*
G01X3736822Y-898955D01*
G01X3720560Y-900221D01*
G01X3705098Y-905419D01*
G01X3691373Y-914234D01*
G01X3689216Y-915821D01*
G01X3687645Y-916686D01*
G01X2802055Y-916686D01*
G01X2800484Y-915821D01*
G01X2798327Y-914234D01*
G01X2785798Y-906008D01*
G01X2771741Y-900806D01*
G01X2756876Y-898893D01*
G01X2741960Y-900368D01*
G01X2727757Y-905154D01*
G01X2714991Y-913008D01*
G01X2704315Y-923528D01*
G01X2696275Y-936176D01*
G01X2691280Y-950308D01*
G01X2689586Y-965200D01*
G01X2580810Y-965200D01*
G01X2579432Y-951260D01*
G01X2574646Y-937057D01*
G01X2566792Y-924291D01*
G01X2556272Y-913615D01*
G01X2543624Y-905575D01*
G01X2529492Y-900580D01*
G01X2514600Y-898886D01*
G01X2499708Y-900580D01*
G01X2485576Y-905575D01*
G01X2472928Y-913615D01*
G01X2462408Y-924291D01*
G01X2454554Y-937057D01*
G01X2449768Y-951260D01*
G01X2448293Y-966176D01*
G01X2450206Y-981041D01*
G01X2455408Y-995098D01*
G01X2463634Y-1007627D01*
G01X2465221Y-1009784D01*
G01X2466086Y-1011355D01*
G01X2466086Y-1846145D01*
G01X2465221Y-1847716D01*
G01X2465221Y-1847716D01*
G01X2463634Y-1849873D01*
G01X2455408Y-1862402D01*
G01X2450206Y-1876459D01*
G01X2448293Y-1891324D01*
G01X35814Y-1891324D01*
G01X35814Y-1785009D01*
G01X1673957Y-1785009D01*
G01X1677216Y-1799639D01*
G01X1683676Y-1813163D01*
G01X1693009Y-1824891D01*
G01X1704737Y-1834224D01*
G01X1718261Y-1840684D01*
G01X1732891Y-1843943D01*
G01X1747879Y-1843832D01*
G01X1762459Y-1840359D01*
G01X1775887Y-1833700D01*
G01X1787476Y-1824196D01*
G01X1796635Y-1812332D01*
G01X1802896Y-1798714D01*
G01X1805939Y-1784038D01*
G01X1806342Y-1781391D01*
G01X1806841Y-1779668D01*
G01X2001295Y-1585214D01*
G01X2277945Y-1585214D01*
G01X2279516Y-1586079D01*
G01X2281673Y-1587666D01*
G01X2294202Y-1595892D01*
G01X2308259Y-1601094D01*
G01X2323124Y-1603007D01*
G01X2338040Y-1601532D01*
G01X2352243Y-1596746D01*
G01X2365009Y-1588892D01*
G01X2375685Y-1578372D01*
G01X2383725Y-1565724D01*
G01X2388720Y-1551592D01*
G01X2390414Y-1536700D01*
G01X2388720Y-1521808D01*
G01X2383725Y-1507676D01*
G01X2375685Y-1495028D01*
G01X2365009Y-1484508D01*
G01X2352243Y-1476654D01*
G01X2338040Y-1471868D01*
G01X2323124Y-1470393D01*
G01X2308259Y-1472306D01*
G01X2294202Y-1477508D01*
G01X2281673Y-1485734D01*
G01X2279516Y-1487321D01*
G01X2277945Y-1488186D01*
G01X1981200Y-1488186D01*
G01X1968644Y-1489839D01*
G01X1956943Y-1494686D01*
G01X1946895Y-1502395D01*
G01X1738232Y-1711059D01*
G01X1738232Y-1711059D01*
G01X1736509Y-1711558D01*
G01X1733862Y-1711961D01*
G01X1719186Y-1715004D01*
G01X1705568Y-1721265D01*
G01X1693704Y-1730424D01*
G01X1684200Y-1742013D01*
G01X1677541Y-1755441D01*
G01X1674068Y-1770021D01*
G01X1673957Y-1785009D01*
G01X35814Y-1785009D01*
G01X35814Y-300000D01*
G01X5014186Y-300000D01*
G01X5016077Y-326444D01*
G01X5021713Y-352350D01*
G01X5030978Y-377190D01*
G01X5043683Y-400459D01*
G01X5059571Y-421682D01*
G01X5078318Y-440429D01*
G01X5099541Y-456317D01*
G01X5122810Y-469022D01*
G01X5147650Y-478287D01*
G01X5173556Y-483923D01*
G01X5200000Y-485814D01*
G01X5226444Y-483923D01*
G01X5252350Y-478287D01*
G01X5277190Y-469022D01*
G01X5300459Y-456317D01*
G01X5321682Y-440429D01*
G01X5340429Y-421682D01*
G01X5356317Y-400459D01*
G01X5369022Y-377190D01*
G01X5378287Y-352350D01*
G01X5383923Y-326444D01*
G01X5385814Y-300000D01*
G01X5383923Y-273556D01*
G01X5378287Y-247650D01*
G01X5369022Y-222810D01*
G01X5356317Y-199541D01*
G01X5340429Y-178318D01*
G01X5321682Y-159571D01*
G01X5300459Y-143683D01*
G01X5277190Y-130978D01*
G01X5252350Y-121713D01*
G01X5226444Y-116077D01*
G01X5200000Y-114186D01*
G01X5173556Y-116077D01*
G01X5147650Y-121713D01*
G01X5122810Y-130978D01*
G01X5099541Y-143683D01*
G01X5078318Y-159571D01*
G01X5059571Y-178318D01*
G01X5043683Y-199541D01*
G01X5030978Y-222810D01*
G01X5021713Y-247650D01*
G01X5016077Y-273556D01*
G01X5014186Y-300000D01*
G01X5014186Y-300000D01*
G01X35814Y-300000D01*
G01X35814Y-212700D01*
G37*
G54D10*
G01X35814Y-212700D02*
G02X200000Y-48514I164186J0D01*
G01X5300000Y-48514D01*
G02X5464186Y-212700I0J-164186D01*
G01X5464186Y-2912700D01*
G02X5300000Y-3076886I-164186J0D01*
G01X200000Y-3076886D01*
G02X35814Y-2912700I0J164186D01*
G01X35814Y-212700D01*
G01X430995Y-2948254D02*
G03X592625Y-2948254I80815J0D01*
G03X430995Y-2948254I-80815J0D01*
G01X601175Y-2948254D02*
G03X762805Y-2948254I80815J0D01*
G03X601175Y-2948254I-80815J0D01*
G01X964186Y-2800000D02*
G03X1335814Y-2800000I185814J0D01*
G03X964186Y-2800000I-185814J0D01*
G01X1738232Y-1711059D02*
G01X1736509Y-1711558D01*
G01X1733862Y-1711961D01*
G03X1693009Y-1824891I6038J-66039D01*
G03X1805939Y-1784038I46891J46891D01*
G01X1806342Y-1781391D01*
G01X1806841Y-1779668D01*
G01X2001295Y-1585214D01*
G01X2277945Y-1585214D01*
G01X2279516Y-1586079D01*
G01X2281673Y-1587666D01*
G03X2390414Y-1536700I42427J50966D01*
G03X2281673Y-1485734I-66314J0D01*
G01X2279516Y-1487321D01*
G01X2277945Y-1488186D01*
G01X1981200Y-1488186D01*
G03X1946895Y-1502395I0J-48514D01*
G01X1738232Y-1711059D01*
G01X2465221Y-1847716D02*
G01X2463634Y-1849873D01*
G03X2514600Y-1958614I50966J-42427D01*
G03X2565566Y-1849873I0J66314D01*
G01X2563979Y-1847716D01*
G01X2563114Y-1846145D01*
G01X2563114Y-1831623D01*
G01X3285859Y-2554368D01*
G01X3286358Y-2556091D01*
G01X3286761Y-2558738D01*
G03X3399691Y-2599591I66039J6038D01*
G03X3358838Y-2486661I-46891J46891D01*
G01X3356191Y-2486258D01*
G01X3354468Y-2485759D01*
G01X2639314Y-1770605D01*
G01X2639314Y-1468555D01*
G01X2640179Y-1466984D01*
G01X2641766Y-1464827D01*
G03X2643445Y-1382076I-50966J42427D01*
G03X2563114Y-1362142I-52645J-40324D01*
G01X2563114Y-1011355D01*
G01X2563979Y-1009784D01*
G01X2565566Y-1007627D01*
G03X2514600Y-898886I-50966J42427D01*
G03X2463634Y-1007627I0J-66314D01*
G01X2465221Y-1009784D01*
G01X2466086Y-1011355D01*
G01X2466086Y-1846145D01*
G01X2465221Y-1847716D01*
G01X3685286Y-1013714D02*
G01X3685286Y-1134945D01*
G01X3684421Y-1136516D01*
G01X3682834Y-1138673D01*
G03X3686909Y-1227991I50966J-42427D01*
G03X3776227Y-1232066I46891J46891D01*
G01X3778384Y-1230479D01*
G01X3779955Y-1229614D01*
G01X4069305Y-1229614D01*
G01X4193286Y-1353595D01*
G01X4193286Y-1465145D01*
G01X4192421Y-1466716D01*
G01X4190834Y-1468873D01*
G03X4241800Y-1577614I50966J-42427D01*
G03X4292766Y-1468873I0J66314D01*
G01X4291179Y-1466716D01*
G01X4290314Y-1465145D01*
G01X4290314Y-1333500D01*
G03X4276105Y-1299195I-48514J0D01*
G01X4123705Y-1146795D01*
G03X4089400Y-1132586I-34305J-34305D01*
G01X3782314Y-1132586D01*
G01X3782314Y-1011355D01*
G01X3783179Y-1009784D01*
G01X3784766Y-1007627D01*
G03X3780691Y-918309I-50966J42427D01*
G03X3691373Y-914234I-46891J-46891D01*
G01X3689216Y-915821D01*
G01X3687645Y-916686D01*
G01X2802055Y-916686D01*
G01X2800484Y-915821D01*
G01X2798327Y-914234D01*
G03X2689586Y-965200I-42427J-50966D01*
G03X2798327Y-1016166I66314J0D01*
G01X2800484Y-1014579D01*
G01X2802055Y-1013714D01*
G01X3685286Y-1013714D01*
G01X3858514Y-1747955D02*
G01X3859379Y-1746384D01*
G01X3860966Y-1744227D01*
G03X3810000Y-1635486I-50966J42427D01*
G03X3759034Y-1744227I0J-66314D01*
G01X3760621Y-1746384D01*
G01X3761486Y-1747955D01*
G01X3761486Y-2050005D01*
G01X3605132Y-2206359D01*
G01X3603409Y-2206858D01*
G01X3600762Y-2207261D01*
G03X3559909Y-2320191I6038J-66039D01*
G03X3672839Y-2279338I46891J46891D01*
G01X3673242Y-2276691D01*
G01X3673741Y-2274968D01*
G01X3844305Y-2104405D01*
G03X3858514Y-2070100I-34305J34305D01*
G01X3858514Y-1747955D01*
G01X4580800Y-2914814D02*
G03X4616614Y-2879000I0J35814D01*
G01X4616614Y-2709000D01*
G03X4580800Y-2673186I-35814J0D01*
G01X4410800Y-2673186D01*
G03X4374986Y-2709000I0J-35814D01*
G01X4374986Y-2879000D01*
G03X4410800Y-2914814I35814J0D01*
G01X4580800Y-2914814D01*
G01X4374986Y-2540000D02*
G03X4616614Y-2540000I120814J0D01*
G03X4374986Y-2540000I-120814J0D01*
G01X4628986Y-2794000D02*
G03X4870614Y-2794000I120814J0D01*
G03X4628986Y-2794000I-120814J0D01*
G01X4628986Y-2540000D02*
G03X4870614Y-2540000I120814J0D01*
G03X4628986Y-2540000I-120814J0D01*
G01X5014186Y-300000D02*
G03X5385814Y-300000I185814J0D01*
G03X5014186Y-300000I-185814J0D01*
G01X5014186Y-2800000D02*
G03X5385814Y-2800000I185814J0D01*
G03X5014186Y-2800000I-185814J0D01*
G01X5404014Y-2035900D02*
G03X5368200Y-2000086I-35814J0D01*
G01X5198200Y-2000086D01*
G03X5162386Y-2035900I0J-35814D01*
G01X5162386Y-2205900D01*
G03X5198200Y-2241714I35814J0D01*
G01X5368200Y-2241714D01*
G03X5404014Y-2205900I0J35814D01*
G01X5404014Y-2035900D01*
G01X5283200Y-1479714D02*
G03X5283200Y-1238086I0J120814D01*
G03X5283200Y-1479714I0J-120814D01*
G01X5283200Y-1733714D02*
G03X5283200Y-1492086I0J120814D01*
G03X5283200Y-1733714I0J-120814D01*
G01X5283200Y-1987714D02*
G03X5283200Y-1746086I0J120814D01*
G03X5283200Y-1987714I0J-120814D01*
G54D11*
G01X5283200Y-1612900D02*
G01X5283200Y-1723554D01*
G01X5283200Y-1612900D02*
G01X5283200Y-1502246D01*
G01X5283200Y-1612900D02*
G01X5172546Y-1612900D01*
G01X5283200Y-1612900D02*
G01X5393854Y-1612900D01*
G01X4495800Y-2540000D02*
G01X4385146Y-2540000D01*
G01X4495800Y-2540000D02*
G01X4606454Y-2540000D01*
G01X4495800Y-2540000D02*
G01X4495800Y-2429346D01*
G01X4495800Y-2540000D02*
G01X4495800Y-2650654D01*
G01X4749800Y-2540000D02*
G01X4639146Y-2540000D01*
G01X4749800Y-2540000D02*
G01X4860454Y-2540000D01*
G01X4749800Y-2540000D02*
G01X4749800Y-2429346D01*
G01X4749800Y-2540000D02*
G01X4749800Y-2650654D01*
G04 Copper End*

G04 TearDrop Start*
G36*
G01X3627182Y-2234958D02*
G01X3645142Y-2252918D01*
G01X3642512Y-2256786D01*
G01X3640071Y-2262486D01*
G01X3638190Y-2268976D01*
G01X3637240Y-2275210D01*
G01X3604890Y-2242860D01*
G01X3611124Y-2241910D01*
G01X3617614Y-2240029D01*
G01X3623314Y-2237588D01*
G01X3627182Y-2234958D01*
G37*
G36*
G01X3822700Y-1743324D02*
G01X3797300Y-1743324D01*
G01X3796426Y-1738729D01*
G01X3794120Y-1732972D01*
G01X3790861Y-1727054D01*
G01X3787125Y-1721974D01*
G01X3832875Y-1721974D01*
G01X3829139Y-1727054D01*
G01X3825880Y-1732972D01*
G01X3823574Y-1738729D01*
G01X3822700Y-1743324D01*
G37*
G36*
G01X3721100Y-1139576D02*
G01X3746500Y-1139576D01*
G01X3747374Y-1144171D01*
G01X3749680Y-1149928D01*
G01X3752939Y-1155846D01*
G01X3756675Y-1160926D01*
G01X3710925Y-1160926D01*
G01X3714661Y-1155846D01*
G01X3717920Y-1149928D01*
G01X3720226Y-1144171D01*
G01X3721100Y-1139576D01*
G37*
G36*
G01X3775324Y-1168400D02*
G01X3775324Y-1193800D01*
G01X3770729Y-1194674D01*
G01X3764972Y-1196980D01*
G01X3759054Y-1200239D01*
G01X3753974Y-1203975D01*
G01X3753974Y-1158225D01*
G01X3759054Y-1161961D01*
G01X3764972Y-1165220D01*
G01X3770729Y-1167526D01*
G01X3775324Y-1168400D01*
G37*
G36*
G01X2501900Y-1850776D02*
G01X2527300Y-1850776D01*
G01X2528174Y-1855371D01*
G01X2530480Y-1861128D01*
G01X2533739Y-1867046D01*
G01X2537475Y-1872126D01*
G01X2491725Y-1872126D01*
G01X2495461Y-1867046D01*
G01X2498720Y-1861128D01*
G01X2501026Y-1855371D01*
G01X2501900Y-1850776D01*
G37*
G36*
G01X2527300Y-1006724D02*
G01X2501900Y-1006724D01*
G01X2501026Y-1002129D01*
G01X2498720Y-996372D01*
G01X2495461Y-990454D01*
G01X2491725Y-985374D01*
G01X2537475Y-985374D01*
G01X2533739Y-990454D01*
G01X2530480Y-996372D01*
G01X2528174Y-1002129D01*
G01X2527300Y-1006724D01*
G37*
G36*
G01X1760282Y-1739658D02*
G01X1778242Y-1757618D01*
G01X1775612Y-1761486D01*
G01X1773171Y-1767186D01*
G01X1771290Y-1773676D01*
G01X1770340Y-1779910D01*
G01X1737990Y-1747560D01*
G01X1744224Y-1746610D01*
G01X1750714Y-1744729D01*
G01X1756414Y-1742288D01*
G01X1760282Y-1739658D01*
G37*
G36*
G01X2282576Y-1549400D02*
G01X2282576Y-1524000D01*
G01X2287171Y-1523126D01*
G01X2292928Y-1520820D01*
G01X2298846Y-1517561D01*
G01X2303926Y-1513825D01*
G01X2303926Y-1559575D01*
G01X2298846Y-1555839D01*
G01X2292928Y-1552580D01*
G01X2287171Y-1550274D01*
G01X2282576Y-1549400D01*
G37*
G36*
G01X2603500Y-1463924D02*
G01X2578100Y-1463924D01*
G01X2577226Y-1459329D01*
G01X2574920Y-1453572D01*
G01X2571661Y-1447654D01*
G01X2567925Y-1442574D01*
G01X2613675Y-1442574D01*
G01X2609939Y-1447654D01*
G01X2606680Y-1453572D01*
G01X2604374Y-1459329D01*
G01X2603500Y-1463924D01*
G37*
G36*
G01X3314458Y-2532318D02*
G01X3332418Y-2514358D01*
G01X3336286Y-2516988D01*
G01X3341986Y-2519429D01*
G01X3348476Y-2521310D01*
G01X3354710Y-2522260D01*
G01X3322360Y-2554610D01*
G01X3321410Y-2548376D01*
G01X3319529Y-2541886D01*
G01X3317088Y-2536186D01*
G01X3314458Y-2532318D01*
G37*
G36*
G01X4229100Y-1469776D02*
G01X4254500Y-1469776D01*
G01X4255374Y-1474371D01*
G01X4257680Y-1480128D01*
G01X4260939Y-1486046D01*
G01X4264675Y-1491126D01*
G01X4218925Y-1491126D01*
G01X4222661Y-1486046D01*
G01X4225920Y-1480128D01*
G01X4228226Y-1474371D01*
G01X4229100Y-1469776D01*
G37*
G36*
G01X2797424Y-952500D02*
G01X2797424Y-977900D01*
G01X2792829Y-978774D01*
G01X2787072Y-981080D01*
G01X2781154Y-984339D01*
G01X2776074Y-988075D01*
G01X2776074Y-942325D01*
G01X2781154Y-946061D01*
G01X2787072Y-949320D01*
G01X2792829Y-951626D01*
G01X2797424Y-952500D01*
G37*
G36*
G01X3692276Y-977900D02*
G01X3692276Y-952500D01*
G01X3696871Y-951626D01*
G01X3702628Y-949320D01*
G01X3708546Y-946061D01*
G01X3713626Y-942325D01*
G01X3713626Y-988075D01*
G01X3708546Y-984339D01*
G01X3702628Y-981080D01*
G01X3696871Y-978774D01*
G01X3692276Y-977900D01*
G37*
G36*
G01X3746500Y-1006724D02*
G01X3721100Y-1006724D01*
G01X3720226Y-1002129D01*
G01X3717920Y-996372D01*
G01X3714661Y-990454D01*
G01X3710925Y-985374D01*
G01X3756675Y-985374D01*
G01X3752939Y-990454D01*
G01X3749680Y-996372D01*
G01X3747374Y-1002129D01*
G01X3746500Y-1006724D01*
G37*
G04 TearDrop End*

G04 Pad Start*
G54D12*
G01X4495800Y-2794000D03*
G54D13*
G01X4495800Y-2540000D03*
G01X4749800Y-2794000D03*
G01X4749800Y-2540000D03*
G54D12*
G01X5283200Y-2120900D03*
G54D13*
G01X5283200Y-1866900D03*
G01X5283200Y-1612900D03*
G01X5283200Y-1358900D03*
G04 Pad End*

G04 Via Start*
G54D14*
G01X2146300Y-2641600D03*
G01X3187700Y-2603500D03*
G01X3975100Y-2832100D03*
G01X4495800Y-2222500D03*
G01X4749800Y-2222500D03*
G01X3957342Y-1676396D03*
G01X3957342Y-1865876D03*
G01X3957342Y-2061865D03*
G01X3957342Y-2247854D03*
G01X3606800Y-2273300D03*
G01X3810000Y-1701800D03*
G01X3733800Y-1181100D03*
G01X2514600Y-1892300D03*
G01X2514600Y-965200D03*
G01X1739900Y-1778000D03*
G01X2324100Y-1536700D03*
G01X939800Y-3009900D03*
G01X2997200Y-1358900D03*
G01X3307545Y-1358900D03*
G01X2997200Y-1651000D03*
G01X3310545Y-1651000D03*
G01X850900Y-2400300D03*
G01X2590800Y-1422400D03*
G01X3352800Y-2552700D03*
G01X4241800Y-1511300D03*
G01X2755900Y-965200D03*
G01X3733800Y-965200D03*
G01X543814Y-2060886D03*
G01X543814Y-1552886D03*
G01X543814Y-1044886D03*
G01X543814Y-536886D03*
G01X1051814Y-1552886D03*
G01X1051814Y-1044886D03*
G01X1051814Y-536886D03*
G01X1051814Y-2060886D03*
G01X1559814Y-1044886D03*
G01X1559814Y-536886D03*
G01X1559814Y-1552886D03*
G01X1559814Y-2568886D03*
G01X2067814Y-536886D03*
G01X2575814Y-536886D03*
G01X2575814Y-2568886D03*
G01X3083814Y-536886D03*
G01X3083814Y-1552886D03*
G01X3591814Y-536886D03*
G01X3591814Y-2568886D03*
G01X4099814Y-536886D03*
G01X4099814Y-1552886D03*
G01X4607814Y-536886D03*
G01X4607814Y-2060886D03*
G01X4607814Y-1552886D03*
G01X5115814Y-1044886D03*
G01X5115814Y-536886D03*
G01X5115814Y-1552886D03*
G01X5115814Y-2568886D03*
G01X5115814Y-2060886D03*
G04 Via End*

G04 Track Start*
G54D11*
G01X3606800Y-2273300D02*
G01X3810000Y-2070100D01*
G01X3810000Y-1701800D01*
G01X2514600Y-1892300D02*
G01X2514600Y-965200D01*
G01X1739900Y-1778000D02*
G01X1981200Y-1536700D01*
G01X2336800Y-1536700D01*
G01X2590800Y-1422400D02*
G01X2590800Y-1790700D01*
G01X3352800Y-2552700D01*
G01X3733800Y-1181100D02*
G01X4089400Y-1181100D01*
G01X4241800Y-1333500D01*
G01X4241800Y-1511300D01*
G01X3733800Y-1181100D02*
G01X3733800Y-965200D01*
G01X2755900Y-965200D02*
G01X3733800Y-965200D01*
G04 Track End*

M02*

